<mxfile host="app.diagrams.net" agent="Mozilla/5.0 (Windows NT 10.0; Win64; x64) AppleWebKit/537.36 (KHTML, like Gecko) Chrome/136.0.0.0 Safari/537.36" version="27.0.6">
  <diagram name="Page-1" id="oz16V7PmPvuccUm8ry9I">
    <mxGraphModel dx="4043" dy="2370" grid="1" gridSize="10" guides="1" tooltips="1" connect="1" arrows="1" fold="1" page="1" pageScale="1" pageWidth="1169" pageHeight="827" math="1" shadow="0">
      <root>
        <mxCell id="0" />
        <mxCell id="1" parent="0" />
        <mxCell id="11DrzAMgFBPu7YquSY21-1" value="" style="shape=image;verticalLabelPosition=bottom;labelBackgroundColor=default;verticalAlign=top;aspect=fixed;imageAspect=0;image=data:image/png,iVBORw0KGgoAAAANSUhEUgAACdkAAAf5CAYAAAAU+JBLAAAAOnRFWHRTb2Z0d2FyZQBNYXRwbG90bGliIHZlcnNpb24zLjEwLjEsIGh0dHBzOi8vbWF0cGxvdGxpYi5vcmcvc2/+5QAAAAlwSFlzAAAuIwAALiMBeKU/dgABAABJREFUeJzs3Q2QJVV5MP5n753ZD3aJEmAJ4LoGSMTFIEJIFDRgIUQFBGNJfMWKqLEqMYliVPx4FSUxiahg9I3mTTSJMa8xJaRcZAivSCIQFguCRIxCEflYPhZ1ASMuu8vszL37r3v/Yd69y/b0mZ2zfbvv/H5VW9q3zz3n6dOnT/dtnuletH379u0BAAAAAAAAAAAAPEnryR8BAAAAAAAAAAAAPZLsAAAAAAAAAAAAoIAkOwAAAAAAAAAAACggyQ4AAAAAAAAAAAAKSLIDAAAAAAAAAACAApLsAAAAAAAAAAAAoIAkOwAAAAAAAAAAACggyQ4AAAAAAAAAAAAKSLIDAAAAAAAAAACAApLsAAAAAAAAAAAAoIAkOwAAAAAAAAAAACggyQ4AAAAAAAAAAAAKSLIDAAAAAAAAAACAApLsAAAAAAAAAAAAoIAkOwAAAAAAAAAAACggyQ4AAAAAAAAAAAAKSLIDAAAAAAAAAACAApLsAAAAAAAAAAAAoIAkOwAAAAAAAAAAACggyQ4AAAAAAAAAAAAKSLIDAAAAAAAAAACAApLsAAAAAAAAAAAAoIAkOwAAAAAAAAAAACggyQ4AAAAAAAAAAAAKSLIDAAAAAAAAAACAApLsAAAAAAAAAAAAoIAkOwAAAAAAAAAAACggyQ4AAAAAAAAAAAAKSLIDAAAAAAAAAACAApLsAAAAAAAAAAAAoMBY0QoAAAAAAAAAAGB0bN++PW655Zb41re+FRs3bux/dsABB8RznvOcOProo2PRokXZ2nrkkUdi3bp1cdddd8XmzZtj+fLlceihh8bxxx8f++67b7Z2oAqS7AAAAAAAAAAAYJ42bNgQN910U9x44439/7355ptj06ZNM+tXr14d69evH0psU1NT8YlPfCL+9E//tB/nrjztaU+Lc889N97ylrfE+Pj4brd16623xvnnnx8TExPR7XaftL7dbsepp54af/iHfxhHHnnkbrcDVVq0vZeiCgAAAAAAAAAAzEnvSW0XXXRRP7HuwQcfnLXssJLs7r///jjjjDPi3//935PKH3PMMXHZZZfFwQcfPOe2eol873jHO2J6erq07NjYWFx88cXxe7/3e3NuB6rWqrxFAAAAAAAAAAAYAf/2b/8WX/7yl0sT7Ial90rYF73oRU9KsFu2bFkcccQR8axnPSuWLl06sO6b3/xm/zsPP/zwnNrqJcz1noS3c4LdgQce2E/c6/3vjnrlek/N++QnPznn7YKqSbIDAAAAAAAAAIDMVqxYMewQ4pxzzom77rprZrmXUNd7ZWwvge473/lO3Hbbbf3/30uQ2zHZ7nvf+1684Q1vSG7nhhtuiPPOO2/gsxNPPLGfsNdLQOy9Orf3v72kxBNOOGGg3Nvf/vb+63WhziTZAQAAAAAAAADAPOy99979pLJ3vvOdcckll/RfC3v55ZcPNaarrroqrrzyypnl8fHx+OpXvxpvfetbY6+99pr5fPny5fG2t70t/u///b/9Mk/oxf/1r389qa3ednc6nZnl008/vd/W0UcfPVDuF3/xF/txnXrqqQNPtOt9H+ps0fbt27cPOwgAAAAAAAAAAGia3lPiJicn4/DDD49Wa/BZV9dcc03/tatPWL16dT/5riq//Mu/PPCEuPe///3xB3/wB7N+p1fmQx/60MzycccdF+vWrZv1O71Evpe97GUzy/vuu2/cfvvtsf/++8/6Gts1a9bEI488MvNZL/nu5JNPLt0uGAZPsgMAAAAAAAAAgN1w6KGH9pPFdk6wG7b/+I//GEiw6z2tLuVpcb1XvvbK7vga2F7C3Gw++9nPDiz/zu/8zqwJdj0rV66MN7/5zbPWA3VSryMcAAAAAAAAAACYl8suu2xg+ayzzuq/0rZMr8yrXvWqgc/Wrl1bWL73FL/ea2F39IY3vCEpxp3L9Z6It23btqTvQtUk2QEAAAAAAAAAwAi54oorBpZPOeWU5O/u/MrWiYmJwrK9V+Ju3rx5ZvmZz3xm/7W4KZ7xjGfEz/3cz80sb9q0Ka699trkOKFKkuwAAAAAAAAAAGBEbN++Pb797W8PfHbcccclf//4448fWL711lv7de7Kt771rd1uZ1dt7Vwf1IUkOwAAAAAAAAAAGBH33ntvbNmyZWZ5+fLl8fSnPz35+70n0e21114zy70n1d1///27LHv77bcPLK9Zs2ZOse5cfuf6oC4k2QEAAAAAAAAAwIi44447BpZXrVo15zp2/s7OdeZqK7UdGLaxYQcAAAAAAAAAAED9PP7443HXXXdFHT3yyCPxX//1X/0krSVLlszpu/vvv3+sXLkyRtXGjRsHlp/2tKfNuY6DDz54IOFt5zpztdVrZ7b6oC4k2QEAAAAAAAAA8CS9BLtnP/vZMWo+8IEPxAc/+MEYVY899tjAcu91sXO183d2rjNXW6ntwLB5XSwAAAAAAAAAAIyInRPVli5dOuc6li1bNmududpKbQeGTZIdAAAAAAAAAACM0Gt+d7R48eI517HzK3i3bt26R9pKbQeGzetiAQAAAAAAAAAo9eqI+Okhx/CjiPiHHZbXrl0bhx122Jzq2H///WOU7fw0uW3bts25jsnJyVnr3PHzLVu27HZbqe3AsEmyAwAAAAAAAACgVC/BbmXUSy/B7ogjjhh2GLWyYsWKWZ82l2LnJ8rtXOeOn++YZDfXtlLbgWHzulgAAAAAAAAAABgROyeqbd68ec517Pyd2ZLs5tNWajswbJLsAAAAAAAAAABgRKxcOfi8wQceeGDOdWzYsGHWOnO1ldoODJskOwAAAAAAAAAAGBHPfOYzB5bvv//+Odex83cOP/zwpLbuu+++ObWzc/midmDYJNkBAAAAAAAAAMCIWL16dSxbtmzglaz33ntv8vd7Zbds2TKzvHz58li1atUuy+6cFHfbbbfNKdbbb7991vqgLiTZAQAAAAAAAABQqh0RY0P+14uB2S1atCiOPPLIgc9uuOGG5O+vW7duYLlXV6/OXTnqqKN2u51dtbVzfVAXkuwAAAAAAAAAAGCEnHbaaQPLX/va15K/u3PZ008/vbDsiSee2H/S3RP+8z//M/mpeevXr4/vfe97M8t77713vz6oI0l2AAAAAAAAAAAwQl7+8pcPLF9yySXx2GOPlX5v06ZN/bI7OuOMMwrLL126NE455ZSBz/76r/86Kcady73kJS+JxYsXJ30XqibJDgAAAAAAAAAARkjvFa/HHnvszHIvwe4jH/lI6fd6ZTZv3jyz/LznPS/WrFkz63fe+MY3Dix/6lOfioceemjW72zcuDE+/elPz1oP1IkkOwAAAAAAAAAAqLFFixYN/LvmmmtKv/MHf/AHA8sf/vCH47rrrissf+2118aFF1448NmHPvSh0nZOPfXUfjLeEx555JF+wtzU1NQuy2/btq2/vlfuCS984QvjV3/1V0vbgmEZG1rLAAAAAAAAAADQcOvWrYutW7c+6fNbb711YPnxxx+Pq6++epd1HHTQQaVPjJur3utXe69yveqqq/rLvaS3XiJbL9nuTW96U+y11179z3tPrvvMZz4T73nPewYS4172spfFSSedlNTWRz/60TjhhBOi2+32ly+//PJ+2xdddFEcffTRM+W++c1vxtvf/vZ+Qt8T2u120lP2YJgWbd++fftQIwAAAAAAAAAAoHa++93vxrOf/eyZ5d+LiAOGGlHEDyPif+2w/J3vfCeOOOKIIUYU8YxnPCPuvffeedXxute9Lj73uc8Vru89vW5HX//61+PEE08srfeHP/xhPP/5z4977rln4PNly5bFIYccEr20obvvvrufALijQw89NL7xjW/E/vvvn7wNvUS5d73rXbtMIDzwwAPjwQcfjO9///tPWt9LxPv93//95HZgGDzJDgAAAAAAAACApCST8RrEQLoDDjign5B3xhlnDDxZr/fkvV4S5a4cddRR8ZWvfGVOCXY95513Xv+pdL1Eu06nM/N5L7mu929nvbIf+9jH4txzz51TOzAMraG0CgAAAAAAAAAA7HGrV6+Om266KS688ML+U+WK9Nb1nkZ34403xqpVq3arrd6rYG+++eY49dRTo9XadVpS7/PTTjut/+pYCXY0hdfFAgAAAAAAAABQ+rrYt0XEzww1oogfRMTHa/a62Cbpdrv95LbeU+02btzY/2zlypX9p9cdffTRhYlxu+Phhx+O66+/vv862s2bN8fy5cv7r6E9/vjjY7/99svWDlTBUzQBAAAAAAAAAGAB6CXRHXvssf1/e1ovke7MM8/c4+1AFbwuFgAAAAAAAAAAAApIsgMAAAAAAAAAAIACkuwAAAAAAAAAAACgwFjRCgAAAAAAAAAA2DHJZNiJJsNuH1iYPMkOAAAAAAAAAAAACkiyAwAAAAAAAAAAgAKS7AAAAAAAAAAAAKCAJDsAAAAAAAAAAAAoIMkOAAAAAAAAAAAACkiyAwAAAAAAAAAAgAJjRSsAAAAAAAAAAGDHJJPxGsQAUDVPsgMAAAAAAAAAAIACkuwAAAAAAAAAAACggCQ7AAAAAAAAAAAAKCDJDgAAAAAAAAAAAApIsgMAAAAAAAAAAIACkuwAAAAAAAAAAACgwFjRCgAAAAAAAAAAeEK7BokmvRgAquZJdgAAAAAAAAAAAFBAkh0AAAAAAAAAAAAUkGQHAAAAAAAAAAAABSTZAQAAAAAAAAAAQAFJdgAAAAAAAAAAAFBAkh0AAAAAAAAAAAAUkGQHAAAAAAAAAAAABcaKVgAAAAAAAAAAwI5JJuM1iAGgap5kBwAAAAAAAAAAAAUk2QEAAAAAAAAAAEABSXYAAAAAAAAAAABQQJIdAAAAAAAAAAAAFJBkBwAAAAAAAAAAAAXGilYAe8aPf/zjuPbaa2eWV61aFUuWLBlqTAAAAAAAADAsk5OTcf/9988sn3DCCfHUpz51qDEBAOxIkh1UrJdgd+aZZw47DAAAAAAAAKiltWvXxhlnnDHsMICCJJNhJ5oMu31gYfK6WAAAAAAAAAAAACggyQ4AAAAAAAAAAAAKeIomVGzVqlUDy29d+5Y44LADhhYPAAAAAAAADNMP7/xhfOLMTxb+9zQAgGGTZAcVW7JkycByL8HuaUccPLR4AAAAAAAAoM7/PQ0AYNi8LhYAAAAAAAAAAAAKSLIDAAAAAAAAAACAAl4XCwAAAAAAAABAUpLJeA1iAKiaJ9kBAAAAAAAAAABAAUl2AAAAAAAAAAAAUMBTNKHGutGedX0rOpW0k6utlHaqiCOXHNszituUsj2jNhbqdJzVaWynqMs2N7HvqLdRG9sAsFC0ozvr+k6mv1dNuW7slrRVtj6nsZiedf14TFUSR5X9P2rXhHX6Hd6k30112odN69sm9V3T7oOM2vE8irE0SZ3mjaap6niuy7yRGssVExO7Xf+j9z66298FAKiCJ9kBAAAAAAAAAABAAUl2AAAAAAAAAAAAUECSHQAAAAAAAAAAABQYK1oBAAAAAAAAAABPaNcg0aQXA0DVPMkOAAAAAAAAAAAACkiyAwAAAAAAAAAAgAKS7AAAAAAAAAAAAKDAsF+VDTCgFZ1519GNdiWx5Ig1Jd6q2snZVhXt1Gl7co056s1+po5zew7GNgBNOF+VaUe3Nu10Ev6mtZtQZjrGZ10/lem23nhMl5bpZujflHbKjWXp/6rU6Xdrk6QcH62Kjvk6zT+5xnZK/+bo/zqNf795GNWxkuMYch6q/1ioUyxXTEwMOwQAgKGqz10nAAAAAAAAAAAAqBlJdgAAAAAAAAAAAFDA62IBAAAAAAAAAEhKMhmvQQwAVfMkOwAAAAAAAAAAACggyQ4AAAAAAAAAAAAKSLIDAAAAAAAAAACAApLsAAAAAAAAAAAAoIAkOwAAAAAAAAAAACgwVrQCYBi60Z51fSs6pXWklKki1lRVxZvSTo5tqlM7Valqmxku+5mmzlGjFCsAo6kd3XnX0cpQRy6dTH/TWlZPyrVnN1MsYzE17/7Pcc3RStieXP2fg+usPSfX2K5q7qiqnap+k6b0f9m8UadjsWn3+HJI2eYmbU+u+za5trm6Y3G07rHWaZurGk+57jfm2I9XTEyUlulk6P92w8YcAMCO6nPXCQAAAAAAAAAAAGrGk+wAAAAAAAAAACg1/t//hh0DQNU8yQ4AAAAAAAAAAAAKSLIDAAAAAAAAAACAApLsAAAAAAAAAAAAoIAkOwAAAAAAAAAAACggyQ4AAAAAAAAAAAAKSLIDAAAAAAAAAACAAmNFKwCGoRWdedfRjXYlseSINSXeqtrJ2VaOdsrirdP25Bpz1Jv9TB3n9hyMbYCFqU7noqq0ozvvOjqZ/l51OsbnXWYq0229HLV0a/R3vCn7edSuf6r6fVxVv7WS9mF9xlxKvFVJu99STd8txPs2OdpJ6ZM69VuT5paUeHNtc5Ous+p0TqxTv9WpX3K4YmJi2CEAI6Zdg0ST0Zqpgaaoz90IAAAAAAAAAAAAqBlJdgAAAAAAAAAAAFBAkh0AAAAAAAAAAAAUkGQHAAAAAAAAAAAABSTZAQAAAAAAAAAAQAFJdgAAAAAAAAAAAFBgrGgFAAAAAAAAAADsmGQyXoMYAKrmSXYAAAAAAAAAAABQQIIvMHJa0amknW60GxVvjm3KFWuOvqtTvwE0eY5qUqwANE87uqVlWgll8rTTqeS3Sq7fiqMmR7+k7OdRu/5J6bc6bU834W+6cxzzVck15nLUk9K3VWnSPqT+56qqzs+5VHVfs6p7z3U6h+RS1TblaCfXfr5iYmLedXRqdJwBANSVJDsaaWpqKu6444747ne/Gz/84Q9j06ZNsWLFith3333jyCOPjGc/+9nRatXnxhMAAAAAAAAAANBMkuwotGHDhrjpppvixhtv7P/vzTff3E9me8Lq1atj/fr1lcVzzz33xKWXXhpf+9rX4vrrr4+tW7cWln3KU54Sr33ta+Otb31r/NzP/VxlMQIAAAAAAAAAAKNFkh0D1q1bFxdddFE/se7BBx+MOpicnIwTTjihH1OqRx99ND71qU/FZz7zmfijP/qjePvb3x6LFi3ao3ECAAAAAAAAAACjR5IdA/7t3/4tvvzlL0fdXg1blGC3dOnSOPDAA2O//faLzZs3x5133hnbtm2bWd/7/+985zv7T8HrJd0BAAAAAAAAAADMRWtOpVnQVqxYEXXwsz/7s/HBD36w/9S9n/zkJ3H33Xf3X2f73e9+N3784x/H3/3d3/VfZbujT3/60/Fnf/ZnQ4sZAAAAAAAAAJqu/d9Pcxrmv14MAFWTZMcu7b333nHiiSf2nwJ3ySWXxPr16+Pyyy8fakzHH398fPWrX4277rorPvCBD8Rxxx0X4+PjA2WWLVsWr33ta+Pf//3f49hjjx1Y9/73vz9+9KMfVRw1AAAAAAAAAADQZF4Xy4DTTz89TjnllDj88MOj1RrMwey9cnUYFi9eHBMTE3Hqqacmf2efffaJtWvXxs///M/3XyPb03vK3T/+4z/Gm970pj0YLQAAAAAAAAAAMEok2THg0EMPjbrpJdnNJcHuCQcddFC87nWv678q9gm9J+FJsht93UwPCG5FZ17rc8Wbq50UVbWV0k5Zv6Ts5yr7DqCuc3udzq0A1EfTzkXt6EYddBNeCpFSZirhllxKPVX1W1ksnaRYy7e5VdF+TumXtG2qx3VW034f5xjbVUkZB1WN2zpJ2YcLsV9yaNrxXCf6ZWGMuTrFUtX2XDExUUksAACUa84dDdgNL3zhCweW77vvvqHFAgAAAAAAAAAANI8kO0Za77WxO3r00UeHFgsAAAAAAAAAANA8kuwYaRs2bBhY3nfffYcWCwAAAAAAAAAA0DyS7Bhp//qv/zqw/PM///NDiwUAAAAAAAAAAGiesWEHAHvKT37yk7j00ksHPnvZy142tHgAAAAAAAAAoOlJJuM1iAGgap5kx8j60Ic+FI899tjM8n777RennXbaUGMCAAAAAAAAAACaRYIvI+mGG26Iiy++eOCz973vfbHXXntlbWfjxo3x0EMPzek7d955Z9YYAAAAAAAAAACAPUeSHSOnl/j26le/Ojqdzsxnxx57bPzu7/5u9rY+/elPxwUXXJC9XgAAAAAAAAAAoB4k2TFSJicn4xWveEXcf//9M5/tvffe8fd///fRbreHGhvVacX/S7Dck7rRblS8ObYpV6wpfVenfhk1ucZuGfsQRofjGYBdaUe3tEwroUxaPfU4F3WiVVqmm1Amh5R+G4up0jLjMT3v/Vjdb4xuZfWUb3Mry3jJoS7HR2rflvVdrmMobT935n2cVSVle1LGXI6x3TRl+7mqOWwUNe0eX1X3PquSEm+O8T1qx0hKv1U1Fq6YmKikHQAA8hi9X8wsWN1uN1772tf2XxX7hF5i3Re+8IU47LDDhhobAAAAAAAAAADQTJ5kx8h485vfHJdeeunM8qJFi+Izn/lMnH766Xu0zVe96lVz+s6dd94ZZ5555h6LCQAAAAAAAAAAyEeSHSPhPe95T/zFX/zFwGcXXXRRvP71r9+j7a5cubL/DwAAAAAAAAAWQpLJsBNNht0+sDB5XSyN9+EPf7j/b0fnn39+vO1tbxtaTAAAAAAAAAAAwGiQZEejfepTn+o/xW5Hb33rW+OCCy4YWkwAAAAAAAAAAMDokGRHY33+85+P3/u93xv47A1veEN8/OMfH1pMAAAAAAAAAADAaJFkRyP94z/+Yz+hbvv27TOfnXXWWfGZz3wmFi1aNNTYAAAAAAAAAACA0SHJjsa58sor4zWveU10Op2Zz0499dT4P//n/0SrZUgDAAAAAAAAAAD5jGWsC/a4a6+9Nl75ylfGtm3bZj570YteFJdeemmMj48PNTbqoxvtLPW0ojOv9amxlJVJaSeXqtrK1Xc52qlKk2LJdQwBo6NO80JV5xCAYanTdeOoSTk/TJXcKpuO8nsPUwll8vze6WYqM/8x1034O960MrPHOx5TWba5nVCm06C/TU4ZT66hhivHeEo5hlJUdcyn1VOfe2J1MWr35kZxDssRb65tru6Yr6Zvm7afy1w5cVnURSdTv7UX4LwMALAjSXY0xs033xynn356bN26deaz5z3vefGVr3wlli5dOtTYAAAAAAAAAGAhJJkM+/E3El2AYWjOn2QyUhYtWjTw75prrpm1/He/+914yUteEps2bZr57Kijjuq/OnbFihUVRAwAAAAAAAAAACxEEnx5knXr1g08Le4Jt95668Dy448/HldfffUu6zjooINizZo1WeL5/ve/H6eccko88sgjM58tX748zjvvvP7T7ebqxS9+cZa4AAAAAAAAAACA0SfJjic5++yz49577y0t98Mf/jBOPvnkXa573eteF5/73OeyxHPHHXfEgw8+OPDZ5s2b4zWvec1u1bd9+/YscQEAAAAAAAAAAKPP62IBAAAAAAAAAACggCQ7AAAAAAAAAAAAKOB1sTzJ+vXr93gbc3ll64knnugVrwAAAAAAAAAAwFBIsgMWpFZ05l1HN9q1iSWXsm3KFWtK39WpX0Ztm3ONXWDhSJmfqjqHpBi1cwjAsLSjO+v6Vsn6lDrqNm93Sl760E14KUSuMmX9OxZTpXWMJ5RJ2Y85tqeK/ZMqZVymlGkSvwMXhpRxW3Yc1WlObtLvnYV6jylFnX4rjtp+TpGjf+u0j+q0zVdMTERddGo0doGFoV2DRBMzHzAMXhcLAAAAAAAAAAAABSTZAQAAAAAAAAAAQAFJdgAAAAAAAAAAAFBAkh0AAAAAAAAAAAAUkGQHAAAAAAAAAAAABSTZAQAAAAAAAAAAQIGxohUAAAAAAAAAALBjksl4DWIAqJon2QEAAAAAAAAAAEABCb4Au6kVndIy3WjPu0xKO7lU2VaOvqvL9tSp33LEm6PvAfbU3FLVnNu0eMvUaW7PdQ3VpLGQK9aqrhur6v+qjrNRO55zaUc3FppOwt+alo2XqYS/1a9qzKXsw1amMt2SvqvqPDOd9KyEqdISrYSxsBCPkbpIGZNV1lOVsuOsTnJdz1VRxyiew0ft90EuVV2f5minqmNooY6FHK6YmIi66NhHAAC10Zxf7gAAAAAAAAAAAFAxSXYAAAAAAAAAAABQQJIdAAAAAAAAAAAAFJBkBwAAAAAAAAAAAAUk2QEAAAAAAAAAAECBsaIVAAAAAAAAAACwY5LJsBNNht0+sDB5kh0AAAAAAAAAAAAUkGQHAAAAAAAAAAAABTxFE0ZcN9oj1U6V8bais8frqJuybcq1PU3qlyrHdlX90rTjFUbRKJ5DRk1K/6fsx1Gbc+s0LuvUtzn6Jcf2VDm3VHXdyHC1ojvr+nbJ+tSxUNZOT7fk70RTxv9Uwm2w6ZIyZXGklknZ5rIyYzFVWkdKmTrNp1XNhd2E/s8hZT/n0KnR31HnOEaq6rcqt7lOyubuXOMp1/V0jnaapKrruaquCauqYxTHQp3kOJ6rmhNS6pmYmEiopTyW9oiNuVHbHgCAPaFZdwAAAAAAAAAAAACgQpLsAAAAAAAAAAAAoIAkOwAAAAAAAAAAACgwVrQCAAAAAAAAAAB2TDIZr0EMAFXzJDsAAAAAAAAAAAAoIMkOAAAAAAAAAAAACkiyAwAAAAAAAAAAgAKS7AAAAAAAAAAAAKDAWNEKgLloRae0TDfa824nRx2p8eaoI0e8OWLNWU8OdeqXurTDcOWaW6DquaUd3XnX0cn0dzdl25RynDVtzm1avE2yEPu2Tts8atdZderbquQ4PzRNyvks5VxUVqbK36TjMTXr+rGS9TnHQrekf6v6fZwj1lzXP61MfVtWT8r2VDUX1ul3U0r/p2xzVfNlypiry9ydEkeuOTeHHL8z6jS2q1Ll77M6zT91uT9dp75t2rVySrxfmbgymqKzAOcfAIAm8yQ7AAAAAAAAAAAAKOBJdgAAAAAAAAAAJCWZjNcgBoCqeZIdAAAAAAAAAAAAFJBkBwAAAAAAAAAAAAUk2QEAAAAAAAAAAEABSXYAAAAAAAAAAABQQJIdAAAAAAAAAAAAFBgrWgEMXys6jWmnG+2oS6wpsaSUKWsrRx251Kn/q6xnlPq2af1SlXZ0s9TTKfm7glxzC/XXrehvTFolYzfXOaRsbOdS1fjP1U6Trm0AmnxNmBJr2Tkx17ycco6fTrgNNhlLZl0/lVBHyjVsK0OZXNfKab+hm/N3umljYTyhnu68x3+usdCkvq1qrORqJ8dxlOuaPEc9ueaFqtpp2u+MhWYh7p9c94dy3FfOpaytOt0TS4nliomJhJrqM6bqot2g3xgAAHUmyQ4AAAAAAAAAgKR05mEnmkipBoahOX+GCgAAAAAAAAAAABWTZAcAAAAAAAAAAAAFJNkBAAAAAAAAAABAAUl2AAAAAAAAAAAAUECSHQAAAAAAAAAAABSQZAcAAAAAAAAAAAAFJNkBAAAAAAAAAABAgbGiFQBz0YpOaZlutOfdTo46UuPNISXeHLFUtT1V7qO6bHOd+pZd62T4m4Gqxu1CVXYcVdn/rehGHeSaW9o12Z5RZP4H6qxs/k8536WcQ8rmwrqcV1OvCav7rVLeL+MxVVpmrKRMSjvdhH5JOee1Mlxz5xgvaduTZ1yWtVXdb9L6HGfdimLJtc2u53ZPrrmlqt8qfs83X5XHqvuw9Y51YmIioaZqtrldo/1cp1g6Gfq/TtsD7L7xdsT4oiHHsL0/MQFUypPsAAAAAAAAAAAAoIAkOwAAAAAAAAAAACggyQ4AAAAAAAAAAAAKSLIDAAAAAAAAAACAApLsAAAAAAAAAAAAoIAkOwAAAAAAAAAAACgwVrQCAAAAAAAAAACe0G5HjA35cU7tbkR0hhsDsPB4kh0AAAAAAAAAAAAU8CQ7aLButKNJsbQy/DlBSh0pseSIN8f21G0sVLWPFuJx1LR+qWp72tGtpI5ORX9X0M3QTitDn9RNvc5X/sak6fsQYNSlXGdVdW2TQ8q1Tcr5earkFta2WFJax2RCmbJ2quyXsuvclH5LGSvTMT5S17lVXe+l9Vu3kt9WOX5XpYyXlL5NKVM2FnLtw1GbT1OkbE+OuSWXslhStifXvcK6qOr+UZX9lqOeOu3nOt0/reqefA4TExNRF+2a9AkAAM0zWncRAAAAAAAAAAAAICNJdgAAAAAAAAAAAFBAkh0AAAAAAAAAAAAUkGQHAAAAAAAAAAAABcaKVgAAAAAAAAAAwBPG2hHjQ36c09ii4bYPLEyeZAcAAAAAAAAAAAAFJNkBAAAAAAAAAABAAUl2AAAAAAAAAAAAUGCsaAVAHXWjXVqmFZ3axJIiR7xVbXPT+qVO7YyaOh2LnRr9zUArujFKmjafNmkf5erbdkXbk9JOnY5FgLrKNW+Xnc9S2kk5F+VoJ0U3wzmkquuJlG1eEpOlZcZiqrTMeEzP+9ybUibl+qg+11DdLOMpx5irk5R+SZsXmnMspsxhOeaopl3jVvX7oCpN+x2SMreUHa91ut9SlSq3p6ytlP6v0zxXlZRYrpiYmHV9Sq91Krw/VIVc25NSTzvDeBm1/gcA2BPq8wsUAAAAAAAAAAAAakaSHQAAAAAAAAAAABTwulgAAAAAAAAAAEq12xFjQ37LdLs+b1YHFhBPsgMAAAAAAAAAAIACkuwAAAAAAAAAAACggCQ7AAAAAAAAAAAAKCDJDgAAAAAAAAAAAAqMFa0A2FE32jFKsbaiM+92ctRRZd9XFW9V7TRtbDetXxba9qTo1uhvE1rRraSdJs39TdyPo2YUxwvAQld2zdHJdF6divHSMpOxZF7rU8uUXSu0YzLLtXI74XqurH9TrmtSzs85ro+quz5N2eZWba5t0mIZq6RvuxnG3CheezbpGjZlbknZhynzz6gp67smjQNG415VlbHmGN9XTlwWVWgnzXPtLPUAAMDuaM6dEwAAAAAAAAAAAKiYJ9kBAAAAAAAAAFBqvB0xPuRMk/Jn4gPk50l2AAAAAAAAAAAAUECSHQAAAAAAAAAAABSQZAcAAAAAAAAAAAAFJNkBAAAAAAAAAABAAUl2AAAAAAAAAAAAUECSHQAAAAAAAAAAABQYK1oBsKNWdGZd3412LeLIKcc25Yi3ym0uU9V+rnK7c4zthbqPFppWdEvLdBP+fiGlniZJGf91GpdN6v+Uvm03aHsAyDdvl53PxmNq3nXkireT6e87U66zcijrl7GEvh2L6dIy4wllquqTHNdHdfpNlEuOfqlq3FalXaN5o6rr4KbdB6nT74OqjqGUbc51LmL0jeL5rMzExERpmfrc1WFPaieM/47RAAAscJLsAAAAAAAAAAAo18u5HXbe7fYhtw8sSP6ECwAAAAAAAAAAAApIsgMAAAAAAAAAAIACkuwAAAAAAAAAAACggCQ7AAAAAAAAAAAAKDBWtAIAAAAAAAAAAJi7u+66K2666aZ44IEHYtu2bbHPPvvE4YcfHscdd1wsXbp02OEBcyTJDgAAAAAAAAAAMli7dm384R/+Ydxyyy27XL9ixYo455xz4gMf+EDst99+eyyOZzzjGXHvvfdmqet1r3tdfO5znytc31v3+te/frfrP+GEE+Kaa67Z7e9DFbwuFgAAAAAAAACAcu3/fpzTMP/1YqihycnJeO1rXxuveMUrChPseh577LH4sz/7s1izZk1cd9110QSLFy8edggwdJ5kByTp1uRKJVccrehkKTNq21xFHQtx3FYpZR9V1S/t6EZd5Njmbqa/TchRT2vE+rZOcu3nHPswV9/mOBY7GfqlTmMl1/msSdtUp1ihjqq6zk2ZT+t0DZVje6ZjvLTMZCyZd5mUOlLO82MxNe9zeK7xVNa/Kf2f69qmquvPJp2vUvo2ZXvK9uN4yZhMPc66Fe3DHHNYrnkw7Ripz5griyVlbslx3Z6r/1OOkTr9tq3LPYE69UlV95jqdO+zqjkh17VCSj1XTEyUlKjPPNjJFEtZPe2G3eNuWrwAC1m3241f//Vfj8suu2zg83a7HU9/+tPjKU95Stxzzz3x6KOPzqx76KGH4qUvfWlcffXV8fznPz/q7LTTTht2CDB0kuwAAAAAAAAAAGA3ffSjH31Sgt1v/dZvxfvf//446KCDZhLxemXOPffcuO+++/qfbdmyJc4666z4zne+00/Ey+kLX/hCbN26dc7fu/TSS+Mv/uIvZpZXrlwZL3vZy+ZUxzvf+c445ZRTksvvs88+c6ofhkGSHQAAAAAAAAAA7IZHHnkk/uiP/mjgsz/5kz+Jd7/73QOftVqt/qtkf+mXfile8IIXxPr16/ufP/DAA3HxxRfHBRdckDWu448/fre+d/755w8sn3322TE2Nrf0ot6rcF/84hfvVvtQV9W8DwsAAAAAAAAAAEbMRz7ykdi0adPM8q/8yq/Eu971rsLyBx98cHz2s58d+OzjH/94P1lv2P7zP/8zvvGNbwx8ds455wwtHqgTSXYAAAAAAAAAADBHvVfA/s3f/M3AZx/84Adj0aJFs37vpJNOihe+8IUzy70kvS996UsxbJ/73OcGlp/73OfGkUceObR4oE4k2QEAAAAAAAAAwBzdcMMN8dBDD80sH3LIIXHiiScmffeNb3zjwPLatWtj2AmDf/d3fzfwmafYwf8zt5cmAwAAAAAAAACwMLVrkGnSjdq44oorBpZPPvnk0qfY7Vh2R9dcc01s3rw5li9fHsPwz//8z/HAAw/MLI+Pj8drXvOaocQCdeRJdgAAAAAAAAAAMEff+ta3BpaPO+645O8edNBB8YxnPGNmedu2bXHbbbfFsPzt3/7twPJpp50W++2339DigboZdn4xsIe1ohOjpMrt6fb/DGP48dZpH+bokyq3KUc7uba5Kk2Llydr1enPr0ZQtyZ/Y5ISR53GQjshlk5N+rZu5xnXE3tOXfq2aX1S1TbXKZY6SZlPU+b/snpy1JFLyvkh5bxYNqbS6mjNu1/GY6q0jvGYzjL+y/puFK/9y/olbW6pzzVUSrxVHYt1uQ6ucq5MMYrHUV3k2Ed1Op6rOs5yHasL8TorxzFf1W+8XK6YmIim6NSo39h97aRrWPsaWHhuv/32geU1a9bM6fu98uvXrx+o79hjj42q/eQnP4kvf/nLWV8V2+l04u677+6/Trf3dL999903DjzwwNh7773nGS0MhyQ7AAAAAAAAAACYg61bt8Z999038NmqVavmVMfO5e+4444Yhi996UuxZcuWmeUDDjggXvayl+12fX/8x38cb3nLW2LTpk0Dn7darfiFX/iF/qtyf/d3fzdWr149r7ihSs35E0YAAAAAAAAAAKiBhx9+OLZv3z6zPD4+HitXrpxTHQcffPDA8saNG6MOr4o9++yzY2xs95/b9b3vfe9JCXY93W43br311vjYxz4Whx12WPz2b/92P1kRmsCT7AAAAAAAAAAAaKQ777xzzt/Zf//955wQt7PHHntsYHmvvfbqvxZ1LpYvXz5rnVW466674vrrr8/6qtgU09PT8b//9/+OdevWxVe/+tX+q2ShziTZAQAAAAAAAADQSGeeeeacv/OBD3wgPvjBD86r3Z0T4pYuXTrnOpYtWzZrnVX43Oc+N7B89NFH91/pujuOOuqoOO200+K4446LNWvWxH777ReLFy+OH/3oR/Ef//Ef/WS6z3zmM/Hoo4/OfKf3+emnnx7XXnvtk5IOoU4k2QEAAAAAAAAAkJZlMuxMk27UwuOPPz6w3Esmm6slS5YMLFf96tTe627/7u/+bt5Psesl5n3zm9/s/++uHHDAAf1/L37xi+O9731vvOENb4i1a9fOrO999/zzz4+LLrpoN7YCqtGqqB0AAAAAAAAAABgJOz+5btu2bXOuY3JyctY697Svf/3rce+99w4kCr7mNa+Zcz1HHnlkYYLdzvbZZ5/4x3/8x/i1X/u1gc8//elPx4YNG+bcNlRl2PnFAAAAAAAAAACwW3pPRDvssMPm9J39999/3u2uWLFi1ifbpdj5yXU717mn/e3f/u3Acu9Vr/vuu+8eb7fVasVnP/vZ+Jd/+Zf48Y9/PNN/l1xySZx77rl7vH3YHZLsAAAAAAAAAABopF6C3RFHHFF5uzsnxG3ZsqX/+tVFixYl17F58+ZZ69yTHnvssf4T5eb7qtjd1XuiXe+1sRdffPHMZ1dddZUkO2pLkh2QRSs6WerpRrs2sZTVkyPWum1zDnWKJaVvy+Kt0/ZUZSFuczdaww5hpFU1n6bF0q3FeEmJo6pjMSWWlG1uZ+nb6sZCVRbinFoVfVvvPqlTLFVJmQdT5tx2g84RnYTzQ8o5ZDrGS8tMldzCSmknpf/HYqpk/XRpHeMlddTtGjXHdUnKuE0ZL826hq3P/kmR6xipQpVxVDWf5rg/UZWUYzXlmK/TmMvzOzDXfcBWI47DVDnGbZOOj1xStnliYiKhptH7DZ1DuybjpS5xVG2hbjewcO233379hLpeYl3P1NRUbNy4MQ444IDkOnZ+PerKlSujKr2nxu2Y5NeL+6UvfWlU6aSTThpIsrvjjjsqbR/moll3twAAAAAAAAAAYMiWLVsWT3/60wc+u+++++ZUx87lDz/88BjWq2LPPvvsGBur9lldq1atGlh+6KGHKm0f5kKSHQAAAAAAAAAAzNHOSXG33XbbnL5/++23z1rfnnLPPffEddddN/DZ61//+qja+PjgGw56TwOEupJkBwAAAAAAAAAAc3TUUUcNLN9www3J3/3+978f69evH0g4W7NmTVT1FLsnXnPbc8wxx8Szn/3sqNoPfvCDgeX999+/8hgglSQ7AAAAAAAAAADSskzaQ/5Xo0yX0047bWD56quvHkhem81VV101sPyiF70oVqxYEXtaL77Pf/7zA5+dc845MQzXX3/9rK+PhTqp0dQDAAAAAAAAAADNcNxxx8V+++03s3z33XfHNddck/Tdv/qrvxpYPuOMM6IKvdfE9l4X+4TFixfHa17zmqja9PR0/4l6OzrppJMqjwNSSbIDAAAAAAAAAIA5arVaT3oK3AUXXFD6NLt//ud/jn/913+dWd57773jrLPOiirsnNh2+umnx0//9E9H1T784Q/HnXfeOZREQ9gdkuwAAAAAAAAAAGA3vOtd7xp4zeu1114bF154YWH5DRs2xG/+5m8OfPbWt7514Il4u7Jo0aKBf6lPzNvRli1b4tJLL836qtg///M/j3/5l3+Z03cuvvjiOP/88wc+e/nLXx7HHHPMvGKBPUmSHQAAAAAAAAAA7IZectx73/vegc/e8573xJvf/OZ48MEHZz7rdruxdu3a/itm169fP/P5QQcdFG9/+9sribWXYLdp06aZ5Z/5mZ+Jl7zkJfOq88Ybb+y/5vWoo46KP/7jP45bbrklJicnd5ngd/nll8cJJ5zQ394dn/a377779hPvoM7Ghh0AMBq60S4t04pOljJVxVtVrGX1pMSaq/9HTco212ksNEk7usMOYWR1E/4GotWw/s9xnFXZv3WJo2ljoVMSb5XjoKytXPN2ncY2MD855oWyeTCn6n43zb5N0zFeWsdUQpnJWFJaZltJmVznzbIy4zEVVZ1DysbUdKbbejmuJ1LGf9POm3WJN9f1a457C2MJ4z/HsdjNdI1b5bw8SmMy5RyT0rcp9w3Kxkudfu807d5PVb+JcsRSpaq2u6ydKyYmEmqppt/aFfVJVe0sVJ0RGy8ATX6a3Q033BATO5zre094+8u//MtYvXp1POUpT4l77rknfvzjHw98b9myZfGlL30pnvrUpw7lVbFnn312jI3lucdw66239v/9z//5P/t1rlq1qr/dixcvjv/6r//qJxZOTT35t2XvVbm95LtDDz00Sxywp0iyAwAAAAAAAACA3dRqteKSSy6J17/+9fEP//APM593Op24++67d/md3tPbek+WO/744yuJ8b777ouvf/3rWV8VW2R6erqfVFjml3/5l+MLX/iCBDsaYbT+nA8AAAAAAAAAgD33KKc6/KuhpUuXxhe/+MV+4lzv1alFli9f3n+V7G233RYnnnhiZfF9/vOfH3hF6zHHHBPPfvaz513vb//2b8e5554bRx99dIyPjyf1U+8Vtb2n133jG9+QYEdj1HTqAQAAAAAAAACAZnnlK1/Z/3fnnXfGjTfeGBs2bIht27b1Xwn7rGc9q//kul6i2VztmCC3O973vvf1/+XWexpd719Pbztvv/32/lPsHnzwwdi0aVP/FbE/9VM/Ffvss0/8/M//fDz3uc/tv0IWmkaSHQAAAAAAAAAAZHTYYYf1/y0kveS55zznOf1/MGq8LhYAAAAAAAAAAAAKSLIDAAAAAAAAAACAApLsAAAAAAAAAAAAoIAkOwAAAAAAAAAAACgwVrQCGL5utGdd34pOJe3kbGu+seSKI6Weslhy9VtV21yVOo2nFHWKJUffLkSj1i+t6FbYVnPGf775p7r+rcs+bJdsc64+Kaunm9BOp2F/AzRqxxAsZGVzZYqU+TSlnZS5ZTym5x1LVboJc3tKmTIp2zwWU6VllsTkvPo+NZYc17Ap7aSVmf/1RNO0M1yXpIzblDGX43jNcQzliqVpqhrbo3YMjZoqx36O4zWljoV4PFd1TzKljismJubdTjuhnc6I3RNrmrL+T9mHAI3VrkGmSfnPc4DsmvVfsQAAAAAAAAAAAKBCkuwAAAAAAAAAAACggCQ7AAAAAAAAAAAAKCDJDgAAAAAAAAAAAApIsgMAAAAAAAAAAIACkuwAAAAAAAAAAACgwFjRCgAAAAAAAAAAGHiUU7sGMQBUTJIdkKRbcqXUik6WdsrqKYsjp1zbNF8p21xVrHXpk1Q5xkvTtrlOWtEtLdMt+RXUyfQrqaydharKObUuqhoLZe2kHB9Nk+N4rdOYTJn/6xQvMDpS5p9c10jzbWcq4bbSZCyppExKvy2LraVlys7RaeeH8v2T0nfbEvqlSWOuaefNsnjr9BsjJZaq+j/HPYxq+3aqklbaDbr+z3UfqqpzVdN+W5XFW6e5pU7qNIddOXFZNEnbvc3d0mnYdQsAANXwiw0AAAAAAAAAAAAKSLIDAAAAAAAAAACAApLsAAAAAAAAAAAAoIAkOwAAAAAAAAAAACggyQ4AAAAAAAAAAAAKjBWtAAAAAAAAAACAgSyTYWeaDLt9YEHyJDsAAAAAAAAAAAAoIMkOAAAAAAAAAAAACniIJpCkFZ1519GNdi3iSI2lrEyuWHLVk0Od9lEOdYoFntCKbtRFk46RHPNTrv7vJvydSo526jVWuvMuk9JvTdOkYwiYXbuieTulnZR6xmN63vNTyrm1UzJ3l63vmY7xTOfWzrz6pGcspkrLLInJebeT0i9VXQukbHOO8Z+yzTnGZUodObYnLZY87ZTtoyqvg6u6nmvSNXmKXHM79daq0dySMv5zHK8L8ffOlROXRZO0G7SPOpnOZ03aZgAARs/o/ZcuAAAAAAAAAAAAyESSHQAAAAAAAAAAABSQZAcAAAAAAAAAAAAFJNkBAAAAAAAAAABAgbGiFQAAAAAAAAAAMKNdg0yTXgwAFfMkOwAAAAAAAAAAACggyQ4AAAAAAAAAAAAKSLIDAAAAAAAAAACAAsN+UzawgLSiU1qmG+3axJJD07anqn6pU982aZtzKdvmdnQri2Uh6pb8jUOrwv6vao4apf1Tt1iqHC916bumnVsXohz7aNT6v07XLXWKpU46CXNYjmukpvXbdIzPa33PVMKtp8lYMu/zzJLYVlrHeEwnlJmKKs6JUwl9V6frkiadw1OO5xRl/d+0a7U6xVImpW9zjSe/iXbvfJfrOMuhecdip6JrteZsc4pc/XLFxESMkk5Cv7Qruv5MiYU9p2w/2z8AAHnU59cwAAAAAAAAAAAA1IwkOwAAAAAAAAAAACjgdbEAAAAAAAAAAJTrvYV62G+iHnb7wILkSXYAAAAAAAAAAABQQJIdAAAAAAAAAAAAFJBkBwAAAAAAAAAAAAUk2QEAAAAAAAAAAECBsaIVAHPRjXaWelrRGalYctSRS45+qdP21CmWXHKN3Sq0ojvsEKDWuv6WhQbO/XU6t6b0S1m8VfZtWSwpfZsSb53GS51iqdPYzaFd0XVWyrmqU1JmMpaU1rEtoUyO82bK9elYTM27npR20o7n1rzrSdmeXMrGQp3mhDoZtd9NVV3jpoynsjGZfv4tG9utRt1gr+ocUlU7MBcTExMJpao5X7VrdH3aKdnmXLGW1VMWBwAANIH/+gcAAAAAAAAAAAAN+EM7AAAAAAAAAADqql2DTBMPSQWGwJPsAAAAAAAAAAAAoIAkOwAAAAAAAAAAACggyQ4AAAAAAAAAAAAKSLIDAAAAAAAAAACAApLsAAAAAAAAAAAAoIAkOwAAAAAAAAAAACgwVrQCGA3daFfSTis6WWIpK5PSTkqZUevbXPVUtU05pMRa1Vhg17oJufydkjJp80az/magFd2oi4V4jJSfZ+qzf1KkxFu2n9tJdTSrX3JcT1SlTrGM2jbVJY5RjbdJUua5FGVz4XhMzbuO1DJlbZVdY6Uqu86ajvHSOqYSbj2lXM+NxfSs65fEZGkdy2JraZmyelKuT1P6P2Wby+aFlLEyauf5XMdzjmMkx3VYyjal/fad/7yR0i+tTHNLWbz57oM0Z2w37RqW+is7zzTt+Lhy4rLSMil3NTsZ7n22HYu7Rb/tWTnGNsCctGuQaWLqA4agWf9VGgAAAAAAAAAAACokyQ4AAAAAAAAAAAAKSLIDAAAAAAAAAACAApLsAAAAAAAAAAAAoIAkOwAAAAAAAAAAACggyQ4AAAAAAAAAAAAKjBWtAAAAAAAAAACAgSyTYWeaDLt9YEHyJDsAAAAAAAAAAAAoIL8XaqwVnUrq6EZ73u2k1JFje3LEmqos3lx9W6d+yRELw5WyD9vRLalj9vVN1M3wdwW5+qUslir7v8o5dSGNlZz15GinVVpmKuqik7A9VV231Om86ViF+R2LKXNL2fVRirRr/zzn+bJtSollKuGW0GQsmdf6nukYT4ilvMxYTO/x6+Bc596Uvs0zt8/eJzm3KceYq5OUcVnVdXt536Zc73Uruc7KFUu3ovFUp2vyqmKpSo75NMUo3p+oqu9yqOq+5hUTE/Oug9HQSRhzbfevAQAYotH6dQ8AAAAAAAAAAAAZSbIDAAAAAAAAAACAApLsAAAAAAAAAAAAoIAkOwAAAAAAAAAAACggyQ4AAAAAAAAAAAAKjBWtAAAAAAAAAACAgUc5tWsQA0DFTD0AAAAAAAAAAABQQJIdAAAAAAAAAAAAFPC6WGiwbqbn8LaiE3WJtyyWXLHm6Ltc/Z9DSr+kxFtWpqqxkqJOsTRtvDRJt6K/B2hFt5J2qm5rlI6jqo6hlP2TMi5z7Odc7VQ15nK0k9b/5WU6JX2X45qkSnWKBZqonWmuLKtnLKZK6xiP6YQy5fVUZTrGS9aX31aaSiiTMs+V9cuSmCytI6VM2X6eTDg/V/VbPaXfcl3bVKVsm9oZrgNy9UuOeSMl3rTrvU6WWMrvCXQr6ts81z5NG/855Jh/qrz2rOq3Ssr4r4uUOSxFjrGddgyVj7krJy6Lumj7bTU0nQV4bzRlm41JAIBmGa27CAAAAAAAAAAAAJCRJDsAAAAAAAAAAAAoIMkOAAAAAAAAAAAACowVrQAAAAAAAAAAgBntGmSa9GIAqJgn2QEAAAAAAAAAAEABSXYAAAAAAAAAAABQQJIdAAAAAAAAAAAAFBj2m7KBEdGKTiXtdKPdqHirktIvddrmXPuxSdtc1fa0o5tQT3mZHDoJufw5xkI3w98MpNRRVb+N4txSVk+uYzVHLGntdCsZl7nGXI5YUuaWUdO0cyvAXOewqRhPKDM2r/U90wntpJzzxmJ61vWLYzKhjql5x5JyXk0pk3KtXHaeadr5uU7nzTzXavXZnjr1S1VS5o2qfsPl+n1QVqaq3yFNu1ZO6ZeyOTfXfNquUSxVmZiYSCg1+3hpj+B8WpWF2HedhPlnIfYLAADVaM6dEwAAAAAAAAAAAKiYJDsAAAAAAAAAAAAo4HWxAAAAAAAAAACkZZkMO9Nk2O0DC5In2QEAAAAAAAAAAEABSXYAAAAAAAAAAABQQJIdAAAAAAAAAAAAFJBkBwAAAAAAAAAAAAUk2QEAAAAAAAAAAECBsaIVwGhoRSdLPd1o1yaWumja9qTsw6q2qWl9V8Xx0TTdEcvTb0W3VvU0aezWpY6c9VQx/pt2DHUyxNu046NO59amnWcW4jZX1W9V9UtVsYzaNWE7YZ6raptTzjNTCbeEtsZeJeuXZTmHpJwjxmJq1vXjMV1aR0qZsr6bivHSOqYTytTp3Jmyj6q65is7RnLFWqdrsbJ4U2JNmVvS+q6aa76ydtLGSrOuLZv0G6JOx0cuZeMl5fhIOc+nyFXPfKUcZxMTE5XEAnPRHrHfEFX1S2cB/sYGANgTJNkBAAAAAAAAAFCu9zcKw87fHb2/DQEawNQDAAAAAAAAAAAABSTZAQAAAAAAAAAAQAFJdgAAAAAAAAAAAFBAkh0AAAAAAAAAAAAUkGQHAAAAAAAAAAAABSTZAQAAAAAAAAAAQAFJdgAAAAAAAAAAAFBgrGgFMBq60S4t04pOljI5YqkijlGMt8p+qaLfmrbNddKKbjRpLHRL8v3L1i9Uxv+w5/Y6HWeteceba3vK6mnXqN+qvIYq07R+qYp5rv79UlUsOY6RlHkupZ2xmKqknarOM9MxnuFabf7Xez3jJX3bsyQmZ12/V2wtrWMspkvLbIvFUYUcYyHXmOtmGHO5zps5jvlcv0nLxst4wnjKIdd+7mS4bswlRztNijVXPSl11Ok3dJ1iydG3KcdQk67tr5y4rLRMrjt8nYruFdYp1naNrtvLtqmqWFPaadJYado4ANgjWSbDzjQZdvvAgtScX7oAAAAAAAAAAABQMUl2AAAAAAAAAAAAUECSHQAAAAAAAAAAABSQZAcAAAAAAAAAAAAFJNkBAAAAAAAAAABAAUl2AAAAAAAAAAAAUGCsaAUAAAAAAAAAAMxo1yDTpBcDQMWGPfUBs+iWXB20olNJOylSYkkpUxZLSqy5+qWsnhz9liJXO7n6pS7tjKKyvmtHN+qi42G4Q1XV/MPu62Y4RnLUkbOeMlOlJaZj1OS4LqlqPq1y3liI1wJVXU9XEUeuWHJJOUbqdI1UppUp1rK5fSrhds9kLCktszWWldSxuLLz0HjJeWQs4UyUMrY7Gfo2pUzKWMhxLKYcQyll6nL9mRZrVefWaq7V8s0b7RrF4vfknuzfJqnLWGja9UbKWJmYmCitpSrtGl1b5oi1U5Nz4iiq01gxFgAA2JV6/IoFAAAAAAAAAACAGpJkBwAAAAAAAAAAAAUk2QEAAAAAAAAAAEABSXYAAAAAAAAAAABQQJIdAAAAAAAAAAAAFBgrWgEAAAAAAAAAAAOPcmrXIAaAipl6AAAAAAAAAAAAoIAkOwAAAAAAAAAAACjgdbFAtKJTWqZb8szfsvWp7aSUySEl3rrE2rRYco0FFoaufP9az+0sDLmOw7Ixl9JOK7oxasqOM+fE3VfVHFanfdSkeXsUrwnbJXNUldvTKZlTp2K8tI7phDKTsXje7aQYi+nSMotjctb1S2JbJWM3pd9yjKdcdZSNlSo1aQ5LOaZTrlumKrr1mrKfU67Fyq9burX5jef3zp5Tp/2cIkcsuc7hVf3m+crEP827DnZfu2HXsE3SSZi39f/u9x0AAPNXn1/DAAAAAAAAAAAAUDOS7AAAAAAAAAAAAKCAJDsAAAAAAAAAAAAoMFa0AgAAAAAAAAAABrJMhp1pMuz2gQXJk+wAAAAAAAAAAACggCQ7AAAAAAAAAAAAKCDJDgAAAAAAAAAAAApIsgMAAAAAAAAAAIACY0UrgIWjG+3SMq3oVNJOFXGk1pMj3hRVtUP99087urOub5WsT6mjp1OSY99NyMFP6ZeUepokpf/ztJNnnqtbWwxP2bFY3djOM4ctRDn6Jcf5oW6qmsPqNC7LtrlO+zll/+Tq27L5JaWdsZiadzvjMZ3QTnmZFFMlt3NSrsPK6ki55ktpZzyhb5fEZGmZvWLrvOtIUbZNua5xU46RsjGVUkedjvkUZcdrru3JcV2SMrdMZYgl13yaMvuUtdW068a0+13z7/9cytrKsT1VSomlLvcN6nRvbmJiYtghQK11Eo7Xdk3udzUpVgAA0tTjVywAAAAAAAAAAADUkCfZAQAAAAAAAABQrl2DTJP6PIwYWEA8yQ4AAAAAAAAAAAAKSLIDAAAAAAAAAACAApLsAAAAAAAAAAAAoIAkOwAAAAAAAAAAACggyQ4AAAAAAAAAAAAKSLIDAAAAAAAAAACAAmNFKwB21I32rOtb0SmtI6XMfONIbSdXPTyZfttz/dKOblShkykHv1ujXP5WRX2XQ8r8RPOlHB+5jqGyMZXrnDgd43OKq6iWJhm147VO21PVdWOV9VTRL1NZjsM8sVR5zZHjGqqq65aq5vbJWFJax+OxrLTM1lg673bGY6q0zFjC/L8kJud9vTeVcBusrEzKcVbVvJHSTto1R556cswbZfNCrlhz/D5ImcNS4p0uGXNjtRoL05Vc56bsn6rOIU27Vqhq/OeKpSo5xlyu301fmfin0logp/aI3asdte0BAKBZJNkBAAAAAAAAAFCuXYNMk/r8rQuwgAx76oN52b59e9xyyy3xrW99KzZu3Nj/7IADDojnPOc5cfTRR8eiRYuGHSIAAAAAAAAAANBgkuwotGHDhrjpppvixhtv7P/vzTffHJs2bZpZv3r16li/fv1QYpuamopPfOIT8ad/+qf9OHflaU97Wpx77rnxlre8JcbHq3ttEgAAAAAAAAAAMDok2TFg3bp1cdFFF/UT6x588MGoo/vvvz/OOOOM+Pd///dZyz3wwAPxjne8I774xS/GZZddFgcffHBlMQIAAAAAAAAAAKOhNewAqJd/+7d/iy9/+cu1TbDrvRL2RS960ZMS7JYtWxZHHHFEPOtZz4qlS5cOrPvmN7/Z/87DDz9ccbQAAAAAAAAAAEDTSbIj2YoVK4YdQpxzzjlx1113zSz3Eup6r4ztJdB95zvfidtuu63//y+++OKBZLvvfe978YY3vGFIUQMAAAAAAAAAAE3ldbHs0t577x3HHHNMHHvssfFLv/RL/f+95557+k+EG5arrroqrrzyypnl8fHx+OpXvxq/8iu/MlBu+fLl8ba3vS2OPvroOPnkk2Nqaqr/+eWXXx5f//rXh7oNAAAAAAAAAABAs0iyY8Dpp58ep5xyShx++OHRag0+6LCXZDdM73//+weW3/3udz8pwW5HJ5xwQrzrXe+KD33oQzOfve9974t169ZFU7SiM+v6brQraSdFVbHkiLVu6rRNOfZjnbanTtrRLS3TSihTppPwkNpuSZmUcVBWR9Pk6PsqpRxnueZl6j0um3Qsps0teebKlDk3x3w6anKdwxfi/FPV9fRCvFar6hoqpY7y3yrdyub2sjLTMV5ax2QsmXeZlFhTtnlJTM67zFj8/39gN5uphNtgUyV9l9K3KXKcz9KO54V36y/XsViX3wi5rv0X4vk51xzVJDnOZyljpap+a9o+vGJiYtghAAtUu2Ru7yzA6wBgD+tNK8OeWobdPrAgLbz/csSsDj300FizZs2TEuyG7T/+4z/ipptuGnha3Tvf+c7S75133nn9sk+44YYb4vbbb99jcQIAAAAAAAAAAKOlXplUUOCyyy4bWD7rrLP6r7Qt0yvzqle9auCztWvXZo8PAAAAAAAAAAAYTZLsaIQrrrhiYLn3SttUJ5988sDyhMf2AwAAAAAAAAAAiSTZUXvbt2+Pb3/72wOfHXfcccnfP/744weWb7311n6dAAAAAAAAAAAAZSTZUXv33ntvbNmyZWZ5+fLl8fSnPz35+6tXr4699tprZnnz5s1x//33Z48TAAAAAAAAAAAYPZLsqL077rhjYHnVqlVzrmPn7+xcJwAAAAAAAAAAwK6M7fJTqJGNGzcOLD/taU+bcx0HH3zwQGLdznUCAAAAAAAAACXaNcg06cUAULFhT31Q6rHHHhtY7r0udq52/s7Ode6uXrLeQw89NKfv3HnnnVnaBgAAAAAAAAAA9jxJdtTezglxS5cunXMdy5Ytm7XO3fXpT386LrjgghiWVnRKy3QT0vhTypS1VVUsKe2kyFVPjm2uS6wpbeXYnrpp2j6qi26mN85XdczXSVXbNIp9x+5pRXfex3NZHbnGZEo77YQyecb/dGmJbkIsnUzzZY5+aZIc29OucP/Upf9zxZGjX3LFkmNeGIup0jrGE475sjIpsY4nxDIV4/PeR1MJt3tSyuQYCyl9uyy2lJZZGlvn3c62io7VlPNQyrgs/x2eck7Mc97McW6ty1yZeiyWlUk5VlOU7aN88+n8r8Wq+o2Rsn9SpFyrlW1TleM2R1t1um+T415hjt8huUxMTJSWqU/vQzO1a3Qvq+OIBgBgF6r5Lz4wD48//vjA8uLFi+dcx5IlSwaWt26d/eY8AAAAAAAAAABAjyQ7am/nJ9dt27ZtznVMTk7OWicAAAAAAAAAAMCueF0stbdixYpZn2yXYucn1+1c5+5685vfHK961avm9J0777wzzjzzzCztAwAAAAAAAAAAe5YkO2pv54S4zZs3z7mOnb+TK8lu5cqV/X8AAAAAAAAAAMBokmRH7e2cxPbAAw/MuY4NGzbMWicAAAAAAAAAUKJdg0yTXgwAFWtV3SDM1TOf+cyB5fvvv3/Odez8ncMPP3zecQEAAAAAAAAAAKNPkh21t3r16li2bNnAq1/vvffe5O/3ym7ZsmVmefny5bFq1arscQIAAAAAAAAAAKNHkh21t2jRojjyyCMHPrvhhhuSv79u3bqB5V5dvToBAAAAAAAAAADKDPtN2ZDktNNOixtvvHFm+Wtf+1r8j//xP5K+2yu7o9NPPz0WklZ0stTTzfBi+xyx5IgjVyy52sm1TTnaKYu3qn7Lpaq+TdGKbmmZdkKZHDolOfbdTDn4VfV/St/WSZ3GJcOT7zhrVTLm8tSRJ9bxmCot08rQvynxls2nKduU0k7KPDdqc0vTtqcu8dYljlzXnqnHWcR0STspx2qeMjm2ZzrhVs1kLJl1/dbYq7SOzbE8ocyKec9PKWXGSvZhz3hCmfn2W8/WWDbvOlLOVTlMx3hpmamE8ZRST12uyVPmllzn8KmSfknp220J4yVH36bMG2XbkzJ2U/o/JZY8c39119w5jqEcx0idzvOjFu/ExMSwQwBqpp30W6U97zoAAGgWT7KjEV7+8pcPLF9yySXx2GOPlX5v06ZN/bI7OuOMM7LHBwAAAAAAAAAAjCZJdjRC7xWvxx577MxyL8HuIx/5SOn3emU2b948s/y85z0v1qxZs8fiBAAAAAAAAAAARoskO4Zi0aJFA/+uueaa0u/8wR/8wcDyhz/84bjuuusKy1977bVx4YUXDnz2oQ99aB5RAwAAAAAAAAAAC83YsAOgftatWxdbt2590ue33nrrwPLjjz8eV1999S7rOOigg7I/Me4lL3lJnHLKKXHVVVf1l6empuJXf/VX+8l2b3rTm2Kvvfbqf957ct1nPvOZeM973tMv84SXvexlcdJJJ2WNCQAAAAAAAAAWjPZ//xt2DAAVk2THk5x99tlx7733lpb74Q9/GCeffPIu173uda+Lz33uc9lj+/znPx/Pf/7z45577plJ9Dv33HP7CXWHHHJIbN++Pe6+++7+5zs69NBD90g8AAAAAAAAAADAaPO6WBrlgAMOiK9//evxnOc8Z+Dz3pP3vvvd78Ztt932pAS7o446qv+d/fffv+JoAQAAAAAAAACAppNkR+OsXr06brrpprjwwgv7r6Ut0lv3kY98JG688cZYtWpVpTECAAAAAAAAAACjwetieZL169fv8TZ6r3Wdj8WLF8d5550X73jHO+Kb3/xm3HrrrbFx48b+upUrV/afXnf00UdHqyWPFAAAAAAAAAAA2H2S7Gi0XhLdscce2/83irrRnncdrehkiaWsnpRYU8qUtZOyPTn6LUWO7UktU5WybapTrFVJ2eZ2dLOUKdNJeABtN6lMe4/XkaqqMdXK0P9p7Sy8Y6SqOXfUpIzJlGOxqrHdtP2cY85Nq6M+P6dGbf7JdZ01aur0+yCHlOMsZZ4rqyeljrGYSigzPev68YQ6cik7R6ScQ6ZivLTM9NTsZRaPT5bWsSTKy+wVW+ddT8o+TJHSd1WM257xkjFX3Yhr1jk8VztlZXL1f477IK1MLyspG7tp55Cx2lzDVnVerNP21EmOe3i5rlu+MnFllnoAdtSu0W8rAACq4TFfAAAAAAAAAAAAUPtHLwAAAAAAAAAAUF/tGmSaNOvlK8CI8CQ7AAAAAAAAAAAAKCDJDgAAAAAAAAAAAApIsgMAAAAAAAAAAIACkuwAAAAAAAAAAACggCQ7AAAAAAAAAAAAKDBWtAIYvlZ05l1HN9qVxJIj1pR4U9rJFUsOKf1fVbx16pccqhrb7egm1FFepiqdhPz5bkmZXH27ENXpmK/KqG1PnVR1bi2bE1LnubJ66jRX5urb8aS2yubcbpa5PeV81SRN256yfZRre5rWL2VS5oW0a7HZj+nxmC6tI6XMWEyVxNGtzZibjMWldUxluCWUsn+WxGRpmeXxWGmZpbE1qpDjWrhsrKSOubIxlesYSjkXlRlP2OY6XQuk9H8OafcwuvPeh9OZ9lHZ2E2JZSxD36bsn5Rr2JSxnePcmut3YFksTWsnh5RYJiYmKokFYNS13eMDACglyQ4AAAAAAAAAgLQsk2Fnmgy7fWBB8rpYAAAAAAAAAAAAKCDJDgAAAAAAAAAAAApIsgMAAAAAAAAAAIACkuwAAAAAAAAAAACggCQ7AAAAAAAAAAAAKCDJDgAAAAAAAAAAAAqMFa0AAAAAAAAAAIAZ7RpkmvRiAKjYsKc+YBbdkquDVnRK60gpU9ZOrlhySIk1Vyx12ea69QtP1o5uJe10Ex5Am3Y8V/Mg2xxjrlVR31YpZR+x51Q1/quSa14o00lqpzXv4zllPp1O+AkzFdOzrh+Pqcrmn6mSeHPN27Nvcb3m3DodhynbnCPeHPsnJd4q+7aq8ZJyvI7P8zhMvW4ZK9mT5ZGmHfOTsaS0zOOx16zrN8VPldbx6NQ+pWW2PrZs1vWL95mMulxPp5wfNsfy0jKPlZTZFotL61iWcCymnFvLxm7KWNkas+/DKn9P5qgj13nz8XlHUn4cpu6jJTH/4yilnRzniLJ5sGdbQixlYyFlrEyXzv7VnRdT5p+xDOM71/ZU1U4OExMT0SSdhDmq7f4cLBgpc0IuZXNLrrknxzaZBwGAJqvPL2YAAAAAAAAAAACoGUl2AAAAAAAAAAAAUECSHQAAAAAAAAAAABSQZAcAAAAAAAAAAAAFJNkBAAAAAAAAAABAgbGiFQAAAAAAAAAAMPAop3YNYgComKkHAAAAAAAAAAAACkiyAwAAAAAAAAAAgAJeFwsN1k14Dm8rOlnKlLVVZSwsDCljKsd4ake3pI7Z1+fUKcl9L1vf000qM+xneOft3zx1mHvId06sUsr472Y5Rub/tzn5rhXKt2c8pkrWT2eJJUXZeWYq4SdZyvxflbLtyaVO21w2nqqMt6z/c8VR1X5OkXK8jmU45pfEtoRYZm9nLKGd6Uy3YXLs625n/nUsicnSMstjc5YyK+KxWddvjWVRhbTzUPlY2Cu2zntsT8d4aR25fs+Uje+UuTKlX8rkOm/miGVbwrVC2T5MKZNSR67fgYsTjukc11Dl42m6smvysrGbMp5SrpWr+s3ZtHa+MnFllnqAhaOTMP+33ecDAGAPqc9/uQAAAAAAAAAAAICakWQHAAAAAAAAAAAABSTZAQAAAAAAAAAAQAFJdgAAAAAAAAAAAFBgrGgFAAAAAAAAAAAMZJkMO9Nk2O0DC5In2QEAAAAAAAAAAEABSXYAAAAAAAAAAABQwEM0ocZa0Zl3Hd1oZ2mnTrEsNPptz2pFd9b17ZL1qf2fsh+7JbnvOeqom7J4y/ZPSh0p9aT0bS6O192TcixWVU+uWKrSyTC35DoW67LNraR5I+X6aP5jYTyhTEq8VfV/jm1umiZtc53mp5R+y3WdVVbPeEyV1jGWVGY6w7yR51idLpk9tsSy0jo6nYS5pduad98ui62lZZbH5tIyS2Jy1vVbU7Y5aT5tz3tsp42nqUqO6VxzWNn4Hi85PlLqqNutzLqcW9Pmyjz7OWU/lkm5tiybO3KdH1Lk6LtupnNejr5NaSdlLszhiomJ0jI5fol3Kvw9Xxcp29x276HW+6hO+2cUx1OT+j9F0+IFABhl9fkvYQAAAAAAAAAAAFAzkuwAAAAAAAAAAACggNfFAgAAAAAAAABARnfddVfcdNNN8cADD8S2bdtin332icMPPzyOO+64WLp0aSwEjzzySKxbt67fF5s3b47ly5fHoYceGscff3zsu+++ww4P5kSSHQAAAAAAAAAA5do1yDTpxVBja9eujT/8wz+MW265ZZfrV6xYEeecc0584AMfiP3222+PxnLiiSfGtddeu9vf/5u/+Zt+rHN16623xvnnnx8TExPR7XaftL7dbsepp57a76cjjzxyt+ODKnldLAAAAAAAAAAAzMPk5GS89rWvjVe84hWFCXY9jz32WPzZn/1ZrFmzJq677roYNZ/4xCfiF3/xF+MrX/nKLhPsejqdTn/9McccE//rf/2vymOE3SHJDgAAAAAAAAAAdlMvmezXf/3X4wtf+MKTntj2sz/7s3HUUUfFU57ylIF1Dz30ULz0pS+Nb3zjGzEqLr744jj33HNjenp64PMDDzywn1DX+98d9cq95S1viU9+8pMVRwpzN+yHeAIAAAAAAAAAQGN99KMfjcsuu2zgs9/6rd+K97///XHQQQfNJOL1yvSS0O67777+Z1u2bImzzjorvvOd7zwpCW9P+NrXvjan8kcccURy2RtuuCHOO++8J72u9qKLLoqjjz565rObb7453vGOdwy8xvbtb397PO95z4tf+qVfmlN8UCVJdgAAAAAAAAAAsBseeeSR+KM/+qOBz/7kT/4k3v3udw981mq1+q+S7SWSveAFL4j169f3P3/ggQf6T4C74IIL9nisL37xi/dY3e985zv7r4F9wumnnx6XXnppLF68eKBc71WyV111Vfzar/1aXHHFFTNPtOt9f8fEO6gbSXZAdKNdWqYV/+9kOArbk6Kqbc4Vb5Pk2OaU/dOObiXtpGxPJ+EN7WVlugl1VDWeUvqllaX/519H3dTpmE8ZU3Ux+FDx5quy73OMuZQ5rGybqjw/t2LJrOuXxGRpHVMJP5VSzjNl81jKWJiK8Qz9n2fMNWlebto2p8TbpFhSYs11PVc2v6TEMpbhTJMS62TJ/NTzWCwvLbMp9p51/Y/jqaV1bHt49jpSTO5bvj1VXXNvjb1K6/hJ/FRpmc0J/V9mOmHeThkLZbbEskq2p2dJhjl1POE4K5t/Uvotpf+nY2resaSMuRzXE9MJdeQYT7nOMymxlPVtyrXntqhm/kkZT1Vd26eMhRxStmdiYiKhpvLr/3aGe28pdXQq+h2eY3uq2uaqYl2o9O+e06S+bVKsAMzfRz7ykdi0adPM8q/8yq/Eu971rsLyBx98cHz2s58dSHj7+Mc/3n9t6r777htNdOWVV/afZPeE3nb81V/91ZMS7J7Q+/yv//qvY82aNf0kxZ7rrruu/6S9k08+ubK4YS6a819WAQAAAAAAAACgJnqvgP2bv/mbgc8++MEPxqJFi2b93kknnRQvfOELZ5Z7SXpf+tKXoql6SYM7+p3f+Z3Yf//9Z/3OypUr481vfvOs9UCdSLIDAAAAAAAAAKBcuyb/aqL39LaHHnpoZvmQQw6JE088Mem7b3zjGweW165dG000OTkZX/3qVwc+e8Mb3pD03Z3L9Z6It23btqzxQS6S7AAAAAAAAAAAYI6uuOKKgeXeq07LnmK3Y9kdXXPNNbF58+Zomp3jfuYznxmrV69O+u4znvGM+Lmf+7mBJ/pde+21eyROmC9JdgAAAAAAAAAAMEff+ta3BpaPO+645O8edNBB/SSzJ/Se4HbbbbfFQuqDnuOPP37W+qAuJNkBAAAAAAAAAMAc3X777QPLa9asmdP3dy6/c317wqOPPhrf/va347rrrotbbrkl7r333uh0OguqD2B3jO3WtwAAAAAAAAAAYIHaunVr3HfffQOfrVq1ak517Fz+jjvuiD3puc99bj/BrtvtDny+YsWK/hPlXvnKV8Zv/MZvxJIlS5Lr3DnmuvcB7C5JdgAAAAAAAAAANNKdd9455+/sv//+sXLlynm1+/DDD8f27dtnlsfHx+dc58EHHzywvHHjxtiTil7F+thjj8VXv/rV/r/zzz8/PvnJT8arXvWqpDp3jvlpT3tarfsAdpckOwAAAAAAAAAAGunMM8+c83c+8IEPxAc/+MF5tdtLTNvRXnvtFYsWLZpTHcuXL5+1zmH4wQ9+EGeddVa84x3viI9+9KOl5XeOeedtamIfwK5IsoMa60Z73nW0ojNysSw0C7Xfyra7Hd2EOsrLpNSTw1TCKXc6xue1vqcTrZivqvokdR+V17Ewj5Ec9N3CkOMcntZOa17rq5xbxmKqtI7xmE4oMzXvWFL6JSWWsvNMjvNDleeIlPNDjjGV0i9VnhfnG2+dYs11HZbjeF0Sk6V1pJRZFltjpMZcyumh/f/+EntXlsfm0iqeGj/OUqasrZSxknLtU1YmZU5eHuU3glck9F3ZPLc1lmUZ2ynKxn9KO3U6n6WMlzJTCb/PUtpZGltqM7eX7eeUc29KmbJ+SRkrKb+PU85FKW3liCXlurFsfKfcyM/RzsTERIyadsnc3qnoNxM08fiAuY4XcyosEO0aZJrUZLrZORls6dKlc65j2bJlezzBrBfXySefHC996UvjqKOOisMOOyye+tSnxuTkZP+pcd/4xjfii1/8YvzTP/3TwJP5Pvaxj8W+++4b7373u/doP1TRB5DDsKc+AAAAAAAAAABolMcff3xgefHixXOuY8mSJQPLW7fO/w89d/T7v//7cfzxx/eT5XbWe73tihUr4pBDDomzzz47rr/++nj1q18dGzZsmCnz3ve+t5+c95znPGeP9cOe7gPIRZIdAAAAAAAAAACNtHbt2v7T2eZi//33n3e7Oz+xbdu2bXOuo/c0udnqnK+Xv/zlyWVf8IIXxDXXXBPPf/7z4+GHH+5/1nuy3fve9764/PLLC7/Xi3nLli273Q97ug8gF0l2AAAAAAAAAAA0Ui/B7ogjjqi83d5T4GZ7oluKnZ/atnOdw+jLj370o/H6179+5rPea2R/9KMfxU//9E/v8ju9mHdMsptrP9StD6BIq3ANAAAAAAAAAADwJDsng/USzXpPfpuLzZs3z1rnMPzGb/zGwJP+ut1uXH311YXld455521qYh/ArkiyAwAAAAAAAACAOdhvv/1i0aJFM8tTU1OxcePGOdWxYcOGgeWVK1fGsLVarTjxxBMHPrvjjjsKy+8c8wMPPND4PoBdkWQHAAAAAAAAAABzsGzZsnj6058+8Nl99903pzp2Ln/44YdHHaxatWpg+aGHHios+8xnPnMk+wB2JskOAAAAAAAAAADmaOeEsNtuu21O37/99ttnrW9YxsfHB5Z7T+lbaH0AO5NkBwAAAAAAAABAuXZEjA35Xy+GmjjqqKMGlm+44Ybk737/+9+P9evXDyS2rVmzJurgBz/4wcDy/vvvv0f6oGfdunWz1gd10Zt+ABqjm+mKqRWdaFK8TVKnbW5Ht5Kx0MmUs94dsdz3UdueXKqaf+ok5VgcNa0abXM3Qyw55rmUPkmZN3LMLSnnqpR+S6mnbLvHY7q0jk6GfdiqqG+rHP91Os7qFEuTYk05J6acQ8aj+K9oe8YSjrOUMmV9l2t7phJu1UzGklnXT3cG/9J4l7aVF4lls69eEpOlVSyPxxKa2VpaZrwz+35O+RmS47dKyjGUMrfnOC/mOp5Txn/ZNuXa5lH7vZkipe9y9G3a2J39OJuK8YrG01SWuTLHfky7lp5q1Pi/YmJi1vUprXQyxVJWT3sB/n7ORd/B6Mg151Y1b5h/gIXotNNOiwsvvHBm+eqrr47t27fHokWLSr971VVXDSy/6EUvihUrVkQdXH/99bO+PnZHJ554Yixfvjw2b97cX/7P//zPuPfee2P16tWl7fSSDL/3ve/NLO+99979+qCO/NdvAAAAAAAAAACYo+OOOy7222+/meW77747rrnmmqTv/tVf/dXA8hlnnBF1cO2118Zdd9018NlJJ51UWH7p0qVxyimnDHz213/910lt7VzuJS95SSxevHhO8UJVJNkBAAAAAAAAAMActVqtOOeccwY+u+CCC/pPs5vNP//zP8e//uu/DjzB7ayzzoph6z2N7i1vecvAZ7/wC78QhxxyyKzfe+Mb3ziw/KlPfSoeeuihWb+zcePG+PSnPz1rPVAnkuwAAAAAAAAAAGA3vOtd7xp4zWvvSXA7vkJ2Zxs2bIjf/M3fHPjsrW9968AT8Xal9wraHf+VPTGvV+eDDz6YvB0PP/xwvPzlL49vf/vbT0oaLHPqqafG8573vJnlRx55pJ8wNzU1tcvy27Zt66/vlXvCC1/4wvjVX/3V5HihapLsAAAAAAAAAABgN/SS49773vcOfPae97wn3vzmNw8kuXW73Vi7dm3/FbPr16+f+fyggw6Kt7/97dnj+uQnP9l/At0rXvGK+MIXvjDQ5o7uv//++OhHP9p/Yt2//Mu/DKw788wz+99P0auj92S/J1x++eX918jecsstA+W++c1v9j+fmJiY+azdbsdHPvKROW4hVGus4vYAAAAAAAAAAGCknmZ3ww03DCSO/fmf/3n85V/+ZaxevTqe8pSnxD333BM//vGPB763bNmy+NKXvhRPfepT90hck5OT/cS+3r+en/qpn4oDDzywH0/vKXM//OEPC59213uy3N///d8nt/WCF7wg/uRP/qTfF0/oPW3vmGOO6ScS9trttfX973//Sd/tJdjt+CQ8qCNJdgAAAAAAAAAAlGv/979hx1AzvSe4XXLJJfH6178+/uEf/mHm806nE3ffffcuv7PvvvvGpZdeGscff3xlcf7kJz/p/yvblne84x3xoQ99KMbHx+dU/3nnndd/Kl0v0a637U/oJdftKpmvV/ZjH/tYnHvuuXNqB4bB62IBAAAAAAAAAGAeli5dGl/84hf7iXNHHXVUYbnly5f3XyV72223xYknnrjH4uk9Re/Vr351rFq1Kqn8z/zMz8Rb3/rWuOOOO+LCCy+cc4LdE3qvvr355pvj1FNPHXh97I56n5922mn9V8dKsKMpPMkOaqwV/y+ze3d1M6Xx54ilKlXFuhD7NpeUbW5Ht6SObpZ2ykxF+cXjVMLpdDqhnhxjqqzfUqT0W1r/zz+WUVS2n7sj+DcQ01Efo9a/uc5FZToJ/VbWt7lizbEPU+ansZgqLbMkJuddT455O2UfpZ2HUvZzuzbXPjnOM6M2J9RJyv5JuYYaTziLlNWzLGE/p4zLHOPlJ7F3QpmfKi3zSPz0rOs3fX/f8mA2lheJfRbNunrywCVZ5o2Uvp1sz97WpoR+ezTKX7tSVk83NpfWsSWWlZZZllBmMhbPe5u3JrSzOOF8lmPuTrmeKIt3c6zIMp5StrlMSixpv606lcSScm1TZjph3p6MJfPeRyl1pIztHNdZ2yLXPDeZ4Xq6fGzv+FqqBj3wo1AnIdp2je6rNSneJsUKuRn/AFThla98Zf/fnXfeGTfeeGNs2LAhtm3b1n8l7LOe9az+k+t6CXlztX379jmVf9Ob3tT/1/PII4/E7bffHvfee2889NBDsXnz5v5T5PbZZ5/Yb7/94rnPfW4ccsghkUsvybD3G+Xhhx+O66+/vv80v16bvQTDQw89tN8HvXahSSTZAQAAAAAAAABARocddlj/Xx30Xk37ghe8oP+vSr1EujPPPLPSNmFP8Wf7AAAAAAAAAAAAUECSHQAAAAAAAAAAABSQZAcAAAAAAAAAAAAFxopWAAAAAAAAAADAjHYNMk16MQBUzJPsAAAAAAAAAAAAoIAkOwAAAAAAAAAAACggyQ4AAAAAAAAAAAAKDPtN2QADutGOUdKKTiy0/k/Z5nZ0E+qZvcx4TEUV29xNyEefjvEsZToV5b6n9H9VmnaMVEGfMKrnh5T5tMp65nse6hlLOBeNx3TJ+qkssZT1Sze2ldYxlfDzMMe5Ktd5KKVfqhpPZf2S49qnyvGfoizetG3uzPsY6lkSk7OuXx6bS+tYFlvnfcynzJVbY1lpmZR5oV3Wd+3tpXXE4kXlZZbPvnqf+HFpFT8dPyot89SpR0vLtDqzj6klS2cfB6nzdlmZlLGyIh4rLZMyLsuOkcUlYz/V0thSWmZFSbwpx2rKeaasTMo+TJGyH3NImQtTxkKZlPknpe/2KumXx2Nx5FA2b6ecE6cTxtNYwrgsG7spfdtNiLdsm1PG/1cmroy6KD0P9a+PRuseH8OVazyljF32zD5qWt/nGHN12uY6xQIA0GT1uUMPAAAAAAAAAAAANSPJDgAAAAAAAAAAAAp4XSwAAAAAAAAAAOXaNcg0yfM2eYA58SQ7AAAAAAAAAAAAKCDJDgAAAAAAAAAAAApIsgMAAAAAAAAAAIACkuwAAAAAAAAAAACggCQ7AAAAAAAAAAAAKDBWtAIYvm60Z13fik5pHSllytrJJUc7KduTS1X90o7uvOvojGDOdI5+yaFpfVuXfuvpJvRdWZlWjbanbnPUqI2XMk0bC03q26rmwpQ5IaWdlPNzSltNGtvjMT3vdlL6ZCymSstMx/i8Y0nZz1UdQ7namX+v1Ou6MaWdsnNeythOaSdlXC6ObSV1TGdpZ0lMzrp+KmEk5Dqfdcrmwm2LUiopt3j2vlsem0ur2Dt+Ulpm6U8S+qVkk8eWlu/DHNLGyrZ5j6ee6ZLbdil1pNgrtpaWKWsr5Xiu6vycEst4wn4ssy2WVDK3pPTb4oSxkLLNyxLGQo5rtbJtTpkrpxJua6dcQ+Xo/1zn1q9MfKWkjuZc4+bSbthv7Bzn8Kq2uWl9mxJv6fVRjfo/JdZR248p29yk7alS08ZlGfsZAGgySXYAAAAA/x97dwImWVUejP+lq3t6enoWdmRHRFRcQJQEMXEXdxGNS4hfRORL1Cya4L6gRoy7JvlcI0ZjXKKiggwuiCgqENyNAhJBEVlkh5lpenqp4v/c4j+T6WGqzhnqzO2q7t/vefqBrvvOOeeee+6599a8cy4AAAAAeVkm851pMt/1A4vS4vvnbwAAAAAAAAAAAJBJkh0AAAAAAAAAAAB0IMkOAAAAAAAAAAAAOpBkBwAAAAAAAAAAAB1IsgMAAAAAAAAAAIAOJNkBAAAAAAAAAABAB8OdNgD9rxWNZMxQNIvElGhLjhJtqau9pdra7KN85xL71IhWMmYkZmtpS85xXh9Lum6fjZFkGTkxJY5zTt/mnfOtnrYvVq2MY5gT00/SZ2I9Bq3fSih13eyn61CJ45jTLzn11HVtzZmXl8RU1+0jMdNzGbltSZnJuuYN93wcc45Pif2p676yn87pOvc5Jed+Yjhj/C+N6Z7vxUpdw6ditOv26cT2yk2xQzLmutgtHTOTiLkyWUTEzRkxK7uf8xO7jieLmIyxZMzs0nRTppd2b8stsX2yjJtix55jcp5l1sSKZEzO/L8mVva8z6XGf841osRYWJvY54lIj7nhjGPULNAvE7E8oy3p49xrO3LGSmU0434i1S/rY1nPc2XOPuVcQ3LGQs75OhO39bzPOc5YvTojamE9FzUy7kuafXIPNUhtrVPOPuf0XV36qS2LccwttP4HAIAtkWQHAAAAAAAAAEDevw+Z73zwhfVvVIABYeoBAAAAAAAAAACADiTZAQAAAAAAAAAAQAeS7AAAAAAAAAAAAKADSXYAAAAAAAAAAADQgSQ7AAAAAAAAAAAA6ECSHQAAAAAAAAAAAHQw3GkDAAAAAAAAAADMyTKZ70yT+a4fWJRMPQAdDEWz6/ZGtIrU0yywqGgrGn2zzyMx23M9d8R0r6uV0W8zGZe52RjpaXtuPTlS+zxoco5zXUqcryXO1YWoxPwzaGM/Z/7pp33ul/4t0W+55ZQYlznnfM7ckpoLhzOumznX1pGYiV6NxlQyZibjupg6Rv00nw7a/dwg3Z+WGrejMZ2MGYvJnrbnxgwn2pvT/zn7kzNvt5qJY5QzDS7JiBnvvnlFrE0WsWPclIwZTofE8IruY2pk+/SYyzlGqXk5Z6wsj4lkzHhGTOpcvC3Gilw3c+b/EteZnOem1Hm2JGtOuC0ZMx7rarmfyJkLU+Mlp9+mYjQZkzN2lyb6t9TzcYn5NGeuTNWTc4ymM55rv7L6y8mYoQLjqdFHz9iLUU7/Nwt9PwcV5zwlmZ8AAMron7/dAAAAAAAAAAAAgD4jyQ4AAAAAAAAAAAA6kGQHAAAAAAAAAAAAHUiyAwAAAAAAAAAAgA4k2QEAAAAAAAAAAEAHw502AAAAAAAAAADARo0+yDSp2gBQMyvZAQAAAAAAAAAAQAeS7AAAAAAAAAAAAKCD+V7EE+hiKJq11NMqsJ7uILWVu24oWn1TTs5YaNaUS16qX+rSqqlfcuqpq+9S46WuOSxHo4/GU97xmV2E/dI/42WQ5p9Sc0/O/D+TeMzJuT7Udc8xEjNFYkZjuucycsZTznGciZHE9uG+uVblyOmX1BxV6p4k1S91zgmpfc5pS864XJIY25WxmOy6fTzW9VxGzvyfs8+jMZWMGc64tg6PJGJyprCl6ZCh8fVdt28ftyTL2CVuSFd0bTokNVxGt0/3bYljlDNWVsTaZMyqjL5LmYrRZMxsYk7OH5czPdczkjG2UzGtjLbmHKPlMVHLtSinb1fGmp6Pc851ZllGv6xMjN2c++DUWKmsStbTKrLPSzOuIalj9OXVX0mWMZQx/ktoFro/bfTR80yJfe6n/clpS6nj2C8G7RjBYj2HnIcAAGX0z99cAAAAAAAAAAAAQJ+RZAcAAAAAAAAAAAAdSLIDAAAAAAAAAACADoY7bQAAAAAAAAAAgDlLOTX6oA0ANTP1AAAAAAAAAAAAQAeS7AAAAAAAAAAAAKADSXYAAAAAAAAAAADQgSQ7AAAAAAAAAAAA6GC40wZgYWhFY76b0JeGotlzGc0+ylPO2Z9GtDLKaRUoI92WVkbfpcbu+liSLGM6RpMxMzESdSjRd6njkxuz0OSMpzrKKGV2vhtALfppzNV1r1DqulniGpJTRl3X+Zzrw5KYSsaMJmKGYyZZxkihGWgm8Zg5m3HtLXGc67onLHX97ad9LnHPUer+NDW2K8sT94WzGV995Nw3pvZ5TaxIlvH72DUZc11GzNord+oecGWyiIjJdEhrt6Vdt6/bYTyjmu5lVFYty2jMqu6bb4odk0Vcm9G318cuXbcvj4lkGbekGtuec9Pz8i2xfc/7nPO8k9OW4cQ1Iuc8m4xlyZiJGO/pGpMbkyN1vVoTK4vMYan25sxPOW3JGbup8bI2o56pjPaWkNOW2YyJ7kurv9ZzWxqF7ieatd2XN2rZn7rk9Nug7VO/yOm3usZtXQZtPJXo/37an8VI/wMADJb++ds9AAAAAAAAAAAA6DNWsgMAAAAAAAAAIC/LZL4zTea7fmBRspIdAAAAAAAAAAAAdCDJDgAAAAAAAAAAADqQZAcAAAAAAAAAAAAdSLIDAAAAAAAAAACADiTZAQAAAAAAAAAAQAfDnTYA/a8VjSLlDEUzBqm9JfanEa2e62lm5Cn30z4PZezzSMz0XEZO385kXH5SMbMxklFGOqaVOI45x7Cucyin/8vUU2Z/SpxnpeScr/2irnnjjrr6o1/6pR119/9iU2pOyCmnmYjJGXPDhcZLifGdU0bOdbFE3+bdT8z23Ja8vu39OJeSqiun3+q6zufIa2+zlvGUEzOcGHOp7XfEdL8PLiVnbOfcK8f6xPbJjMbk7HKiuWMZFY3HRO/7U0kMhZxzvsS8kDNWlmX0y5KY6vn5LEeJ60O930+0ep5bRjP6NiemzHN4Pd9P5PR/3ncYQ9v8Wb7UeMkZ26euPjUZsyRRTqOm5/2cupqeVe6yVN/VeZxTco5zP7V3ofX/YtRPY66uec6YAwDgruqfv9EEAAAAAAAAAACAPmMlOwAAAAAAAAAA0hp9kGlioWdgHljJDgAAAAAAAAAAADqQZAcAAAAAAAAAAAAdSLIDAAAAAAAAAACADiTZAQAAAAAAAAAAQAeS7AAAAAAAAAAAAKADSXYAAAAAAAAAAADQwXCnDcD8a0Wjlnoa0eq5jGZNObtD0axlf+psb+o455TRT3LGQs7YTpXT6qMxN5Qx5nLGZaquuvY5p56cfS4xh9U1/vtp3hiJ2Rgk/dR3JdQ15nLOobostGNY6hqSM4fNZDxOpdvSKDIuU3PHaEwly8iLme55fOf0/2yBvp2NkZ7LKCXvPqDEvUJ6PJW6n0i1N2c8LSk05sbitq7bx2MiWcaymIxeDWdcw9fGymTMylibrmzl7d23L98uXUbGUBjf9+au2/eKq5JlrPh1+hjGb9MhqVN6xS7pfssZC83EebRbXJcsY4+Mftkpbup5br8txpJlrMs4z3LmqBL3qOtjSc/nc848t33ckozZMaP/pxLtHY6ZInPLjtH9PJuMpUXm0+UZ4z81/+TM7TnjMjX+c47zV1eflowZzrgX6HVOqDRqe25tFmlvP0nt06DtT12My22nrn4rZTH2/yDtD8CCVn2nMN9TsuWkgHlg6gEAAAAAAAAAAIAOJNkBAAAAAAAAAABAB5LsAAAAAAAAAAAAoANJdgAAAAAAAAAAANCBJDsAAAAAAAAAAADoQJIdAAAAAAAAAAAAdDDcaQMAAAAAAAAAAMzJMpnvTJP5rh9YlKxkBwAAAAAAAAAAAB3I74UFbiiayZhmgXzbVjSKtCWlEa1a9id3n0rscyomZ59HYrZQW7rX1cro25kYScZMxWgyZjoRk3Occ9qb2uec/i/Rt7kxgySn/+soI0f6DOovgzZWSsz/paTP6cV3e1zqulnHdbXOuSWnvaWuRXXMCyMxkyxjSUwlY5bGdDJmOKOulBL3HDMZ53OpcVnXfW4/nfOp9o7GkmQZYxnHaDbj3jI1XnKOc879aSNxnNfGymQZN8eqZMyNsWMyJq7crvv2q9NFZByimLh5Rdftk7uOpQtZmtGW9GGOGO++eW10b2vlpoy+XZM4jqntlYlYnowZi8mMtqzY5vtTGc2Y/3NiSjwrTsZYLd895MTclmjLrbFDz8+1Oc/zqXbkzj85Um1ZlzG2c/Z5MjH+V69enSxjKKtv0/ckzcSYSs39bFs5/Z86hvS/nGPoXLzrFlrfldifhTjmBmkuHLS+BQDYlJXsAAAAAAAAAAAAoANJdgAAAAAAAAAAANCBJDsAAAAAAAAAAADoQJIdAAAAAAAAAAAAdDDcaQMAAAAAAAAAAGzU6INMk6oNADWzkh0AAAAAAAAAAAB0IMkOAAAAAAAAAAAAOpjvRTyBLkZipucymhm5tK2M9XRbiXKGohUlNAqUk1PGTIxEHXL6NnWcR2I2WcZwxlgp0bepcVCZybi0zGbEpMrJ6du6DEVzQdVTYqzkzj91qWu85JwjJeScQyX003lW13iq6xjW2bd17dNCU2rMpY51zvEpcQxz7tVy7idGYyoZk7p3yaknp72pfpnNuN9r1tT/pc751L1AP92TT8VokZixmKzpGA31PF5ujVXJMm6IXZIx183sloyJaxPbb0wXkfVIdEP3e451u46ny1iWUU9GMaly1sTKZBE5MRNrlnfdPrlyabKMyRhLxtwa2ydjboidu26/LnYrss8559l4TPT8rJIzF07Hkp7n7ZHofgwrwxnP2ROJgXlLxjmfMxZSbUm1I3duybkupo7RTbFjsoz1Gfv8ldVf7rp9NKOMUho1PWf30/40E8c5tT23Hu5a3+X0f45UOaWOYan2lqjHuKTkuKxrbAMAMFj8jRsAAAAAAAAAAAB0IMkOAAAAAAAAAAAAOpBkBwAAAAAAAAAAAB1IsgMAAAAAAAAAAIAOhjttAAAAAAAAAACAjRp9kGlStQGgZlayAwAAAAAAAAAAgA4k2QEAAAAAAAAAAEAHkuwAAAAAAAAAAACgg/l+UzbQRTORB9uIVm1tGaqxrl76JNdQNKNf1NW3OX3XSsTMxEiyjNmMmFY0ol+OYYn+L7E/efUM9c3+lOr/uuaxEvX0yzxYcrww+Ooal3Wdq3Vdn0vN2znX1pnEI1dOW2YzHttS5eT0bc54Go2pnmPGYjJZxkjMRh3zYM69TeoY5t7/lJA6jjnHMOd8rmtuyRlPOeNlVdzSdfvKWFOkLVMxGr3aPtHWyqqRm5MxEzvv0D1g14zGjKdDluy7tuv2veKqdCG/jjIxK7pv3vVu1yaL2CWuT8aMr1zXdfvucU2yjD3jymTM8phIxqyJlV23r4juxyf3fB7PaMt4rOv5HMoxGWM9Xzd3jBuTMdvHrcmYicRJUmoO2yVu6Lp9XcbJmnOcc+afHRIxOfcTp6w+OxmTukI3M45zo6b7xn5qC3e9/3OOY78YtP3pp/bWdb7WtT/9NLeU2Od+2h8AALir/O0rAAAAAAAAAAAAdCDJDgAAAAAAAAAAADrwulgAAAAAAAAAANKqN4nP9xvs57t+YFGykh0AAAAAAAAAAAB0IMkOAAAAAAAAAAAAOpBkBwAAAAAAAAAAAB1IsgMAAAAAAAAAAIAOJNkBAAAAAAAAAABAB8OdNgDzrxWNnrbnGopmMqYRrZ7raWbk9c7ESPSLVL/k9MlIzPZcz1CBvq/MZvTtTOKyMBljGWWk62nVlOPdT/1fopycfqurb0vVkz5CaaWOUYm5soQS822dfddYYP1fajzVeRz75RwpodTckrrnyOmTcvNp95muldGWnPFf4r4wp56cvisx5krUk3MM8+qp5165hFL7kyO1z8MZV/nRmErGjMVkz+Xk3BPmxJQoYzhm6hlPzTIxI0u679N4TKQLuSnKxKztvnk0pmuZn4YLHeecmPSzSpl5O6ctqfMs53zOuVbNFLlultnnVEzOWMiZF1LzXM71LGeuXJYRkzqnz1n9zYy2jCdjmgXuW0qUUUpOWxo1Pc/UZaHt86DtT05b+ukcSbW3zram6uqn41yqX/pln+rcnxL7PEjnEAAA9ZFkBwAAAAAAAABAWqMPMk36Jx8aWES8LhYAAAAAAAAAAAA6kGQHAAAAAAAAAAAAHUiyAwAAAAAAAAAAgA4k2QEAAAAAAAAAAEAHkuwAAAAAAAAAAACgA0l2AAAAAAAAAAAA0MFwpw0AAAAAAAAAADAny2S+M03mu35gUTL1QB9rFVhscihaRdrSL/W0olGk30q0N6eM4ZhJxjQS5eTUM5MxnTcz+mUqRhP1jCTLmM2IKTG2c/o2Z5+HotlzW3KOUZl6ei+jznOxTD1DtYynvDLcNi2GMddPcuawEkqcQ/12jErt0yAd51T/l5pP86553WNGYypZRk5M6l4g516h1NieTVwjcsrIGQt1je2RmE3GpPo35xiOxWQyJqecdTHecz05+5zq/2tj12QZv489kjFX3bxXMiYuSmz/ebqIWJkOmfjlDl23X3v/9D7HjhltWdV7zA2xc7KIq2bSfTtx84qu23+z6++TZewTv0vGjMe6ZMzlsV/X7b9NbK9MxZJkzPaJc6gynXhWXJJxrubMYROxvOf9SZVRmYyxZMyaxElyXeyWLCNn/kk9z+fsT878szbjpP/86m8mIrqPgzq/H8rR7KP705y2NGp65k/V00/91k/66Rjm6Ke2lGhrqXFZol/qbG+/GKTxVMpi3GcAANIG52+fAAAAAAAAAAAAoGaS7AAAAAAAAAAAAKADSXYAAAAAAAAAAADQgSQ7AAAAAAAAAAAA6ECSHQAAAAAAAAAAAHQw3GkDAAAAAAAAAADMWcqp0QdtAKiZqQcAAAAAAAAAAAA6sJId9LHhmIl+0Uzk5Ka2lzIUzSIxOUZituv2RrSiDjMZU/VsjBQpp5U4jqntuYZq6rscrXn/pzb5So3tEmO3rvFfl7rmsDrHXInztdQ530/nYV3Huq6+q6t/67z+puupZ/4pNc+VGHM51/lWor0zGWXUNbZz7klyxlPqXjnnGKbu90rtU07/z2b0S4njmNMvOc8hqZjRmCrS/6Mx3XM5pfY5dS7m1FPbfXCrUEyjwDm0NqOemzJibu2+eSwmk0UMj2Q8YzcbPc+DeTGNnsvJucY0M+rJGZclzvmcfkmdZzltzWlLiZiRAnNlzj7lXBNzxtOXV38lGbMixnre537SKHB/mnMOcdf7rsQx6ieLcZ/rMmj9Vtf8M2j9AgAAg65//vYPAAAAAAAAAAAA+owkOwAAAAAAAAAAAOhAkh0AAAAAAAAAAAB0IMkOAAAAAAAAAAAAOpBkBwAAAAAAAAAAAB0Md9oAAAAAAAAAAAAbNfog06RqA0DNrGQHAAAAAAAAAAAAHUiyAwAAAAAAAAAAgA7mexFPoItGtGqpp5mRb9tKrLnbKpSzO5TY56FoJssYidkifTscMz2XkWMmMRVPxWiyjFIxqeOYGge5xyh1nHP6t1Q9dSlxjpQ6z2Zr6recY1RCiXMxp4xy4yk9R/XL9aGf1DWeSqlr/ikxFgbtnO8nOdfF1Nyddx/W+71aTj2pe5I6x+1oTCVjxmIyUcZ0kXpKmImRZMxsRv+XOEalrnnDievZSOJeOucYVsZjXUbMRNftyzLqWZIxFiZjrOd58PexWzJmxx1uSsbcsOse3QP2ShYRsX06ZGz/W7tu3zcuTxdycZSJSbR3z0demSxix0j37ezO3c/XHTLKuFtck4xZGWuSMWtjRdftN8VOyTKmY0kyZue4ISPm+q7blyfOw9zr2boY7/m5dvu4pcg+r42VPX1nkDv/7BlXd90+keiTytdWn5qMGc+4FqU0M+59GgvsnjBnf3L6hbvWdwttPNW5z3WNy4V4jPqFvqWkfrpWGdsAwCCzkh0AAAAAAAAAAAB0IMkOAAAAAAAAAAAAOpBkBwAAAAAAAAAAAB0Md9oAAAAAAAAAAABzskzmO9NkvusHFiUr2QEAAAAAAAAAAEAHkuwAAAAAAAAAAACgA0l2AAAAAAAAAAAA0IEkOwAAAAAAAAAAAOhguNMGgEHViFYyZjhmkjEjMdtzW1oZucytaHTdPhMjyTKmYjQZM50R00y0N6dvcwxllDMUzQJl9F5PnVJjoVw9Qz2P2xL1lNL7mVpOzpgrU0+ZcVvqnO6Xfumnvi0x/nP6LTVv5yhRRs6jRbm5pZ65sjlgc2GJ9ub0bd69Te9tybm3uS3Gum5fGtPJMkZjaqDuG0scw9mMe8sSc9RIRr+VqKeyJHEcc86PnH5JjcuJWJ4sY22sTMbcsmb7ZEzcmNh+QxQxM929X4aWZlzj16dDZjNihhOHcU1G397Q3CUZM/G7HbqXsf/ORY5zzvwzk7i2zmZ8rZfzPJmq5466Rnqet3PqWZc4jyYTc3/uvDGacY2YiPGez/kcU7Gk6/YvrD4zWcbSjDGXcZoV0cy4FjX66Dm8hMW4PznHeZD2qZ/2Z9DOoYXY3sW2P/20z/10LtalVN8uxr4DAJgPVrIDAAAAAAAAAACADqxkBwAAAAAAAABAWqMPMk0s4gnMAyvZAQAAAAAAAAAAQAeS7AAAAAAAAAAAAKADSXYAAAAAAAAAAADQgSQ7AAAAAAAAAAAA6ECSHQAAAAAAAAAAAHQgyQ4AAAAAAAAAAAA6GO60AZh/zT7Kgx2KZk/bczWilain+/bctqTqydHKOD5TMZqMWR9Lum6fzigjpy05SvRLKa1oRD+oa2znxgzS3FLXMSwx/kudQ2Xa0h9jf6Fez+oaC/10nEvsUz8dwxJ9V2puL6HU3F/iGOX07WzGI+RMIiannpxxm7ovHImZZBlLYzIZM5YRMxpTPW3PNRMjBY5P9zJKjd3hjP5fHhPJmJWxJhkzGWNdt6/IKCPnOWMixrtuvybulizjqtgzGTN76bJkTPwysf1X6SLi5nTI7G+7t+Xm+++YLmRVOmQ4IyZ26b1v1/58p3Q9lyY2733PZBGXj+ybjJlKPAdWrondu26/NnbNqCf9PFlCzlw5mzH/3BLb93Qe3hGzvEi/pOrKGXM5/fLl1V/tun1Zxv7kaGTc/zQX4LMIgy1nTOaM7RJlOD/uuhJ910/HaKHtT45+astCU6pvS8yFAFvj9sYdP/PdBoC69c/flgEAAAAAAAAAAECfkWQHAAAAAAAAAAAAHUiyAwAAAAAAAAAAgA4k2QEAAAAAAAAAAEAHkuwAAAAAAAAAAACgA0l2AAAAAAAAAAAA0IEkOwAAAAAAAAAAAOhguNMGYP61opHYXiZPdihaPZcxEjNF6kmVMxKzUZepWJLYPppRRu8xszESJeT0/1A0ey6jUWA85bQlR4lzpNR51irQLyX6pOQx6pd66tLso3+bkLo+5JdTzz4N1VRPiX7JGbclxkKJa+9CVNe8UWo+zaurVdN1ptHzuM1pS859yZJEOTll5LQl1bd5956zRe5zR2Oqp+257R2LyZ77baam/s/Z52WJ/amMx0RGzLqe+i13Xkj1S049OTExng6JscT27o8y+fWs7L55VdySLuOmdMj6jJiliapyxlzWrUIiZnhkpsjYXhlre47JG9u9zy055+LyxHmYO/+krlc5+7My1iRjdsgYu6n5f23qBImIM1d/IRmzPPGdQKPG+5a6NIvcty+8fhkkOf1f4jiz7Y7RoB2fQWvvYtsf+n9MuW4CpTUbEc3h+W8DQN3652+LAQAAAAAAAAAAoM9IsgMAAAAAAAAAAIAOJNkBAAAAAAAAAABAB5LsAAAAAAAAAAAAoANJdgAAAAAAAAAAANCBJDsAAAAAAAAAAADoYLjTBgAAAAAAAAAA2KDViGgOz38bAOpmJTsAAAAAAAAAAADowEp20MdaBfJgS5RRGY6ZrtuHopUsYzSmkjEjMZuopxklTMVoMmYmRrpun4yxIvXMJuppFjqGqb7NOY6NjOOcGiu5csZUHUqdQ/10Ps/W1PelzteUnHEZBfa5rjFZYn8GTV1jpZSFNhYG7Zyvq+9KXX9TWlHmn1ymrhGl9ifnWpTap5y2lLrmlRj/Ixn3NqMx3fN98JIi98r9cw3J6becfR6LyWTM8liXKGN9kTlseUx03T6dce+/e1yTjBnf/+ZkzMTdd+gekC6iakzSir1u7Lp9t7g2XciV6ZDL0oco7nt19+07xw3pQnZLPxPFmuGe93nPuCoZs09c0fPz5PWxc7KMiViejNk5rk/G3C2x3+OJ8yPnGbuyLHHOr4vxZBkrY20yZteM45h65v/y6q9ktGVpz/NPM+NeodFH92F1yemXHIux7+qS07eljmMdFuP+5Khrn+s6V/vpGC7Gfe6nvlto/VLn/ri2AgALmZXsAAAAAAAAAAAAoANJdgAAAAAAAAAAANCBJDsAAAAAAAAAAADoQJIdAAAAAAAAAAAAdDDcaQMAAAAAAAAAAGww29iu/TO/bbg9IqofgPpYyQ4AAAAAAAAAAAA6kGQHAAAAAAAAAAAAHUiyAwAAAAAAAAAAgA6GO20A5t9QtLpub2XkyabKyI1pJGJGYqbnMu5oSzN6NRsjyZipGE3GTMZY1+0zGfXktKWZOI6taNTSb3XKG5f9sU+l2pFzHNNl1JMbX6qeuto720fjtp/GXM6c2y/9kpoHS+5Pif4tdf0t0S8llKunfx4tSsw/JebthajEeMk5Pjn1pO6zcuopdZ81nLgajcZUsoxlMZmMGUvELMmoZyTjylniXq3EMaxM1XTfmLPPqeeDnGeMnJiZ6Yz5NPX4NZ0uItanQyYnuu/zupXjyTJ2XXVrMmaHdFMiVnbfPBHL02XcnNG3N3ffvC7S+5zzrFhCzhw2FUsyYnofuznn0EzGvUKqf9ekBkJmW8YzxssXV5/ZdftoRltyNBPHsVHjs3GqrlRbB9Eg7VOdY6EuC22fcvanxJjLKaOuvq1rn+tSqt/6aW5P6ae29JO6+mWQzo+FOP4BALaWlewAAAAAAAAAAACgA0l2AAAAAAAAAAAA0PfvdAIAAAAAAAAAoG+1Go1oDs/vek6tRisiZue1DcDiI8mOLJdddll8//vfjyuvvDKmp6djhx12iHvf+95xxBFHxNKlS+etXbfcckv84Ac/iN/85jft/2+1WrFq1arYa6+94rDDDou73e1u89Y2AAAAAAAAAABg8Emyo6tTTz013vzmN8ePf/zjLW5fvnx5HHvssfGGN7whdt5559ra9cUvfjHe9773xbe//e24/fbbO8Y98IEPjBe+8IVx3HHHxfCw4Q4AAAAAAAAAAGyd+V3Dk741NTUVz33uc+Poo4/umGBXWbduXTvZ7aCDDorvfOc727xdN954YzzpSU+KZzzjGfGtb32ra4Jd5Sc/+Un85V/+ZRx++OFx6aWXbvP2AQAAAAAAAAAAC4skO+6keuXqs5/97PjUpz415/NGoxF3v/vd45BDDmm/knVT119/fTzhCU+I888/f5u1a82aNXHkkUfGV77ylTtt22WXXeLQQw+NBz3oQVt8ReyPfvSjeOQjHxmXX375NmsfAAAAAAAAAACw8Hh/Jnfyzne+M0477bQ5n1WvXH39618fe+yxx8ZEvCrmpS99aVxxxRXtz2677bZ41rOeFb/4xS/ulIRXwmte85o7rar31Kc+Nd74xje2Xwu7qYsvvjje8pa3zEkUvPLKK+Mv/uIv4swzz4yFYjhmkjGNaCVjRmI2GTMUzQJlpNsyGyNdt89kTFtTMVpLTKqtpYxkHOecvk0dw1JafZS/Xdc+19WW+o5ho5Z66hwvJeqpb2wvvNuzOsfUQtIcoPMjrx7jYCFcz0oc65wxN5Nxn5UqZzZjPs05z3LGbuoYjcZ0sozRmErGjMe6xPaJIvXkxKTu//PuT1tF7oUnYnybP+/kPB/cEDsny7gpdkzGTF+zIhkT1yS2/zZdRKxJh8xesqx7NYfdPVnG/ntfnYzZ4zfptqS6N6f/s/ol0Zarb9wrWcR1O+2ajNkxbkzG3BQ79Dyeboky38+kzsWc+SfnOTy1T2tjZbKMiViejPny6jv/A87NjSTqyrme5cxzg6SRMVc23fNtM6X6Nuc4su2k+r/UcU6VU+c4KLHPOTH9NLb7qS30N9dWAIDB0j+ZEPSF6nWsVXLapt761rfGBz/4wY0JdpWhoaH2q2TPO++82G+//eYksr3nPe8p3q7rrrsuPvShD8357EUvelE70W/zBLvKfe5zn/jkJz8Z//AP/zDn82984xvbdLU9AAAAAAAAAABgYZFkxxzveMc7Yu3atRt/f9jDHhavfOUrO8bvueeecfLJJ8/57L3vfW87Wa+k1atXR7PZnPN62He9613JP/fa1762nXC3qdNPP71o2wAAAAAAAABgMWg2Gn3xA1A3SXZsVL0C9mMf+9icz6pXsW633XZd/9yjH/3o+OM//uONv1dJep/73OeKtu2SSy6Z8/vjHve4WLas+2trNl1xb1OXXnpp0bYBAAAAAAAAAAALlyQ7Nqpe/Xr99ddv/H3//fePRzziEVl/9gUveMGc30899dSibbvpppvm/L733ntn/9l99tlnzu+33HJLsXYBAAAAAAAAAAALmyQ7NjrjjDPm/P7Yxz42uYrdprGb+va3vx0TExPF2rZq1ao5v09OTmb/2c1jd95552LtAgAAAAAAAAAAFjZJdmz005/+dM7vRxxxRPaf3WOPPWK//fbb+Pv09HRcdNFFxdp2yCGHzPn9Bz/4Qfaf/f73vz/n9z/4gz8o1i4AAAAAAAAAAGBhk2THRhdffPGc3w866KCt+vObx29eXi+e/OQnx/j4+Mbfzz333Dj//POTf+7SSy+NL3zhCxt/X7p0aRxzzDHF2gUAAAAAAAAAACxskuzY+ErVK664Ys5ne++991aVsXn8JZdcEqVsv/328ZrXvGbOZ894xjO6rmhXJfk98YlPbK+qt8FJJ50Uu+66a7F2AQAAAAAAAAAAC9vwfDeA/nDDDTfE7bffvvH3kZGRrU5G23PPPef8ft1110VJr3rVq+LCCy+MT3/60+3fr7nmmnjIQx4ST3rSk+LII4+MfffdN7bbbru46qqr4uyzz44vfvGLMTMzM+fPn3DCCTFIRmImsX02WcZwoozcckqYyZhypmK0p+2V6YyYnHJy2pvSiFbP/T8UzWQZQxn15LQlp64SbcnRKpAHnlNGqfbW0bc5co5zHWXkavZJvn8rGtEvSoz9fqxrIY2nfuq3fhq7g6SuOfmOuuqbU+uQd20tcT/RP/ckdfXbTIz0fA9b6p4w5/lgKP73HzNty+eQnHJGYypRRrqeRsaYS825efucjsm6zJSYxtb0HjMZS4vsz+3dh1Pbduu7bx+LyXQhSwr0bXOotnuS/npWbBWYW3qfF3LK+Mrq05IxK2NZMqYV63vu2366b6xLznzadA87r0r0f85xhn4c24M0dkvNlYO0z2yZYwgA0D8k2dG2bt26Ob8vW7asnbC2NTZ9neuWyuzV0NBQfPKTn4wjjjgi3vSmN8X1118fzWYzvvzlL7d/OnnoQx/ajn/0ox8dpVWJhFU7tkb1ClsAAAAAAAAAGDTVPyia73880z//vBZYTCTZscWEuKVLM/41+mbGxsa6lllClfj3V3/1V3HUUUfFi170oli9enXX+CrBrlq97pGPfGRsCx/4wAfaCXwAAAAAAAAAAMDCtPjeWcAWrV8/9xUYS5bkvENlrtHRua8umpzMeFXLVpqYmIi///u/jwMPPDCZYFc599xz4+lPf3rc9773jf/6r/8q3h4AAAAAAAAAAGBhk2THFleum56e3uoypqamupbZq6uvvjoe/OAHx3vf+96NCXz3ute92qvJ/fKXv2yvnHfbbbfFZZddFh//+MfjQQ960MY/W23/4z/+4zj11FOLtgkAAAAAAAAAAFjYvC6WtuXLl3dd2S7H5ivXbV5mL6r2HHnkke1kuQ2OP/74eP/733+nVff233//9s+f//mfx+tf//p4y1ve0v58dnY2/vRP/zR+/OMfx33uc58i7Xrxi18cz3zmM7fqz1x66aXxtKc9rUj9AAAAAAAAAADAtiXJji0mxFUrwt1+++2x3XbbbdWrXLuV2Yu3v/3tceGFF278/VGPelR8+MMfjqGhzosxVm0/6aST4oorroj/+I//2Jisd8IJJ8RXvvKVIu3adddd2z8AAAAAAAAAABtUb+H7/ve/H1deeWX7bYI77LBD3Pve944jjjii+JsBc8zMzMQll1zSzr249tprY+3ate28jp122ike8IAHxP3ud7+uORiw2Emyo23nnXduJ6VViXUbJtfrrrsudtttt+wyrrrqqjm/l0o+azab8b73vW/OZ1XyXO7kXq1k96lPfSparVb796997Wvxu9/9Lvbee+8i7QMAAAAAAAAAqJx66qnx5je/uf2WvS2pEtuOPfbYeMMb3tDO1diWfvOb38Qpp5wS3/jGN+J73/vend5QuKlVq1bFc5/73HjJS14S97znPbeqno9//OPx/Oc//y638+EPf3h8+9vfvst/HuogBZW2sbGx2GeffeZ8Vq0AtzU2j68ysEv47//+77jhhhs2/l5dZA4//PDsP18l0x188MEbf68SCauLBwAAAAAAAACQrxmNmJ3nn6oN/WhqaqqdpHb00Ud3TLCrrFu3rr3Q0EEHHRTf+c53tllbqryK/fffP17xile0k+y6JdhVbr311nj/+9/fXtHuXe9618ZFmoA7WMmOOUlxv/3tbzf+ftFFF8Vhhx2W/ecvvvjiO5VXKrN6U/vtt99Wvca2cve73z1+8pOfdFx1r1+NxlRi+3SyjJGYScYMxR2r/HXTSuTkTsVosoycmMkY62l7bj2tjBuv1D7n9FsjI2Yoml23j8Rsz2XcEZNuSx1l5Er1/0Ksp0T/5oztnPFSQs74z4mpQ7+0g86ai/DfhgzauKzrGtFP/VLXfJozt/fTeVbi2prTllS/5LQjL6bRc3tL3BNWhhP3hannh9yYsej+ZVtlPCYS29cVqWdZRkyqnNFmep+H/v+Vz7uZGBnv+RheFXslY4Z3vi0ZM7t0WdQiMfzHYn26jJvSIZetTccccGn37XtHxj8UvHs6JK7tvnnFTrcmi9g+0jE7ZXTMRCzvun3n+N9/kNiLVXFLz+1NzQmlnom+sfoLyTLGCl3PZmKkwHcC9dwrDJpUv/TrX5axdceorvFf13ipa39y6imxz/10DOtUou8GrV8W4z4DwHyp3qz37Gc/O0477bQ5nzcajfaCR9UqcVXuQ5XItsH1118fT3jCE+Kss86KhzzkIUXbU7298IILLtjitupVtbvvvnt7gaOJiYm49NJL26+z3aD6/5e//OXt9lZJd8AdJNmx0SGHHBJf//rXN/5+3nnnxfOe97ysP3vNNdfE5ZdfvvH3kZGRdtZ1qQzrTQ0Pb/2wrdqz+StoAQAAAAAAAAB69c53vvNOCXYvfOEL4/Wvf33sscceGxPxqpiXvvSlG98UeNttt8WznvWs+MUvftFOxNtWqoWJqvyPxz72se3FljbNoahWuPvCF74Qr3vd6+YszPSBD3wg7nOf+8Rf//Vfb3V9VZLekUcemR2/ww47bHUdUDdJdmz05Cc/Od7+9rdv/L3Klq6W/8xZNe7MM8+c8/sjH/nI9nvES9hpp53m/H711VdvdRmbr1y3yy679NwuAAAAAAAAAGBxu/HGG+Mtb3nLnM/e+ta3xqte9ao5nw0NDbVfJfsHf/AH8Ud/9EcbFzK68sor4z3veU+86U1vKt62hz70oXHiiSe2k+s65X6MjY21X3P7pCc9KR73uMfFD37wg43bqiTBY445JnbcccetqrdalOkxj3lMz+2HfrL43rtFR0cccUR7OdANfv3rX8e3v/3trD/70Y9+dM7vRx11VLF2Va+H3VSV0X3ZZZdl//m1a9fOuQhU7nGPexRrHwAAAAAAAACwOL3jHe9o5yVs8LCHPSxe+cpXdozfc8894+STT57z2Xvf+952sl4pS5YsidWrV8f3vve99opyOYsrVavJnXrqqTE+Pr7xs1tuuaW9yh0gyY7NsqaPPfbYOZ9VmdLVanbdfPOb34zvfve7G39fsWJFeznTUg488MDYa6+95nz2rne9K/vPVxnfm75ydtmyZXH44YcXax8AAAAAAAAAsPhUr4D92Mc+NuezN77xjcmktkc/+tHxx3/8xxt/r5L0Pve5zxVNsqtWptta1attq9fKburrX/96sXbBIJNkxxxVNvWmr3k955xz5rxCdkuvYT3++OPnfPaSl7xkzop4W1JdUDb9Sa2YVy1NuqkPf/jD8YlPfCKxNxGnn356nHTSSXM+e85znhOjo6PJPwsAAAAAAAAA0Ml5550X119//cbf999//3jEIx6R9Wdf8IIXzPm9WkWuH2ya/LfhbYOAJDs2UyXHveY1r5nz2atf/ep48YtfHFdfffWcbOxqgq9eMbvhPeEbsppPOOGE4u16xSteMecd39XqelX29POf//y48MIL7xR/6aWXxt/8zd/E0572tJidnZ2zil31vnEAAAAAAAAAYOs0oxHNGJ7nn0b0izPOOGPO74997GOzXs26IXZT1eJEExMTMd+q18Zu6tZbb523tkA/kWTHFleze/KTnzznsw9+8IOxzz77xD3ucY849NBDY6eddoqjjz56Tsby2NhYe/nS7bfffptM4l/60pfutALdxz/+8bjf/e4Xu+22WzzoQQ+KBz/4we1Ev3ve857xvve9r50MuOnrcD/96U/HvvvuW7x9AAAAAAAAAMDi8tOf/nTO79VCRbmq3Ib99ttv4+/T09Nx0UUXxXyr3mi4qSo/BJBkxxZUyWif//zn269V3VSz2Yxf//rX8ZOf/CRuueWWO02qX/nKV+KhD33oNmvXwx72sDjrrLO2mCR33XXXxY9//OP40Y9+FNdcc82dtldJeNWrY4866qht1j4AAAAAAAAAYPG4+OKL5/x+0EEHbdWf3zx+8/Lmw3e/+905vx944IF3qZwqx+RXv/pV+5W6559/fvzP//xPrF27tlAroX7D81AnA2Dp0qXxmc98Jv7kT/4kTjrppDtlX28wPj7efm3rG97whth11123ebv+6I/+KH7+85/HRz/60fjwhz8cv/zlL7vGV1nfxx9/fLzwhS9ckNnVQ9HMiPnf1fx6MRMjXbdPxdxVBrdkMsZ6jsmpZzbR1korI8e4VN/VIaetJfYnZ8wNmpyxsNDakqqn1NhvFViqu64x1+ij832Q5p46+25kwOaouo6jsTv48ub+2Zpe89A/18S6rps516qcfkm1pa6+zemTmYyvAWYLxaQsi8lkzPbNW9Ll3JQ4R27LaEzGJWTpqu5fAK7bKd3WJTGVjGk1M8bL+lRAxk43089nMZn3apOuMt5wcm1GMQckgnaJG5JlLNk5/SXu9MoVXbePNtLHcDTjOI810+N/rNH9OI5lnENj6cGS1d7hmOm5jJy58OzVn++6fTzGk2XkfG9QlxKvL6pewrTY5OxzqVdD9VP/9tPrrkpYjPtT13iq6xypa5/rPOcX2lioy2LcZwDINTk5Oeftf5W99957q8rYPP6SSy6J+bRmzZo45ZRT5nz2xCc+cavL+cd//Mf427/92zsl1VWLPt3//vdvvyr3r//6r72JkIEiyY6unvGMZ7R/Lr300rjgggvay4JWS5RWr4S9z33u0165rkrI21q33377XW7TihUr4qUvfWn75/e//3384Ac/iKuvvrq9ul5V7qpVq9or11Wvjq1ecQsAAAAAAAAAUNINN9wwJ/dhZGRkqxcn2nPPPe/0Fr/5VC3CtG7duo2/77zzzvHkJz95q8upVrDbklarFT/72c/aP//0T//UXjTpPe95T4yNZfyDUJhnkuzIcsABB7R/+s3d7na3eMpTnjLfzQAAAAAAAAAA5kG1aNDW2mWXXXp+W9+myWiVZcuWxXbbbd2bAaq3B3Yrs07Va12rhLdNve51r2vv17YwOzsbH/rQh+Lcc8+Nr3/967H77rtvk3qgFEl2AAAAAAAAAAAMpKc97Wlb/Wfe8IY3xBvf+Mae6t08Ie6uvAVw8xXc5ivJrlpB7znPeU40m//7GvjDDjus/UrXrXHIIYe0V7474ogj4qCDDmqvhLdkyZK46aab4uc//3k7me4jH/lI3HrrrRv/TPV5tbjSOeecc6ekQ+gnkuwAAAAAAAAAAEhqRSOa0ZjnNvzvK1rn0/r16+f8XiWTba3R0dE5v09OTkbdpqam4uijj47f/e53Gz9bsWJFfPrTn45GI+9YH3roofGjH/2o/d8t2W233do/j3nMY+I1r3lNHHfccXHqqadu3F792RNPPDHe/e53F9gj2DaGtlG5AAAAAAAAAACwIG2+ct309PRdSnDrVua21mq14rnPfW77VbEbVIl1n/rUp+KAAw7ILucBD3hAxwS7ze2www7xhS98IZ7+9KfP+fwDH/hAXHXVVVvReqiXlewAAAAAAAAAABhI1YpoW5MQVtlll116rnf58uVdV7bLsfnKdZuXua29+MUvjlNOOWXj79ttt137da7V61u3paGhoTj55JPj7LPPjltuuWVj/33+85+Pl770pdu0brirJNkBAAAAAAAAADCQqgS7+973vrXXu3lC3G233Ra33357O1Et18TERNcyt6VXv/rV8eEPf3jOZ9XrWp///OfXUn+1ol312tj3vOc9Gz8788wzJdnRtyTZQR+biZGey5iKVjKmlfHm6FRbpmLuu+Lvasxsop5W5L3zPWUoo19SMUPRLFJPCTnHMEdd7c2R078LTanjuFDaUWdbWot07DcK7HeJY1Rq7mkWaEuJPil1vcoZC/10vg6SUvcTdY3LhabUeVbX8ck5z1LlpO5xc2NS9eS0dSRmkzG3xVgyZodEe3Pm9rGY+690t2RFY00yJjld5vwD4pzL77JUEen+n8zo29aNGa8EuSYVcFm6jMj4wvbKu3fdfEusSpcxHmXMdN88GnNfrbIljUar53omZ9LHcHIkHTPVGO35OXw242u96ViSjJlMDe6MsZszt3x59VeSMa1EPTnXkJHUQWyfr73fC+TMuSXuc3Pa2liEz88LUYnjWGJsc9ctxvO1rn3OKaOfxn+Jttjn/tdP/T9IBu04A6TsvPPO7YS6KrGuMjMzE9ddd13stttu2WVs/nrUXXfdNerwtre9rf2zqRNPPDH+7u/+Lur06Ec/ek6S3SWXXFJr/bA1/I0PAAAAAAAAAABshbGxsdhnn33mfHbFFVdsVRmbx9/73veObe39739/exW7Tb3kJS+JN73pTVG3vffee87v119/fe1tgFyS7AAAAAAAAAAAYCttnhR30UUXbdWfv/jii7uWV9onPvGJ+Ju/+Zs5n1WvbH3ve98b82FkZO5K/tVqgNCvJNkBAAAAAAAAAMBWOuSQQ+b8ft5552X/2WuuuSYuv/zyOQlnBx10UGwrX/jCF9oJdRteb1t51rOeFR/5yEfar72dD7///e/n/L7LLrvMSzsghyQ7AAAAAAAAAACSmjEUzWjM80//pLo8+clPnvP7WWedNSeJrZszzzxzzu+PfOQjY/ny5bEtfPWrX41jjjkmms3mxs+e9KQnxSc/+ckYGpq//vze977X9fWx0E/6Z+YBAAAAAAAAAIABccQRR8TOO++88fdf//rX8e1vfzvrz370ox+d8/tRRx0V28I555wTz3jGM2J6enpOQt8pp5xyp9e11ml2djb+/d//fc5nj370o+etPZAiyQ4AAAAAAAAAALZStQrcscceO+ezN73pTcnV7L75zW/Gd7/73Y2/r1ixov3q1tJ++MMfxlOe8pSYnJzc+Nnhhx8eX/7yl2Pp0qUxn972trfFpZdeWkuiIZQgyQ4AAAAAAAAAAO6CV77ylXNe81qtHPf2t7+9Y/xVV10Vxx9//JzPXvKSl8xZEW9Ltttuuzk/qRXzLrzwwnj84x8fa9eu3fjZIYcc0n51bMnX0n7wgx+Ms88+e6v+zHve85448cQT53z21Kc+NR70oAcVaxeUNly8RAAAAAAAAAAAWASq5LjXvOY17Z8NXv3qV8cVV1wRr3vd62KPPfZof9ZqtdoryFUJddW2DartJ5xwQtE2XXPNNXHkkUfGjTfeuPGz8fHxeMUrXtFe3W5rPeYxj+m47YILLogXv/jFcfDBB7dX46sS++573/vG6OjonLjbbrutvYLfu971rvjOd74zZ9tOO+3UTryDfibJDvrYZIx13T4R48kyWtFIxjQzFrVsJWJy6kmVkWMkZqKEoWgVKKNZS1tyjk9dco5hTt+W6rsS+qktdSlxLi60tvZXnwzXModVZouUsviU6v/BGpeDtT859yV1KXEdb9Q05uq6t6mrjJwxlxeTHk8zibl7KuZ+mbQlszFS4J48vT/DGbP/WEZ7S4ynsfjfV1R0siwjZnT7G7puX1LoFJrevvv2tbEyWcatkSikcm1GY65OBfwuo5Duz5ttV9696+YbYpd0GTumQ1bmPQz2PN/OTKfPs1jXffPEzSuSRdyy66pkzJpY0fN3AjlzS6qM3Dn3lsTY/fLqr2bUk/4Oo5/u1ZoF7idK3P/k7E9OWxuL8Nk3R6rvBq3fctpbYmzXpVT/99M+L7QxN2j9P0gWY78txn0GYOGtZnfeeefF6tWr56zw9q//+q+x7777xqpVq+I3v/lN3HLLLXP+3NjYWHzuc5+L7bfP+N5oK1xyySVx9dVzv0SamJiIY4455i6Vl3r9beVnP/tZ++e1r31tDA8Px957793e7yVLlsTNN98cl19+eczM3Pnv+6tX5Z5++ulxj3vc4y61DeoiyQ4AAAAAAAAAAO6ioaGh+PznPx/Pf/7z4z//8z83ft5sNuPXv/71Fv9MtXrbKaecEg996ENjoZmdnW0nFab84R/+YXzqU5+SYMdAWFjLYwAAAAAAAAAAsE1Ub35ozvNPP73NZFNLly6Nz3zmM+3EuUMOOaRjXPXa1ur1qhdddFE84hGPiEH3ohe9KF760pfGoYceGiMjI1n9VL1Stlq97vzzz5dgx8Cwkh0AAAAAAAAAABTwjGc8o/1z6aWXxgUXXBBXXXVVTE9Pt18Je5/73Ke9cl2VaLYtXtm6QZW8tzXxvahWo6t+KtV+Xnzxxe1V7KrX1a5du7b9itiVK1fGDjvsEAceeGA88IEPbL9CFgaNJDsAAAAAAAAAACjogAMOaP8sJlXy3MEHH9z+gYXG62IBAAAAAAAAAACgA0l2AAAAAAAAAAAA0IEkOwAAAAAAAAAAAOhAkh0AAAAAAAAAAAB0MNxpAzD/JmMssX1ZRhlLkzGtaESvhqKZjBmJ2WTMcCJmNKYyyphJxjSiVWSf6lDi+OSWk4rJ6ZNWRv72UFZM+hjVcQxzxkopJepqZvVtc6DGbh1yxm1dSpyrdcoZc3UZtOM4SPtc13Hup7FdSr9ci3Kuq6WuDyWu4SXGds54msl4JM4pZzZRTql6Uv1Sou9z6qlMx2hPzzKVNbGiyL19c2n39i7fYyJZRk7fpdp7Q+zScxltE1kTc8LajELSz1axpvvmdTGeLmNlOmR5OqR6GOxqNkaSRcyuX9LzPscN6fP5ll23T8asy9jr1HmWs88zGTFTqc6NiM+vPrvr9hUZ5/xIoWf1fpEzb5S5npV5fm4WuM9q1PQsWaKt/daWuvqurrYMWr+k6hm0MZfTb4O0zwDA4JmNoZid5/uJ2T66xwYWj/75m0gAAAAAAAAAAADoM5LsAAAAAAAAAAAAoANJdgAAAAAAAAAAANCBJDsAAAAAAAAAAADoQJIdAAAAAAAAAAAAdCDJDgAAAAAAAAAAADoY7rQBAAAAAAAAAAA2aMVwNOc51aQVrXmtH1icJNlBH5uNka7bJ2I8WcZkjCVjpmJJ9GokZpMxozGVjBmLya7bh6KZLGM4ZorEDCVuznLaUkIrGhkxQ4ViGj23JUeJcvL6f7jn45xzk15qLDQKPBDknIv1mS0yLkto1lRPibFd54NhXf3fL8env45zffs8SP2bM5+WmCtTc3/J9paoK2ef67ovKaHc/cRQ35xnw4lrXmp7rpHEPWzOPW7OPfmSjJhlifv21H197liYiOXRq6kYLXIOpdqS8+yVNf5zHs9SVU3uGkUq2qH75uUxkS4jI2RdOiQZlDPmhpdOJ2NmG4lniIzpdibxLJ87R6Xmjpx9Hs/o3W+s/mJGOa1ankm5a3L6tsQ9SbPQNXwxKtF3jQG63xs0pfp2kI5zP+0zAADAoPDtFgAAAAAAAAAAAHQgyQ4AAAAAAAAAAAA6kGQHAAAAAAAAAAAAHUiyAwAAAAAAAAAAgA4k2QEAAAAAAAAAAEAHw502AAAAAAAAAADABs0YimY05r0NAHUz8wAAAAAAAAAAAEAHkuwAAAAAAAAAAACgA6+LhQFWLcRbl5kY6bq9tQBzdkdjquf+H4nZAi1Jl5HT/znLJrcSSzvn1JMX0+i5vXUtA92IVm3n4lCirqFCbcnZp3Q9vZdR7hxJG61xvuxVzvkxaCzb3t9KzAk580+peSNvXm71xVyZ05Z+Uup+YjZx39is8X6ihJzxkjrOOde7kZhJxiyJ6Z7LGC7UlhJju0Tf5ra3hFQ94zGRLGPHuCld0T4ZjblXYvtPH5RRyLJ0yKHdNx8Yl6TL+Fk65OfpkJi6sfv2B1+S7v8D7vWrZMwv73lw94A9up+Hle3jliIxYzHZdfvucU2yjK+t/lJGW7rP26WeVQZNIzFHzferkbZWie9tFuJxHiSDNuZK7FPqPOw3g9beftnnUmO7n/p/IZ6vbBv9NG4BAEjzN54AAAAAAAAAAADQgSQ7AAAAAAAAAAAA6ECSHQAAAAAAAAAAAHQgyQ4AAAAAAAAAAAA6GO60AQAAAAAAAAAANmhFI5rRmPc2ANTNSnYAAAAAAAAAAADQgSQ7AAAAAAAAAAAA6ECSHQAAAAAAAAAAAHQw3GkDMP+WxFTX7WMxUqSekRhNxswk6moVytlN1ZOjmdGW2Yx6ZmOy6/bRxPGptDJiRmKm6/ahaGWUMZsRE7X07UzGpaUVjYyYoZ7HXInxlLM/dV1Oc8ZCjkainKFoFmlLXkyzp7bm1lNCqX5J79Nsbfucs08pOcco3Y76jnOqnBJ9knee1XMO5WjU1JZS+9wodIz6RbPANTEnJufeJ+c6X9c1vMz53Or5PiznnjynnJwylsZ0MmY4UU+JOTl/LAz1fB+Wd5/Vu5x75Zy+S8WMx7pkGdvHLcmYsT1uTcZM7rWqe8ClK5NlREZIHNR98z3j0mQRv78kivifxPYHX5Au4773ujAZ88v736fr9j12ujJZxi5xQ5GxMJ14Vv+v1R9PlrFT7JqMmYyxIvPCIMm5RpS4XtVVT11y2lrX8xmLQ869co6F9gyx0CzE41PXPpU6RxbjMeqXvs2pZzH2PwBAvxqcb3EAAAAAAAAAAACgZpLsAAAAAAAAAAAAoAOviwUAAAAAAAAAIGk2hmK2pldrd2sDQN3MPAAAAAAAAAAAANCBJDsAAAAAAAAAAADoQJIdAAAAAAAAAAAAdCDJDgAAAAAAAAAAADqQZAcAAAAAAAAAAAAdDHfaAMy/0Zjqur0RrWQZY3FbMmYqRpMxszGSKGNJz2VUWgVyf6cL7E/OPo3GdM/HsLIkEZNTxnDMJGNGYjYjpns5Q9HsuYxcrWh03T6TcQlL9W3OWMgZk6m2VppZ5Qz1PG5zpEdCfXLGVLqM9FyYmi9z2pFTT15Ms+e5vcQ+57SlXD2993+pfumXcVtKzvxTor15c2H//Pud1Jyb02+l9nmmwHVmNuOaV2Kf65Jzr5BzPqfvoaZrnNt7n39y7m1SMTn3Gzn3E6lxm3PPnbM/pZ4PUv2fc6+cc51J9ct1sWuyjKtiz2TM5K9XJWPit4nt69LPgbFuWTrmuu6b1+y/IlnEPiM3pOsp8QiRsctjMZmMGR6Z7Xk+nYjxZMxNsWMy5vOrz05EbJ8sI+d5ssT1LMcg3SuUmtubWfdqrYHptxwl5m0oLXUuNvroGQ+2hrHb332bcx9QZzn9wrgFAAaZJDsAAAAAAAAAAJKqf4DWnOdUk376R8XA4jFY/xQSAAAAAAAAAAAAaiTJDgAAAAAAAAAAADqQZAcAAAAAAAAAAAAdSLIDAAAAAAAAAACADiTZAQAAAAAAAAAAQAeS7AAAAAAAAAAAAKCD4U4bgPk3HDNdt4/GVJF6mhn5trMx0nX7VIwmy5jOiEmVM5sxbeW0pZWxz6n25uzPZIwlY0YSx3lJTCfLyBkLOTFLEjGptt4RM9vz2K4MRavnMnKkxkIrGkXOoZmMsZuqK2f857Q31ZacMnLOoZx+iQJtKSFnf1Jjsk5D0aylnkahfS7Rd3Xtc466xkLOuMwrp/fzqMQ5n9OOvHkuZ84dKVBGmTk3VVfeXFnP+ZwztnPuBYYT9wIl7klyysmpJ9XW3H1eaPfkqXPojnKW9Lw/OedQzvyfuv8sdZxT/XtV7JEs49JL75uMic+mQ+LnFyYCfhZF/PsxXTd/9fAnJIv4uyd/IBmz/ZfSTdk9FfDAdBm/if2TMbMXLeu6/fc775ss46cHHJKM+fLqryRjVsSeUYcS83/OOZ9zPtd1/58jtU+l7gmbfbTPqf4vdU9e6j53semnZ9KFps7zsJE4j+pqS6odQD3nWT/dBwBsjWr+mu85bL7rh7vqE5/4xHw3YWA89KEPjXvc4x7RTyTZAQAAAAAAAAAAbEPHHntsbLfddvPdjIHwkY98RJIdAAAAAAAAAADAYnT77bfPdxP62nZ9mogoyQ4AAAAAAAAAAGARJ5H1g9v7OAFRkh0AAAAAAAAAAMAiTySbT9v1efLh0Hw3AAAAAAAAAAAAAPqVlewAAAAAAAAAAADmQb+v4LYt3T5Aq/pJsgMAAAAAAAAAIKkVQ9GMxry3ARaSQUo0W8wk2QEAAAAAAAAAANS4el2VXFf9921ve1s861nPisXm9ttvj/33339jX/Q7SXbQx0ZiNrF9JlnGULSSMY2MmGbiXwPMxkiyjJmMKWcqRrtun4yxZBmTsSwZMx1LkjEziX2azdqfJT3HNDL2eTgxVnLHy5KY7rp9NKaSZeTELClQTqnxnzrPhhJ9Uue/ukmdhzll5IztEmXklpOaO3LmjVbGv5bKKSddT6n+H+55f0q1JWdMpetp9M3YztvnxjY/hneU0+if82wmcc43M9oynW7L7EyiXzLqiemMc7UZvcekLw/lpHY75x98Lsl4sFzS/bo4PJK+Vxgdy7iGj/R+DS91P5G6zufc45aSmhdS97ilYqZn0mXMZJxnsxnnfKvV+zVkaKhVZlwu7X3MDWfcW6aeM27+7d2SZcS30iHxo/UZQT+LWvzuh103f/O6I5NF/N1TP5CMeeL5GW1JPOZNH5wu4rLYPx30q8T2NekiPvDL9PG5b+yXjNktru26fVlMFnkmKqHE9wqVai2EOu5P6+qXQVvBoUT/MwjHeWGN/0Ez3yu+lG5Hw7wBA3EO9cvcAwB0ttNOO8W+++47380gwRqaAAAAAAAAAAAA0IEkOwAAAAAAAAAAAOhAkh0AAAAAAAAAAAB0IMkOAAAAAAAAAAAAOpBkBwAAAAAAAAAAAB0Md9oAAAAAAAAAAAAbNKPR/pnvNsAg22677ea7CX1nuwHoEyvZAQAAAAAAAAAAQAdWsgMAAAAAAAAAANiG9tlnny2u2LZixYpYrPYZoD6RZAcDbChayZiRmM2ImSnQmslkRDNj8cypGO26fSyjnqmYSMZMxljPMeszykjtT2UmMRXPxEiRenLGy1A0ex5PwxnjaTSmM2Kmum5fktieU0ZOTE4ZOf2S0/+punLKqEsr43zOOedbieW8c+pJnUM59eSUkbM/sxnnayqmVD0l+mU2o4ycelLtzTvOZfY5dR7l1NMocC7m7HMpQ0O9t3dkSXpuH2p0v4ZkGY8iGo3u+zyU2F4ZHpkpMv8vifXb/JqYE1OqnuEC95Yl7knKXUPS5/x0LOn5vrHUvUKqb6cyxm1rpFHkXEwdo5x7wpx+ybn/X5aIySkjZ2ynjvPl+6b3+bp77Z2MiZVL0zFroibd93loJN1vGVNLdTKmre2+ecn16SL22vuqZMzv779v1+1n/PjUdD27pndoIuNEWxMre57ncub/nDm3xP1RiXuofpLT//20z3Xef9Lf6hoLg/QdRj+1ddCUeE1b9bI5YNtyngFA/7j88svnuwl95/IB6hPfrgAAAAAAAAAAAEAHkuwAAAAAAAAAAACgA0l2AAAAAAAAAAAA0MFwpw0AAAAAAAAAALBBM4ZiNhrz3gaAupl5AAAAAAAAAAAAoANJdgAAAAAAAAAAANCBJDsAAAAAAAAAAADoYLjTBoBNDUWrp+25E85IzHbdviwmk2VMxWgyJqec9bEksX1ZsozJGOs5Jmd/phJtrczGSDJmJnGUcvYnZyw0ssbLTE9jpTIaU8mYJTHdcxl59fReTk49Of0ykujb4YwycvYn5ziXGE/9pFXg3y80M8poRaNIW0q0N6eM1D6V2p9mbfucbm8/GWo0E9sz5u2RVs/na2ruyZ1/UteHymiBub3EvJ0Tk1fGdDpmpns5Q82MY9h9qLRlDJdoJk6zVsYpNDuSvnOcaoz2fH+Uc5+Vdz+3rJb7udT8kzPH5Vxbh6LZN+fZ8liXETPRdftYM33vPzyTnn8mlo533X557Jcs49yHPTQZ87U9npqMifce0337b38eRTz0vl03H73Dp9NlvDsd8ukbo2fHfCwd85wTP5OM+a8rP951+wN33bXIeZYzt6fO+ZmMZ7wcOc8QJe7LSzwf9FM9C1GJe2UYxPFUqq2D9h1Gv2gWesZuZNzDDtI+9dP+AAAAdxicJ10AAAAAAAAAAAComSQ7AAAAAAAAAAAA6MDrYgEAAAAAAAAASGrFcDTnOdWkagNA3axkBwAAAAAAAAAAAB1IsgMAAAAAAAAAAIAOrKEJAAAAAAAAAACwwLVarVizZk1MTU3F9PR03H777bXVvc8++8Qgk2QHAAAAAAAAAACwQMzOzsb5558f5513Xvz0pz+NSy65JK644oq45ZZbak2s22C77bZrt2mQSbIDAAAAAAAAAAAYcOeee27867/+a5x++ulx6623bvx8PhLrFhpJdjDAWjFUJKaZEZMyFK3aYlKGI539PBpTyZixGOm6fSomk2VMxWgyZjLGEtuX9VzGHW1ZkoyZTrQ3Z39mMi4tsxkxt2XsU0ojmj2PuZFC46nEuBzLGHNLMtqSqidnf/Jipnsup9T5PBwzPR/nVBm5c9hIopy8uTI9tnP2qZGoK6eenPam62kV6f9GM6PvWt1jhqcz9ifjUrVdavindycvZn2BcnLKSJ9m6XJy6smJua2mtpTq/9RYyLn16f32qNzTYfp2IoaXJgKWZlQzmp7Dlo0nYpZNpCsaT4fktDd5i9TIKKP3W/K8sVLX/DNR6HxeWyBmTZm+WzLefad2OODCZBn3PzIds+MBNyZjPv2G/9M94LP3T5aRcZmPsRf+75dwW/Ls5ueSZfzkW1GLc7+fjrn55e9Lxjzm4Xfvuv3COChZxi2xQ5HnptQ9VCtjcmnW9BxeSmqfF2tbBknO91CwUJUY//00Jw+aZtZNd9TyfWM/7U9d7QUAoD+S617+8pfHBRdc0DGprlpNbj7cvkAS/CTZAQAAAAAAAACQtYBLXQnu3doA3GFmZiZOOOGE+MAHPtBOZtuQ0NYtoa7OpLft5imxb1uQZAcAAAAAAAAAADBAbr755jjqqKPaq9htKbluoawg1y8k2QEAAAAAAAAAAAyIycnJeNKTnhT/9V//NSe5rp9eE7vQSLIDAAAAAAAAAAAYEC95yUvaCXadVq7bPLHOqna9k2QHAAAAAAAAAAAwAL7zne/EySef3HH1us0/X7JkSRx44IFx0EEHxQEHHBArVqyI5cuXx/j4uFXutoIkOwAAAAAAAAAAgAHw+te/vuvqddVn1f8/7WlPi+c85znt18pWCXX0RpIdAAAAAAAAAABAn7vkkkviu9/9bjuJbvMEuw2/P/jBD473v//9cdhhh81jSxceSXYAAAAAAAAAAAB97vTTT7/TZxsS7Kr/Pv7xj49TTjklxsbG5qV9C5kkO+hjrRhKbG8ky5gp1pZWz2UMZZSRiskpYzhjr3NilsR01+1jMZksYyqWJGOWx0SijNFkGbdF+gI5mREznagrp4ycmJx9SvXdTIwUqaeZOM9KaRQY/yNZY3s2GTOSiBmNqWQZOTGpcyinnJx6lsZtGTHTtezz0ox5YbRAW5ZkxLQK7FPOXJkaT+16mt3rWbI+Xcbw+mRIddKnpcrJqee2muoptc8TNdWTKid9ekTGcMq7uUlNPzm3Nc2oR/p2rjrReo9JXxKrm5u0ZQVilmaUMV5TPSX6Nuc45txulBiXOedq+vJcZi4sNZ+uzYhZk9i+rtDc0uq9rcMZMSvH00FjK7tP7pMrVxUZC8MjORNzooyox3fOOCMZc/+MOeyAid903T45np4sr8ro3DWxIhmTeuZJfWeQq1Q5/fJctRjbstCUGpM53yEttnOI/lfXeKrr/FiImlkPcQurvY3aHpAXlkEbK3UxnmBhqP6Oer7nuZy/J4eF6nvf+96c3ze8Iray//77xxe/+MUYHc35SwG2lm8AAAAAAAAAAAAABuB1sZsm1lU2rGL3z//8zxLstiFJdgAAAAAAAAAAAH3ummuu2fj/mybb7bLLLvHEJz5xnlq1OEiyAwAAAAAAAAAA6HMTExNbXMXu8Y9//Ly1abGQZAcAAAAAAAAAANDnxsbGtvj5fvvtV3tbFhtJdgAAAAAAAAAAAH1u1apVW/x8t912q70ti40kOwAAAAAAAAAAgD53t7vdrf2K2M1NTk7OS3sWk+H5bgAAAAAAAAAAAP1vNoZiNhrz3gZYrA4++OD40Y9+dKfPr7322nlpz2Ji5gEAAAAAAAAAAOhzD3rQg7b4+ZVXXll7WxYbK9lBH2sm82DTp/BQoVzaoWh13d7KqGc4ZpIxjUQ9wzEbJQxFs+eYnDJy9rmV+JceY5Fe1nU81iVjpmK055jJGCtST0456xMxpdoyFUt6LmMmRpIx07G053M+5zyr43zPOVdzx3/qPBqN6WQZIxn1jCTmjtGYSpaxJCMmVU9OOTltKdXeZYn5Jaf/s9rSSOzzeEY942X2ebSm/k/13UgzPW6XrE+Pp+F0MdUk1dv2SvqSV01SvZdRSuofUeZMpyNlYm7vfpmJyWXp+7mpRu/X1vWJ690dZSzr+fqc05aca+tsxn1uqpz0vXTetTV1r5Z331jm2pqaf3LulXPmsJz7zxLXs5x6Uteqyor1a7tuXzKRLCJrLrx9vPv236zYI1nGd+NhyZjP3/isdGPelTinf35puoyMvl372/t33f7+k/4qWcbL/+KfkzFD/5oMibPPOKPr9vsfmC4jtk+HDK/vvn3F+JpkGStiRZH5Z12M9/wckqM5z6sPlJYzn+bImbtLHOdS7R0kqTFXou/rVKq9dT3zw2Ieb4M2v/SLQbtXaNT0BcSg9QsAsHA85SlPib/+67/e+Pt2223Xfn3s2WefPa/tWgwW55MUAAAAAAAAAADAANlrr73iiCOOaCfWbeq6666L73//+/PWrsVAkh0AAAAAAAAAAMAAOOGEE7b4+b/8y7/U3pbFRJIdAAAAAAAAAADAAHja054WD3rQg+70ytjPfOYz8YMf/GBe27aQSbIDAAAAAAAAAAAYECeffHIsWbJkzmdVot1xxx0XN99887y1ayGTZAcAAAAAAAAAQFIrhqM5zz9VG2CxO/jgg+Md73hHO7Fuw2p2lYsuuiie9KQnxW233TbPLVx4JNkBAAAAAAAAAAAMkL/5m7+JV7ziFXMS7ar/v+CCC+IhD3lI/PznP5/vJi4okuwAAAAAAAAAAAAGzNve9rZ45StfeadEuyrB7rDDDos3vOENcf311893MxcEa2jCAtfKyKWdiZFkTCNaiXqayTKaGW0ZidltXkZlKKOcocQ+D2Xsc6rfcmJGYiZZxpKM/RmL9cmY2cRlYSbjsjEVo7XETMZYsoycmPWJmJy25tQzFUuSMbclypnNOFdz2js7072cmen0cW41Gxkx6XHZag1Ovv/QUPp8HmrkxHSfOxpZZaRjhkdmep7ncuafVBk55ZQoI7ecVEzOvJ1XT+IakT6FIsajFq2MxuTcT6Su0alrTO49Sc61aDqWdt0+1cyY2yfSc/vs+vTcHtcn2juRLqJIzGRGGelbhbxyUqfrdEYZ6dusamDWI+dSlRoKOef80gL15JQx1kdtyZnnlqfv7cdWdj8BxndKn0TDGdeZ1D3frZfsmiwjVqdD4lu/yQg6P2rx0+7/0vWcvzsmWcToe6eSMftMPiUZc/eDo3e7pUNu277R8zUx534iZ8ylnm3zrs85E1DUVk6/yDlGqf4tce+ZU09OW0tJtTdnzNVloY3J3PGS0k/HiG33fJbznST9fY6UON9ZXNcIAICUt771rfGABzwg/u///b/t18RuSLSbnp6Ok046qf1a2T/5kz+Jo446qr3C3Z577jnfTR5IkuwAAAAAAAAAAAAG1J/+6Z/GAx/4wPjLv/zL+O53v9tOtKtUyXZTU1Px6U9/uv1T2WOPPWKvvfaKHXbYof0zOppenKBXVXs++tGPxiCTZAcAAAAAAAAAADDA7n3ve8c555wTf//3fx//9E//1E5s2zTZboOrrroqrr766tradfvtt0uyu6saDUs15/rIRz4Sxx133Hw3AwAAAAAAAAAA6FOnnXZavPvd745zzz134ytjK5sm222wadIdfZxk50Dl2XyAAwAAAAAAAADMl2YMRTMa894G4H/96le/ihe/+MVx9tlnbzEva/Pft5R0ty3dvkDyxObtdbESyBbHAAMAAAAAAAAAAMr7yle+Esccc0ysXbt2zsp13fKO6sxJ2m4B5YfNW5JdRSLZwh9gAAAAAAAAAABAWZ/73Ofiz/7sz6LZbM7JN0rlY8lLGsAkOwAAAAAAAAAAAPKdd9558bznPa+dYNctuU5C3QJNslvMB9aqfgAAAAAAAAAAQDfT09Nx7LHHxtTUVMcEu01zsDbfNjo6GsuXL4/x8fFFnas10El2Es1g6zRjKBnTiFYyppVRTr+0ZSirjEYyZijuWC61m5GYTZSR3udWRntTbcnpt1Rb75COGY2pnsdKMyYyWjKSEdP9EjUVo8kycmLWx5Ku26czypiMZRkxYz3HTCXaml3PSKKekTJ9O70+o5zJ7jGtjDJiOuPGbyZVRrqIVk5Mqp5KavpJT095Mf3UllZN9ZSIKdFvlekC9UwXilnf4/bKZIF61hUoI3efkwXl7NANGTFrM2JSdd1WoIyccqYLDe7FKH1vGclrdMb1LOM6H8nrfE496XuFvHKWFdif5RkxS5MRk2Orum8f7749u7mpeWzNzRmFfDUWlF99OhnykmeuTMY86HmvTsY88iFnd92+T1yRLGM445kodT+9NtL7M5PxvJPz3FqXEt8J5JSR9zzfLPDsW0bqWbxEv5WS873BIMnp28YivG9pZn3f1ftY6KexvRjlfGeZI3WdKVUP/X+elZgX6H+L8boIAIvdu9/97rj00ku3mGC3+Wf3ve994+ijj45DDz007nOf+8Q97nGPGB7uq3SxgTHvvVYd3OrAVv998pOf3D6oi9Gb3vSmjX0BAAAAAAAAAACwqVarFe9///uTCXZHHXVUvOUtb4mDDjpo3tq60Mx7kt2mqgN83HHHxWJNsgMAAAAAAAAA6FfVqrk5Ky1v6zbAYvXVr341rr766jkLeW2aXLd06dL4zGc+087BYgEn2QEAAAAAAAAAAHBn3/72t+f8vmmCXaPRiNWrV8ejHvWoeWrdwjY03w0AAAAAAAAAAACguwsuuOBOn1UJdlWy3V/+5V9KsNuGJNkBAAAAAAAAAAD0ud/+9rcbV6/b8N/K0NBQvOENb5jHli18kuwAAAAAAAAAAAD63M0337zFVez+8A//MHbZZZd5a9diIMkOAAAAAAAAAACgz61fv36Lnx9++OG1t2WxkWQHAAAAAAAAAADQ51asWLHFz3fdddfa27LYDM9n5Vt6R/Bip08orTlgubSp9jailSyjlbHPQ1nlNBJlNJNljMRsRlu6t7eV0dactuT0XapfhjP2J+fCMhrTPR/H8ZhIljETIz3XMxVLkmXMZtQzFaPJmPWJutbHsiL1TMZYz/ucKqMds7T3mKz9aab7ZXKiez2z69P7HJMZozs9LKsDmagno4yZjJjJmtqyvo/qyen/yQL1TBZoS3oabM8uabdlxKxLbF+bUcbaAm1ZV6ie9DUPymoWmBhyJo5+0v0++A6pa2f6Gh6xPCNmy18YzTG5fWJ7RhkZ9z/peeznsdicccbqjKhjkhE/OuiIZMzkYd3v5w6KC5Nl7BLX9/yskvO8OZPxVJRzz52qq5lxrua0N/XsO2hynvfTT3BR5Bm7n+S0N/WdTM53D/0kZ/wPkkah/k/NHTnnUCkL7Rj1k0E7X+nv86zOeYFtM7eXuoYAAP1h1apVccstt9zp85UrV85LexaTeUuyq94JzFz6BAAAAAAAAADoV9U/0Jmd53+wNWgLzUBJBx54YFx++eV3WrzrhhtumLc2LRbzkmT3rW99a4uf3+te94rFSp8AAAAAAAAAAACd3Pe+940zzzzzTp9fe+2189KexWRekuwe/vCHz0e1fU2fAAAAAAAAAAAAnTzqUY+K9773vXf6/L//+7/npT2LiTU0AQAAAAAAAAAA+tyjH/3oWLZs2cbfq9fG3n777XH++efHzTffPK9tW+gk2QEAAAAAAAAAAPS5pUuXxnOf+9x2Yt2mms1mfOlLX5q3di0GkuwAAAAAAAAAAAAGwMte9rJoNBp3Ws3ujW98Y6xfv35e27aQSbIDAAAAAAAAAAAYAAcccECccMIJd1rN7qqrroqTTjpp3tq10EmyAwAAAAAAAAAgqRmNaMbwPP/87wpesFi96U1vivvf//53Ws3ubW97W3ziE5+Y17YtVMPz3QBgMDQHKCc3p62NaCVjWolyhrLKSN/gDUWz57YOx2xGW1q1tGWoUMxwzESvlsRUz2WMZxzD1FipzGRcclPjZTajjKkY7bktOWXkxExnxEzGWM/1TDa6l9EuZ+WS7mWszCijwP60Y5rLum+fSJcxu777/rSty7jNm0hsz1lNOlVGuy0FylhfoJ6cuupqS1Y9Gcdw3cqMglbW1Lm3JbZPZ5QxmREzVSAmpy3dr4n55aSkr+H1Pdo1aorJKSM956bLySljqI/asqRAzHChegqMp5zDPJZ1M9b7NDdeqFsmEhX9ao90GdPfyqjomugXZ5yxukApV6dD/ivddxft/sCu21t7pc/nveN3yZgVsabr9tGM61DOc1POc+tMjPT8HJLzTJpTTgk59eQ8K5aQ83zWSLa392fWO+qpZ59LtCVn3Ka+Vyglry29f/dTSomxXaqt1V+H9qrUX2jWdc4PkrrGJLC49FMiSonrEABwh9HR0TjjjDPi8MMPj2uuuWZjol2r1Yrjjz++/d9jjz12vpu5oHhiAwAAAAAAAAAAGCB77bVXnH322bHvvvtufHVslWg3OzsbL3jBC+JZz3pW3HTTTfPdzAVDkh0AAAAAAAAAAMCAOfDAA+P888+PI444Yk6iXfX/X/jCF2L//fePl770pfE///M/893Uged1sQAAAAAAAAAAAAPgiiuuuNNnn/jEJ+Ltb397fOQjH2kn2W1ItFuzZk38v//3/9o/9773veMhD3lI+xWze++9d+ywww7tn+rVs3XYZ599YpBJsgMAAAAAAAAAABgA++23XzuJrpNNV7Tb9PeLL744fvnLX8bHPvaxqNt2//9rbAeZJDsAAAAAAAAAAIABsSFxLhWzYVW7Db/n/Dm2TJIdAAAAAAAAAABJrWhEMxrz3gZY7DqtZLd5Et2mv3db/W5bun2BJPZJsgMAAAAAAAAAABggW5u8Nh/JbtvNU2LftrCokuzWr18f//M//xNXXHFFXH/99XHrrbfG1NRUTE9P1zqQTjzxxNrqgn7SjKFYSO1tRCtZRitjn4cS5eTUMxMjyZiRmOm5LantleGMenL2aSjRdzltGYpmz23Ja2s6ZiwZkTdeSpxnqX/dM5txe5BTz2zGuEzVlTO2p2JJMiZVzlSMJsuYzojJKWem0X2f169Mj5aplRlt2XW0577L2Z8SMdMzGWVMpmNmJzLOtMnEjfz6dBExnRGTKqeuenLKmV6aLmMmI6ZZYH/S03Y1ifUup54cJf6x5FCheho1lJHb3iUF6llSoC2l9jknZqSmfU6Vk75s1tf/GWUMjacnsbHlk8mY8ZF13cuIySL3yrcl7uiuvubuyTLizEemYz5/WzomTo1enXHG6qhHxsRxQ0Yxv+6++fKd90uXkXE52znRmPGYSJYxGlOx0J7DS6wQkPN8VuIZI+e5KuecTxsp8qyYkvNMWpectpQYcyX6LbctpeqqQ11tzTmHqnVL6jDfq6PMh34akyW+p2JhKPEdNwAALAQLOsluYmIivvKVr8TXvva1OO+88+JXv/pVXyxBKMkOAAAAAAAAAAC4qxbSKnGDYEEm2V188cXxnve8Jz7zmc/E5OQd/2K9H5LrKgY4AAAAAAAAAABwV/VLHtRisqCS7NasWRMve9nL4mMf+1i0Wq05A6ofktsMcAAAAAAAAAAA4K6q8qKo34JJsvvhD38YT3/60+Oqq67amMy2pcS6+Up064ckPwAAAAAAAAAAYHA973nPm+8mLEoLIsnurLPOiqOPPjomJibulNBm9TgAAAAAAAAAgN41Yyia0Zj3NgDUbeCT7H72s59tTLDrllxnJTkAAAAAAAAAAAAWVZLd9PR0/Nmf/dmcBLtuyXVWtQMAAAAAAAAAAGDRJNm9733vi4suumiLCXabf7Zq1ap40pOeFIceemgcdNBBccABB8SKFSti+fLlMT4+Pk97AAAAAAAAAAAAQD8b2CS7ZrMZ73rXu5IJdve///3jzW9+czzhCU+IkZGReWsvUEYzhmKhtbcRra7bW9FMljGUKOOOcoZ6Lmcooy2zGZeW4ZitpS0jGfW0CtSTI+cYDcdMz/UsyainLjljLl1Go0g9qXMxp56csZ1zzs/GSM/7M5PRllQ9OeXk9EtOW2YSbZkdySgj4z6utbL3/k+1NfcYpWJy+q3U+K+jjFLX6NQ1seScW6KMnGtEap9KXBNz2pJzTczZn5y2pPd5ppZ9zhlPJcZKZSSxTyX6LaecVDty21LiviVnzI3GVDJmaUwmY5bHusT2iSL7PBljXbdfsfs+yTLOfd5DkzHfOvxxyZh49zFdN5/xkddHGalr0YEZZdyt92oqicO4/oZVySJu3GvHnsdCzjV8LNYnY0qcr6XmsFL3AiWk7n/yngPTcp680v3b+/NbnUrdZ5WQOo4598Glxv+gfc9Uh36aWxqFvpMpoZl1sVpYSo0FBv/6XKK9xhMAAAvBwCbZnXXWWfH73/++nVC3IcFu0+S66v/f8Y53xAknnDDnlbEAAAAAAAAAAADzZUNuE4NjsP4pzCbOPPPMroPw5JNPjpe97GUGJAAAAAAAAAAA0Dd22223OO644+JLX/pS3HbbbfPdHBZykt2PfvSjOb9vWNGu+u+f/MmfxPOf//x5axsAAAAAAAAAAMCW3HDDDfHv//7v7RynnXfeOZ785CfHRz7ykfZbPelPA5tkd9lll3Vcpa56TSwAAAAAAAAAAOW0ohHNef6p2gALRbWg2Pr16+OrX/1qvPCFL4y99torDj/88PjHf/zHuPDCC+e7eSyEJLubb775TqvYVQ455JDYd99957FlAAAAAAAAAAAA3VU5TxvynqqfVqsVP/jBD+L1r399POABD4gDDjgg/v7v/z7OOeec9jbmz8Am2U1PT9/ps2rQPexhD5uX9gAAAAAAAAAAAOTasKjYhmS7TRPuqp9f//rX8c///M/xqEc9Knbdddf48z//8zjllFNi3bp18930RWdgk+xWrFixxc/vdre71d4WAAAAAAAAAACArVEl1VU2JNVt+GxLSXc33XRTfOpTn4pnP/vZscsuu8QTnvCE+NCHPhRXX331PO/F4jCwSXbbb7/9Fj9ftWpV7W0BAAAAAAAAAADIMT4+vsXEusqmK9ltum3ThLupqak488wz46/+6q9i7733jsMOOyxOOumk+O///u953a+FbDgG1D3ucY/4zW9+s3GAbXDjjTfOW5uAwdHsoxzjVqItQxltbUT63euzGW0ZimZie6tIW2ZiJBkzEjM9t2U2o55UOal25LYlJ6bEPudIlVOqnlJ9V0Jd9ZQ45wetnmY0Bqatddc1KGO71PnRKHANyYtpZrQlNbfPFqmnxHVxuFBbGs1EPTMZ9aSriUbGcNkuo5yknDJSbSnRjpx6cuoqUUZOzExNfVuqLbdlxExkxKwtUE9Ge3dY1r0xe9zzhmQZ93zIr5Ix4/dKv+bhRQeNdg/44z9MlhE/y4hZk9i+NF1E7J4Rs0P0bn06ZGJmeTJmbGSylutmzj3JcGJg5jx79ZOcfS7RvznTT6NA/+c81+a1pnc59wr99D1Iif1pFXgOyTmPBqnf+k1dz+F1PeOlnncWohLP+9x1i/G7LACAxabKb/rmN78Zp512Wpx++ulxzTXXbNy2eS7UlhLxNv288qMf/Sh+/OMfxxve8IbYZ5994qlPfWocddRR8fCHPzwaDff3JQzsnfEhhxyyxc+vvfba2tsCAAAAAAAAAACQY8mSJRtf93rVVVfFBRdcEK997Wvjfve7X8eV7CqdVrjbdNtvf/vbeN/73hePfexj26+V/bM/+7P47Gc/G2vXpv7FMgtyJbsjjjhii59ffPHFtbcFAAAAAAAAAGChm42hmJ3nVW+rNsBCU73utfp585vfHJdffnl7hbsvf/nL8d3vfjdmZ2eTK9l1Wv3ulltuif/8z/9s/4yMjLRXtqtWuat+qtfMkm9gZ54qm3PFihUbf9/w3uFqcK1bl361CgAAAAAAAAAAQD/Zb7/94iUveUn7dbLXXXdd/Md//Ec885nPjOXLl3dcya7T6nebbpueno6zzjor/vZv/7Zdx6GHHhpvetOb4ic/+ck87/FgGNgku9HR0fiTP/mTOVmZlZmZmfjKV74yb+0CAAAAAAAAAADo1fbbb7/xda833HBDfO1rX4sXvehFseeee85JrOv06thuyXg//elP4x/+4R/iwQ9+cOy7777x13/91/GNb3xj48p5LJAku0r1LuLh4blvvK0GwRvf+MZotVrz1i4AAAAAAAAAAIBSqte9HnnkkfH+978/rrjiivjhD38YJ554Yhx88MEdV7LrlnC36bbf/e538cEPfjAe//jHx8477xzPec5z4jOf+Uzceuut87jH/WWgk+z233//+Iu/+Is5A6FyySWXtAcUAAAAAAAAAADAQlO97rVaiKx63evll18e//Iv/xKPfvSj2wuWpRLuNl/9btNV7tasWROf//zn47nPfW7suuuu8ZjHPKZd9m9/+9tYzAY6ya7yzne+M+51r3tt/H3DQX/5y1/efo8wAAAAAAAAAADAQrXPPvtsfN3r9ddfH5/+9Kfbq9GtXLky69WxnbbNzMzEt771rfi7v/u79mJo1ap51ep51Sp6i83cd60OoLGxsfZ7hx/+8Ie3Mykr1cGenp6Oo48+OlavXt3eBlBas1CeciO6v966lVFPTsxQop6cfUq19Y62NKOEmcQlKqctOfs8EjNdt89mXCpz6smJSdVVqp6hxDEaidmeyyg1LhsZ9eTsc7qMdD2lxlyqnJy25CjRllL1lCijVL80mon+b2W0pZkTk2hHRrdtl7PLOTGtGsrIKaf7dKst27otZU6hcv1Sop462lFn/w9SPTnlTGWUsT4jZiIjZm1i+20ZZeSci8sS229KF7HT8lRjI6787VuSMQ884Ildt//k2YenG3PPdEhcmdg+nVHGWEbMrhkxKxPbG+kiWs30/enUyGj37RmDeyS6l5ErdT89nHHfnqPUfdbCM9J163DGxDGTKGNDVL9YaGMh5zkjdZ7lPDOV+n6oX5R4TqyzX0o8k+Z8f7EY5XwnU0Iz5yLOvCpxntH/6jrnAYB6VIl1VYJd9TM7OxvnnHNOnHbaaXH66afPWY1uw+p2G2xp5btNP6/8/Oc/j1/84hfxlre8JXbfffd46lOf2v6pVtCrXme7kC2Ip8cHPOAB8dWvfjWWL1++8bPqYE9MTLSXLHz1q1/dzqwEAAAAAAAAAOCuacVwNOf5p2oDkKd6dWyVAFe97vU3v/lN+9Wy1Stmq1fNdlrJrtJphbtNt1199dXx4Q9/OJ70pCfFzjvvHM985jPjk5/8ZNx8882xEC2IJLvK4YcfHt/85jdjjz32mHOQm81mvOMd74iDDjqoPWA2rHYHAAAAAAAAAACwWGz6utff/e538f73vz+OPPLI9ip0qYS722+/fU7C3aavlV27dm188YtfjOc973mx2267xSMf+ch473vfG7/+9a9joVgwSXaVBz/4we2My0c96lFzDnr1/5dddln7/cB77rlnPPnJT24vW1gl5V1yySVx3XXXWekOAAAAAAAAAABYFKocqhe96EXxta99LW644Yb47Gc/G3/2Z38W22+/fdZKdpUtJdxVr6j9zne+Ey972cvinve8Z9z//veP1772tfH9738/BtmCW0OzWn7wrLPOio9+9KPxqle9Km666aY5B7l6hWz1atnqZz5UbakGEwAAAAAAAAAAwHxbvnx5+3Wv1U/11tAqSe7LX/5y+6d6zewGmybbVba08t2mn1cuvPDCuOiii+Jtb3tbe5W7pzzlKfHUpz41HvOYx8To6GgMigW1kt2mHvGIR8QTn/jEOQdt88zJ+foBAAAAAAAAAADoN41GY+PrXqs3h/73f/93vPnNb47DDjusvT31WtlNP9982+9///s4+eST20l21UJqT3/60+Pf//3f48Ybb4x+t+BWsqve5XvCCSfE6aefvvFdwFtKtJsPEuwAAAAAAAAAAIBBcb/73a/9U73y9ZprrmnnZJ122mlx9tlnx9TUVHIlu83ztDZsq95GWpVT/VSJfdPT09HPFtRKdtWygtVBrZYqbLVaW1w5zup1AAAAAAAAAAAAW2f33XePv/iLv4gzzjgjbrjhhjjllFPi//yf/xM77rhj1kp2m2/b8Hn1itp+tyBWsqsyGZ/3vOfF5z73uTkHpCLBDQAAAAAAAACgd80YimY05r0NwPwbHx9vv+61+qkWQ/ve977XXhit+rn00ks3xnVa5W7TRLtBsCCS7KoEu89+9rPt/++09OAG8/WqWICFcBPYymjrUKH9aUQr0ZZ0JvtQoozKTOJSmGpHbj3V40bKdCzpun04Zmtpy3ShfR6OmWRMqn9L1ZMqp1FoPOW0pZXc5/Q5lDMuc5To/xJjrtHMKKOV0f/T6ZhGImS7nH8kkxOTGgqtQvXklDNdU1tSMenTo75+KXWcS7S3rnpylJlayrSlzvZGDeOlrvOszmOYOqfrmk9zYkqUkROTsT+rv3RGMmb3Q3dLxtw7Lu66fd2+48kyfrX8XsmY+G33+9NYU+g4L82IWZkq4/a+eSaaiZEi91Cpe7XZjK/1cuqpS84zUer5OOf5Oe8ZbqjAST9S5PkgPV5yJqgYqONMfyt1npV4bq3rO7M658qc68hik/OdDPNrvpMoBpWxDQAsNkNDQ/Gwhz2s/fOud70rLr744vZrYKuEuwsuuOBOiXWDaOCT7N7ylre0E+y6Jdd1ercvAAAAAAAAAAAA5dznPvdp/7zqVa+Ka6+9Nk4//fR2wt1ZZ50V69evb8cMWrLdQCfZXXbZZXHSSSd1fDXslj5fuXJl+yDe4x73iBUrVsTy5cvbyxcO2oEDAAAAAAAAAADoZ7vttlscf/zx7Z/Jyck488wz26vcnXHGGXH99dfHoBjoJLvXvva1MTU1tcX382762YMf/OB49rOfHUcffXTsv//+89RaAAAAAAAAAACAxWlsbCyOOuqo9k+V13XeeedtfK1svxvYJLsbbrghvvSlL91pBbpNV6+rVqur3vNbHRgAAAAAAAAAAID59qtf/Sruec97xmK23XbbxUMf+tD2zzve8Y7od0MxoL7whS/EzMxM+/83rFi36ep1hx12WFxwwQUS7AAAAAAAAAAAgL5xr3vdKx72sIfFxz72sVi3bt18N4eFnGR3/vnnz/l90xXtqnf5fuMb34gdd9xxHloGAAAAAAAAALDwtKIRzXn+qdoAC8G5554bxx9/fOy+++7x/Oc/P84555z5bhILMcnuxz/+8Z0+q1axq5Lt3vnOd8bKlSvnpV0AAAAAAAAAAAApVa7TxMREfOITn4hHPepRccABB8Rb3vKW+N3vfjffTWOhJNldf/31G1ev23QVuyq57jnPec48tgwAAAAAAAAAAKC7Kuep+qmS7aqfX//613HiiSfG3e9+9zjyyCPjP//zP2Nqamq+m0lEDMeAuvnmm7e4it3jHve4aDQsDQqwuWaBvOpq8eWUVk352yX2J2efWtEsUs9QRt+l2jITIxn1NHuuJ6eteTGjPbe3UagtwzFTSz05/Z8qZyTR1vy29N7ekZhNltEoUU8jXc9QI6OekQJtmcloSzOjnsRQyNid2C5n+kkPl0ieihltyZoKWwXKKFFPTjllpvZyfVeinjraUUqJ/SmlWVM5pcZKXfVEgfknZ35anxGztkDMbRll5LR3rPvm1T88I13GA9Ihy2MiGbNbXNd1+/7xm3RFO6VDrtl+j67b1924Kl3IZKGvnpbc3nVzY3wyXcTS6ahDzjNRTkyJZ56ce8KctuSUk66n9+/rcu63Sz0rziafv3ImjpGen1VyngNz2lLieT5vPA3W97Kpfco5P3L6ttS47BfNQv2yGPu2xHy6GNX1fSNbVr2UDwCAbWdDvtOmC4xtSLj75je/2f5ZtWpV/Omf/mkce+yxcdhhh81rexezgX0y6ZRIVy2bCAAAAAAAAAAA0O82JNVVP1ta3e6WW26JD33oQ3H44YfH/e53v3jPe94T113X/R/iUt7AJtmtWLFii5/vtttutbcFAAAAAAAAAACgF1tKtts04e6iiy6Kl7/85bH33nvH0572tDjttNOi2bT6cB0GNslu11133TioNrWlzwAAAAAAAAAAAPrJpol0Oavbbdg2MzMTp59+ejz96U+PPfbYI172spfFL37xi3nZh8ViYJPsDjrooC1+fu2119beFgAAAAAAAAAAgBz/+q//Gg95yEM6rlzXKeFuS6vbXX/99fHe9743Dj744DjssMPar5a99dZb52nPFq6BTbI75JBDtvj5NddcU3tbAAAAAAAAAAAWutkYitlozPPPwKa6wEbHH398fO9734v/+Z//iVe/+tWx1157dVy5bmteJ/ujH/0o/uqv/ip23333OOaYY+LMM8+sfd8WqoGdeZ74xCfO+X3DgDnnnHPmrU0AAAAAAAAAAAA5DjjggHjLW94Sl19+eTsh7jnPeU4sXbp0iyvXbc3rZNevXx+f/exn4wlPeELss88+ceKJJ8Zll102L/u4UAxskt0DHvCA2H///e/0eTXoLrzwwnlpEwAAAAAAAAAAwNaoEuQe85jHxKc//en2WzyrV76Wep3slVde2U7kO/DAA+PhD394/Pu//3vcdttt87Sng2tgk+wqL33pSzcOpM3fWwwAAAAAAAAAADBIVq5cGX/xF38R5557blxyySXxyle+MvbYY48ir5OtXlF73HHHxd3udrd4wQte0P6dPMMxwKqD/c53vrOdcVnZMCiqbM4Xv/jFca973Wu+mwiwoDQHOzd7i1qJfRoqtM+NaCVjZhPbh6KZLGMoo54Sbc2pJ6e99bWlVcv+NAasLcMxU6At6ZhGor2l6inRL0MjGfsz0ntb8vqtrvGf0W/N3ueWoVZGWwvUc0c53bc3ylQT2/U+zeWpq566FOr/vurbVoF6WjW1t662rM8oYyojZiIjZm2P2yvdL4ltq88+o3vAHhn1jEeRuX1FrOm6fbe4NlnGVIwmYxqJCfPmXdcly5iMZcmY2Znev54aHkndTUeMZgzMkZzBUJNWNHq+V0g97+SOuZxyStTTa5/UaTZGMqJyxtNIT/fsd9RSpi2pMVVqPHHXlDgPc5Q6hiW+Q8qZ53JiFuL3WYtNXXNLXecZbNDso3ubuqS+JwQA7uye97xnvPWtb41//Md/jG984xvxsY99LE477bT262ArmybabbpQ2ab/v/mrZCvr1q2Lj3/84+2fe9zjHvH85z8//vzP/zz23HPPGvdusAz0E8PY2Fh88IMfvNNqdjMzM3H88cfH1FTON/YAAAAAAAAAAAD9qUqSO/LII+Mzn/lM/P73v2/nS/3hH/5hkdfJXnrppfG6170u9ttvv3j84x8fn//852N6enqe9rR/DfRKdpUnPvGJ8fd///fxnve8Z84gOO+88+KZz3xmfOlLX4pGY/H9SxAAAAAAAAAAAObHZZddFt///vfbb2esEpZ22GGHuPe97x1HHHFELF26dN7aVeXU/PjHP46f/vSncd1117U/22233eLggw+OQw89dIuvIL2rbrzxxvYrT6u+mJiYiPHx8faqaQ996ENjp512KlbPYnyd7F/+5V+2f6rXyVar233yk5+Mq6++uuPKdRt0et1s9Xmz2Wyvllf9bL/99nHMMcfEscceGw960INq3b9+NfBJdpV3vetd7Unpc5/73JxEuzPOOKOdYVktbWg5QwAAAAAAAACAu67Vfvnz8Ly3oZ+deuqp8eY3v7mdyLYly5cvbycuveENb4idd965tnZVb4X853/+5/inf/qnuOqqq7YYs9dee8VLX/rS+Nu//dsYGRm5y3X97Gc/ixNPPDFWr14drVbrTturxbKe9KQntfvpAQ94wF2uh4h73ete8ba3vW3j62T/7d/+Lb785S9vfPvnXX2d7M033xwf+MAH2j/3ve9947jjjovnPve5tY7ZfjPQr4vdVLUc4gtf+MI5GZfV/3/zm9+M+9///nHyySdbyhAAAAAAAAAAgOKqpKYqCenoo4/umGBXWbduXbzvfe+Lgw46KL7zne/U0rbf/e537VeLvvzlL++YYFepFrh62cteFg95yEO6xnVTJfI9+MEPbid6bSnBrlKtmFZtr1ZI+3//7//dpXqYa2hoKB73uMfFZz/72fbrZN///vfHH/zBH2zV62Q3j9nw+S9+8Ys44YQT2gucPf3pT4/TTz+947FdyBZMkl11cKvsyQ996EOxbNmyjZ9VbrnllvYSiXvvvXf7HcI/+MEPYnZ2dp5bDAAAAAAAAADAoKsSjp797GfHpz71qTut2Hb3u989DjnkkFi1atWcbddff3084QlPiPPPP3+btq16JewjH/nI+MlPfjLn87GxsfYKZfe5z33u9PraH/3oR+0/c8MNN2xVXe95z3vaK+FtnpOz++67txPqqv9uqoqrVs37l3/5l63eLzqrxtqLXvSi+K//+q+46KKL2smVd7vb3baYTLepDdu3FHP77be3V0M87bTT4mlPe1o74e4Vr3hFXHzxxbFYDPTrYv/hH/5hi58fddRR8elPf/pOB7uaoN761re2f6oJ4oEPfGA78a5673X1Mzo6Wku7qyUxAQAAAAAAAAAYfO985zvbyUebqt7G+PrXvz722GOPjYl4VUyVhHbFFVe0P7vtttviWc96VnulsM2T8EqpXk172WWXbfy9ypepXi/6f//v/924iNXExET867/+a7zmNa+J9evXtz/71a9+1X5FaLXiXI7zzjuvnXS1qUc84hHx7ne/Ow499NCNn/3whz9sr5Z3zjnnbPysWiXt8MMPb6+8Rln3vve94+1vf3s7V+rrX/96fOxjH2uvRLe1r5Pd/PNrr722fWyrn8MOO6w9Vp7znOfEypUrY6Ha7vZNe2UAlzrcPKsy92Bv/nmdqmUvWbwuvPDCuN/97rfx93/8xVtir/vuOa9tgn7UiP5YXnaoUDtK7M9QNGtpb05bc+rJaW99bWnVsj+NAWvLcMwUaEs6ppFob6l6SvRL3v703pZy9ZQYcxn91iwwh2UsGz5UoJ47yum+vVHoErNdXbf1C+3xoT8u8WX7tlWgnlZN7a2rLXd8D9fdHd/hdDeREbO2x+2V7pfEttVnn9E94G4Z9eybDrl5/zu+2OzmV3FA1+2/jf2SZVwR+yRjfp/YqZtj+2QZk5Hen9mZ3v8N6PBI+o0FoxkDczQxMFPb74iZ7rmeynB036eRjIFb6j6rhLrqyVHXfWPqfjunnpwyctqSM17KPLf2z3EuoVXoRTDNAuWUassgHcNS3w2V6H8Wh7rOM9igGY1YbLp9T3jrb2+Nr/31Nzb+XiWbVKsrAf3399sv/sVxset9d5nXNl134fXxgfv9W9/MGTfeeGN7tbq1a//3i6gqoelVr3rVFuOr17D+0R/9UVx++eVzFmt605veVLxtZ555ZvsVohuMjIzEWWedFQ972MO2GF8lvj32sY9tr1i2wdlnn91e1S7loQ99aDvRboOnPOUpccopp8SSJUvuFDs9Pd1+7egZZ/zvd25VmzZNvGPbqd4IWi1e9vGPf7yd9FjZ0qp2m9uuQ8yGz6sEzup1yVVi52Me85hYaAZ6JbsNUnmCnZY6nI/8wvlK7AMYNHV9AZr6wrbUl2s55aS+yC7VJ6l9znmheokEujvKadXyhXqJJKMcdSXZ5SiRlFYqyatEGXUlOdaV8Fougbee5NuhAllpQ42M82wkBipRu5/+AnJQktf7zeAlsNczh+Uk1g7PJJJ/MpLWtstJxFtbIBFvXbqI1V9MJNBVUnlrOf/QeEWZ+8ZUEtfKWJMsY8e4see2pJLAKhMxnoyZGRmu5S8gc66bI8nEttkFdX1YrFo1/YX2bNbNTWrCTJeRk4g3U6AtOdezEs++/SSnrQstKafU/pQ4zpLjqFup+WmhzQsAQNo73vGOOQl2VbLYK1/5yo7x1Ws2Tz755DlJSO9973vbr03daaediratWklvU1XiX6cEu8rDH/7wdttPOumkjZ+97nWvi3PPPbdrPV/96lfnJNhV+/HRj350iwl2lerzf/u3f4uDDjqonaRY+c53vhPf+MY32kl+bFvbb799vPjFL27/VK+TrVa3q151/Pvf/769ffM3h3Za2Gy7zWImJyfjM5/5TPunerNolWz3vOc9r52EuhAsiDv9DQdu058t6fTu4Lp+AAAAAAAAAABYGKpXwFYJSpt64xvfmMwRefSjHx1//Md/vPH3Kknvc5/7XNG2/fznP4/vf//7G38fHx+Pl7/85ck/V73ytYrdoEqeu/jii7v+mSppcFN/9Vd/Fbvs0n3Fw1133bWd5NWtHLa9KtGxet3xlVdeGatXr26vMFiteLghv6pT3tPtm+RgbRqz4bPqlchvfvOb44ADDmivhPgf//EfMegWRJLdpgdu0yS6rf0z2/IHAAAAAAAAAGCQVavN98NPv6gS0K6//vqNv++///7xiEc8IuvPvuAFL5jz+6mnnlq0baeddtqc35/1rGfFihXpVy1UMc985jOz2zY1NRVf//rX53x23HHHZbVx87hqRbzqVbLU7/9j707A5KjKxXF/dM9kIWEJkCBhXwQMgly4oIIiyC4IeBFwQQFxAbwK6FVEUUBRRHDhr9cFURYFFa4IOJGroIJgFJFFlCAKEQIBJaxCgGSmO/+n2jvzm56kp2oyNdXLvO/z9JOp6upTX506dapm8vU5pVIpXve619Wm+H3kkUfi//v//r/YfvvtGw5mNlijbfrXJ9MAJ6PatbuOSLIDAAAAAAAAAIAizZ49u245meo060yHQ6dFvf7662PRokVjFttee+2V+bNDY0tGOGtkaNxbbLFFbLjhhpn2s9FGG8WLX/ziuhH9koQsmmvatGnxn//5n3HLLbfURkT8wAc+UBt5cHnJdFlmGO0UHZFkV/S0r6aKBQAAAAAAAAAY3+6444665Z122inzZ2fOnFlLMuuXjOA2d+7cXOJKkpzuvPPOFY5t5513rlv+wx/+0HAWx9HUwfL2NbQ8mmurrbaKc845pzad7NVXX91wOtmhOnHmz7ZPsit62ldTxgIAAAAAAAAAcPfdd9ctz5o1a0SfH7r90PJW1AMPPBDPPffcwPKUKVNigw02yPz5ZCS6lVdeeWA5GanuwQcfbKs6IF/lcjn233//2nSyDz/8cJx77rmx7bbbjqucqLZOsqtWq233qlQqza42AAAAAAAAAABG4fnnn4/58+fXrVt//fVHVMbQ7e+5555cYhtazkjjGklso93XWNUBY2eNNdaI973vfXHbbbfFJZdcElOnTh0XM312NTsAAAAAAAAAAABYEffee++IPzN9+vSYMWPGqPb72GOP1Y3glUyhOdIy11133brlRx99dFQxNSpnvfXWG3EZSWyDE94axTbafY1VHTB2nnzyybj00kvjwgsvrCXaJcbDaHaS7AAAAAAAAAAAaEsHHXTQiD9z6qmnxmmnnTaq/T777LN1y8n0qiMdySuZxnW4MvOKbeh+8oxttPsaqzogX9VqNa655ppaYl1PT08sWbJkXCTWDSbJDoBxrdLeM6evkGrKMZeiWli9lVP21ZfLXpJjGv107VnqJY9jLjKWPOoly/GUWuqYq21Tb3nJq+5aZz+jr/92U2R76SSt1FdmiSXLNuWiYiln2Wb4WCZNWpJaxsRVFqduM2X1RanbTFo0fLw935udWkZkmcGinPL+xPQilqySvk1vhj/VpLXLCZFe/1MjvW4XZzmoFBMj/Tw/H5NzqZci+tyuDE+oWfqNbP1C+9zzinoOKFI19aLPR190p2zRm6GUtDKStpteTm8OsWR5bsnjd9J2U87h9+xSDnVbpDxi6cS2AJD373hZVAp6rgHGj+RZr9l9S6s8+w5NBps0adKIy5g8eXIhSXZjGdto9zVWdUA+7rrrrlpi3SWXXBL/+Mc/ausGJ9f1J5aOh4Q7SXYAAAAAAAAAADACL7zwQt3yhAkTRlzGxIn1X3J8/vnno91iG+2+xqoOGN10sElS3UUXXbTc6WBXGjRiY6PkupGO6tgOJNkBAAAAAAAAANCWrrzyythss81G9Jnp06ePer9DR2xLps8cqcWLF496xLlmx5asf+6551Z4X2NVB4x8Otif/OQntVHrZs+evcx0sCsNSZpbXnLd8rYpl8ux1157xVFHHRXtTpIdAAAAAAAAAABtKUmw22qrrQrf79SpU4cd0S2LoaO2DS2zHWJL1g9OshvpvsaqDsg+HewFF1xQG7nu0UcfHfWodUv/b5sXv/jFtcS6t7/97TFz5szoBJLsAAAAAAAAAABgBIYmgyWJZkmC0UimyVy0aNGwZeYV29D95Blbsr4/OWtF9jVWdUD6dLDJqHW33357bol1U6dOjUMPPbSWXLfzzjtHp5FkBwAAAAAAAAAAI7DWWmvVEo36E4x6e3tryWZrr7125jIWLFhQtzxjxoxcYhtazkMPPTTiMrLGlqyfN2/eCu9rrOqAYqaDTeyyyy61xLpDDjkkVl555ehUkuwAAAAAAAAAAGAEJk+eHBtssEE88MADA+vmz58/oiS7ZPvBttxyy1xi22KLLeqWH3zwwRGXMfQzjWJL9vXb3/624TE1qw4Y2+lg11tvvTjiiCPiyCOPjE033TTGA0l2AAAAAAAAAAAwQklC2OAku7lz58YOO+yQ+fN33333MuXlYcMNN6wlAT7//PMDU7ImcSbrs0i2Taa/7TdlypRYf/31l7vt0JiTOhiJsaqD8WyspoOdOHFiHHTQQbVR6/bcc88RTY3cCSTZAQAAAAAAAACQqhLl2qvZMbSKbbfdNn76058OLM+ZM6c2ulcWjzzySNx///0Dy93d3TFr1qxc4kqSn7bZZpu4+eab62LLmmT361//um45KatRQlVSB4Ml+xmJofsaWh7Nnw52++23ryXWveUtb4nVV189xitJdgDQIipRivGmmsMxl6LaMnVbzhBLXw77KUUlh1Ky7Cf9eIqqt3Y7pqLOUavVbyedQ1pfcddzddTXfF7XYR7HnMfxJLpT7miLoje1jImxOHWbxd0TU7f55U0/GH4/L0r/NmXXkuV/W3Mk+iak7+f57smp2yyO9GNO052h/ifHv77FPJyp8eyw71dz+oN2V4Z4+6J72Pd7C/oTV5brOdt1VtT13Dr9T6fJq/2Ptu3/S2+mnmG012JvbrF0VpvMEkuW333T+pcsv9fmFUuryCvWVmovRWmn85yX8XieIaskFQaAsbP//vvHWWedNbB83XXX1RKTsozw9bOf/axuebfddoupU6fmGtvgJLtrr7023vzmN2f6bLLtYK9//esbbrvrrrvWRrpLRstL/OUvf8k8al6SZPjXv/51YHmVVVaplUd2f/rTn2rTwV566aW5Tge71lprxeGHH15Lrtt6663H8Ajax/j7TQsAAAAAAAAAAEZpp512qiUj9Zs3b15cf/31mT77rW99q275wAMPzDW2Aw44oG758ssvj2efHf5LlYlnnnmmtm3W2CZNmhR77bVX3bpvf/vbmWIcut0+++wTEyZMyPTZ8eyJJ56IL3/5y7UR5l72spfFl770pfjHP/5RS5DrT/Lsf/WvG5pgN3ibRPJ+qVSqJWf+8Ic/jIcffji+8IUvSLAbRJIdAAAAAAAAAACMUJKUdOSRR9atO/300xuOGNbv5z//edx44411I7gdeuihucaWTPG6ww47DCwnCXaf+9znUj+XbNM/Kl3iFa94Reo0tkcffXTd8n//93/HwoULh/1MMuraV7/61WHLoX462B//+Mdx8MEHx8yZM+OEE06I22+/fbmJdYmsiXXJa4sttqiNyPjggw/G1VdfHW94wxuiq8vkqEM1pUZ+9atfLXd9ctLWXnvtGI/UCQAAAAAAAABAeznppJPi61//+sAocTfccEMtYekjH/nIcrdfsGBBvPOd76xbd/zxx9eNiLc8Q6eg/eUvf5k6teonP/nJ2HfffQeWP/vZz8Yee+wRu+yyy3K37499sDPOOCPS7LfffrVkvN/+9re15ccff7yWMJeMiNbd3b3M9kuWLKm9n2zX79WvfnXsvffeqfsab8ZqOthVV101DjvssNp0sMm5o0VHsksu8mQu6aGv2bNnx3ilTgAAAAAAAAAA2kuSHPfRj360bt3JJ58cxx13XG3KzcEjkV155ZW1KWbvv//+gfXJqGQf/OAHxyS2ZPrVwVO59vb21hLZzj333HjuuecG1icj1yVTjibbJ9v0e93rXhe77757pn2dffbZtZH9+iWjriX7vu222+q2u/XWW2vre3p6BtaVy+VMo+yNF2M1HWwiyUW6+OKL45FHHolvfOMbEuxGoKlj+zXKrBzP1AkAAAAAAAAAQHuNZjdnzpy6xLGvfe1rcd5558WGG24Yq622Wvztb3+Lp556qu5zkydPjssuuyxWX331MYstSah65StfWdt/4oUXXqhNNZokAm6yySa1PJV58+bV1g+26aabxoUXXph5P6961avizDPPrNVFv+uvv76WKJYkEq6zzjq1pMMkuWuoJMFuvCd7JUmYyUBcSZ0n/ybJjsPlEI1k1LqkDR5xxBG1qY032mijMTuGTtfUJLuh2ZK0dp3cd9998bvf/S4eeuih2tCd06ZNiy233LKWZT1p0qRmhxeVSqWW8Tx37tzaEJlJhzN16tRYb7314iUveUkt1sFZ0wAAAAAAAABAdpUoRV+Umx5Dq0lyES6//PLa1Jvf//736/IYkgS25VlzzTXjf/7nf2LnnXce09jWXnvt2tSyBx54YPzhD38YWP/888/HXXfdtdzPbLvttnH11VfH9OnTR7SvD3/4w7VR6ZJEu+TY+yXJdYNH9euXbHvOOefUkv7Gq7GaDjZJ4HzDG95Qa5NZRyOkxUeyM1pb69dJMlzppz71qWWG8OyXJLIl2a6nnnpq6hzhYyHJtk6GHf3e9763TNb3YMl80smwl+9+97trQ5oCAAAAAAAAAOQhGZwoyVt44xvfGGeccUbccccdy91uypQptVHFkhyLGTNmFBJbMpJZMqhSMu1oMlXs8hLeEsmIc0nC2/HHHx8TJkxYoX0lU98mSV2nnHJKXHPNNbUR2paXlJjkbST1lEyHOh4l08Emo9b1t5PRJNYN3m7HHXesJda9+c1vruXJ0CFJdrS2xYsXx9FHHx2XXHLJsNs9++yz8ZWvfCV+8BfkR/EAANKySURBVIMf1LKsd9lll0LiSzris846K04//fRarGn++c9/xlVXXVW7sUmyA2ivb/+0i2oOdVeKZX/RaPdzVE45pr5oHaX4f9+qGi+ytDlotX6j1dp/Wt+R5XjyiCW/40kvpzt6h32/K0PvnuW+OXh6jUYmxyrDvj+xO/2Pgd3do78bZTmexTExdZve6M6wr9F/WzztHCYmxpJh358cz0VRba4vpU11ZfgTVx71VuTzRLv1hXnUS1HnqChFHU9fhn4j6V3SlHKIN0sfltb/5PX7Tis952aJJe0+kqVPyFJ3abHk8XvteP1dvSideI7yoF4AgFZy8MEH11733ntv3HzzzbFgwYLabIHJlLDJLHzJyHUrMlvgaGdETJLmkpHm/uu//qs2S2Ayql3/yGlJsl8yet12222XywyBSVnJ3/Yee+yxuOmmm2qj+S1atKiWYJhMQ5vUQTMGcWolSSJjkijXf15HMx1sMlrh4YcfXkuumzVr1pjGPZ5JsqNhAtthhx1WS0obOlTnBhtsMDBf+NNPPz3w3sKFC2PfffeN6667rjaf91hKpoJ961vfWhtudagktmQu7yQj95lnnokHHnggnnsunz/8AwAAAAAAAACk2WyzzWqvVpMk0e2www6111hLEukOOuigMd9PO1vRUeu6urpiv/32qyXWJf8m+TyMLUl2LFcy/erQBLtjjjkmPv7xj9eGB+1PxEu2SYYKnT9/fm1dksx26KGH1uaMTpLdxkoywt7gBLuk83jPe95TG1L13//93+s6mCTOv/zlL/HTn/40LrvsspabjhcAAAAAAAAAgPFnpNPBbrXVVrXEure97W0xffr0QmLkXyTZsYzHH388Pv3pT9etO/PMM+MjH/nIMtnNb3jDG2rzOb/qVa+K+++/v7b+oYceii984Qu1aVzHwne/+934zne+M7CcJP0l83hvs802y90+iXPLLbesvZLhNp988skxiQsAAAAAAAAAAPIc2S6ZavhNb3pTLbmuiBEIWb7RT6RMx/nc5z5Xm2a13y677BInnXRSw+3XXXfdOP/88+vWffGLX6wl6+Utma/7xBNPHFhORsu74YYbGibYLc+0adNyjwsAAAAAAAAAAFYksa7/1Z9cl/y8xx57xCWXXBKPPPJIfPWrX5Vg12QtNZLd1VdfXRsFjeZJpla94IIL6taddtppqVOs7r777vHqV786brzxxtpykqSXTM167LHH5hpfMsJekmjX7zOf+UxLzmEOAAAAAAAAAJ2mGl1RaXKqSRIDdIrBiXWJjTfeOI488sjaa/31129ydAzW9J6nv5Ek//74xz+uvcarRvMsF2nOnDmxcOHCgeVNNtkkdt1110yfPfrooweS7BJXXnllrkl2ixcvjosvvnhg+UUvelG85z3vya18AAAAAAAAAAAoMldo5ZVXjoMPPrg2HWzWHB3GYZJdqyWZjXezZ8+uW95zzz1TR7EbvO1g119/fSxatCimTJmSS2w/+tGP4oknnhhYTuabLpfLuZQNAAAAAAAAAABFecUrXlFLrDvssMNilVVWaXY4tFOSXdZkrk7UKgmGd9xxR93yTjvtlPmzM2fOjI022ijuv//+2vKSJUti7ty5uc0JPTQBcLfddsulXAAAAAAAAAAAKMrdd98dW2yxRbPDoF2T7Fol0Wy8X8SDzZo1a0SfT7bvT7LrLy+vJLtbbrmlbvllL3tZ7d9KpRI/+9nP4qKLLorbb789Hnrooeju7o7p06fHv/3bv8W+++5by/pNhtcEoPNUotTsEEhRbaFzVIrqsO9rTzB65ZTrLIu+KEYpKhm2qY76V+ssdZJtP6M/niyyxJvWt2fpT3/Sc1XqNhMj/fe4agw/wnlfhj99ZKn/tG2y3O96ozt1m8UxMXWbLMeUxzF3R++w70+MxaM+P1ktjgnDvt+VoefIo97yeq7J55offRlF9y+tsp+82mU7xZJlP72pfUI+0vrCckHtoOjrqIj7TJZ7eNo9Okud5NUXVnJo/0W1lyzHXFR7KvIcAQAAY0eCXftpqSQ7muv555+P+fPn161bf/31R1TG0O3vueeeXGJ7+umn4y9/+cvAcjJN7IYbbhjz5s2Lww8/PH7zm98s9zP33ntvXH755XHKKafEZz/72Xjb296WSzwAAAAAAAAAAMD40NQku/E8PWwr1s1jjz1WN5pgMhrcjBkzRlTGuuuuW7f86KOP5hJbkkw3OLZkLupkKtpkOtskmS7Nww8/HG9/+9vjrrvuqiXb5SU5voULF47oM0niHwAAAAAAAAAA0B6almRnatjW8+yzz9YtJ9OrjjTZb8qUKcOWuaKeeuqpuuUkrv33338gwS6J9S1veUvssssuseaaa8bjjz8eN9xwQ1x66aW1Efr6nXXWWbVEwPe97325xPXVr341Tj/99FzKAgAAAAAAAIBWVolSVKLc9BgAxkWSXbVabcZuSTE0IW7SpEkjLmPy5MnDlplXkt2TTz5ZeyW23377uOKKK2KDDTao2yaZGjaZJvbAAw+MO++8c2D9hz70odh7771j8803zyU2AAAAAAAAAACgc0nvZcALL7xQtzxhwoQRlzFx4sS65cGjyI1Go2S99dZbL6699tplEuz6bbTRRvHzn/88XvSiFw2sW7x4cZxzzjm5xAUAAAAAAAAAAHS2pk0XS+sZOnLdkiVLRlxGksA2XJkrqlE5Z599dkybNm3Yz6611lrx2c9+No488siBdd/5znfi3HPPXWbkvZE67rjj4pBDDhnRZ+6999446KCDRrVfAAAAAAAAAACgGJLsGDB16tRhR7bLYujIdUPLXFHLK2eNNdaIgw8+ONPnDzvssDj++OPj6aefHji23/3ud/Ga17xmVHHNmDGj9gIAAAAAAAAAgEYuvvji5a7feeedY9NNN43xqJ3qRJIdDRPZnnvuuVi6dGmstNJKmctYtGjRsGXmFVvila98ZXR3d2ceCW/HHXesTS3b7/e///2ok+wAAAAAAAAAACBNMgPj8nJwvvnNb7ZcQllRjmyjOpFkR920qknDTRLrEr29vfHoo4/G2muvnbmMBQsW1C3nNcrb8mLYfPPNR1TGFltsUZdklxwbALSaSpSaHcK4rt9yVAuLBTpVtaB+rFTQ9VqNcoZYKoX0/2l9VJa6z6/ehv9zwk96rk4tYWJk+9JUK9RtlvOcpa1kiaUvQ70U9byQ1l66oy+1jN7ojSL0ZfgTV5ZrNe08FtXHZZHX9ZxHH9Zu8mgLrSRbn9A16i2yXM3F9Oytpahnkiz7qeZwz8vSnvKLZfhrsZLp3jr6azUtjqzyuEfk17eP/rkRAAAYO/15OYmRDHzVyZa2QZ1IsmPA5MmTY4MNNogHHnhgYN38+fNHlGSXbD/YlltumUtsSXbqhAkTYsmSJQPrVl111RGVMXT7J598MpfYAAAAAAAAAGA8SL6UlMeXHUYbA7Sz/iSywYll491KbVAnvq7EsElxc+fOHdHn77777mHLW1HlcnmZkesWL148ojJeeOGFuuWVV145l9gAAAAAAAAAACCLVk4ka5albVAnkuyos+2229Ytz5kzJ/NnH3nkkbj//vsHlru7u2PWrFm5xbbddtvVLf/jH/8Y0eeHTg+75ppr5hIXAAAAAAAAAADQuSTZUWf//fevW77uuusyZ4v+7Gc/q1vebbfdYurUqbnFdsABB9Qt33rrrSP6/NDtt9hii1ziAgAAAAAAAAAAOpckO+rstNNOsdZaaw0sz5s3L66//vpMn/3Wt75Vt3zggQfmGts+++wTkyZNGli+8847469//Wumz951113LTGW766675hofAAAAAAAAAADQeSTZUadUKsWRRx5Zt+70009PHc3u5z//edx4440Dy6usskoceuihucY2ZcqUOPzww+vWnXHGGZk++8lPfrJu+TWveU3MmDEj1/gAAAAAAAAAAIDOI8mOZZx00kl107zecMMNcdZZZzXcfsGCBfHOd76zbt3xxx9fNyLe8qy00kp1rywj5p166ql1o9ldfPHF8e1vf3vYz3z1q1+Nyy67rG7dySefnLovAAAAAAAAAACArmYHQOtJkuM++tGP1l6Dk9Lmz58fp5xySsycObO2rlqtxtVXX11LqEve65e8/8EPfnBMYltvvfVqSYDJ6Hr9kgS/2267rbZ+/fXXH1ifxHTmmWfGN77xjboy3vzmN8fee+89JvEBAAAAAAAAAEBWF1xwQdx0003NDoMUkuxYriRhbc6cOdHT0zOw7mtf+1qcd955seGGG8Zqq60Wf/vb3+Kpp56q+9zkyZNro8atvvrqYxbbxz/+8bj11lsHYkumsv3v//7v2oh1G2+8cay55prx+OOPx7x585b57HbbbVc7BgCA5akY6BlaQjmqqdtUC7pes8VSjvHmmp6rh32/K8P56S3oTxJZ2kopw3kuKpYs2/RFdyH3s7R6KUUltYzu6M0llrR6yRJLWr39az+jbwvj8XkiS1/ZSrKcoyxtqoj7Q5Yy8oj1X/safdvNcsWnX4md90xS1H2mlEO8WY452zWURyzpbbuSw3WWpYwsseQhr2fcotocML60Un8JNFdflKKvyX8PS2KAdpfkuvT/m+TnJK/xXhetTs/DcpVKpbj88svjTW96U936SqVSS167/fbbl0mwS5LbfvKTn8TOO+88prGVy+X4n//5nzjiiCOWueiS2G655ZblJtgdcMABtalvB0+FCwAAAAAAAAAAzZLku4zXVzuRZEdDkyZNiu9973u1hLZtt9224XZTpkyJ4447LubOnRu77rprIbFNnDgxLrzwwrjmmmuGTepbaaWV4uUvf3n8+Mc/jquuukqCHQAAAAAAAAAALSPJbRmvr3ZiulhSHXzwwbXXvffeGzfffHMsWLAglixZUpsS9iUveUktyS1JyBupPDJS99lnn9oriek3v/lNPPDAA/HCCy/EtGnTYp111qnFNmPGjFHvBwAAAAAAAAAA8tZuI7qNV5LsyGyzzTarvVrRuuuuG2984xubHQYAAAAAAAAAADTUbiO48S+miwUAAAAAAAAAAIAGjGQHAAAAAAAAAAAwhjbYYAOj2GW0yiqrRKuRZAcAAAAAAAAAQKpqdEWlyakmSQzQju6///5mh8Ao6HkAAABoKZUopW5Tjuq4i6WaEkspQxxZjqenpyd1m67UWNL30xfdUYRqlFO3KUUlWkWWeNPaQpYy8pCl7WfZppqh/ruiN2WLLO0prYz0ukur+6zXYpZyGDvlnPrLPPqWoq7XPI4nL3lcza0kWz+XT9/RaddQ2jFnqbdyhuusksN1lkcZWePNg/sMjL28+oXxVi9F9YMAAGPBb1oAAAAAAAAAAADQgCQ7AAAAAAAAAAAAaECSHQAAAAAAAAAAADQgyQ4AAAAAAAAAAAAakGQHAAAAAAAAAAAADXQ1egMAAAAAAAAAAPpVohSVKDc9BoCi6XkAAAAAAAAAAACgAUl2AAAAAAAAAAAA0IDpYgEAAGg7aVNClKMaraKaYfqMZJKN0e8n/Xt01/RcnSGW0R9TNaf674vuUZeRpS2UWug7iFnOY1r7z1JGlm3yUMpU/6Pfpit6M5SRfi2mtd0s09Fku+arLXOOOk1e9ZbHfSRLe8mj/++06Zbyuoe0kiztKa3tZuk3skgrp8hrKK3N5dVXllOusyKnOstjX2nHAwAAwNhojb+cAAAAAAAAAAAAQAuSZAcAAAAAAAAAAAANSLIDAAAAAAAAAACABroavQEAAAAAAAAAAP2qUY5KlJseA0DR2jbJ7vzzz4+///3vcfTRR8c666zT7HAAAAAAAAAAAADoQG07XeyCBQviE5/4RGy44Ybxhje8Ia655ppYunRps8MCAAAAAAAAAACgg7Rtkl2/vr6+uPrqq2P//fePjTfeOD71qU/VEvAAAAAAAAAAAAAgxnuS3UorrVQbwS55zZ8/P0477bRast2BBx4Ys2fPNrodAAAAAAAAAAAAK6wrOkCSaNcvSapLRrfr6empvdZdd904+uija6/11luvqXECAACQj3JUmx1Cy0l+B05TLiSSiEqB3+nri+5h369maCulqBTSJvOql2rKmay22Xcqs9RdNYdz1G7S2mVaO2hHebTdUk73hzxiKbJfKEJRsfam9OuJ7ugtJJZyTn1PlrpLay9Z2mQe7T9LGXndZ9KOOUu9FRlvq6jk0P/n1bbHozzqv91oL82tl/HY5gAAWlVH/HbZP5Jdf8Ld4NHtHnroofjkJz9ZG93u9a9/ffz4xz+OatV/xgAAAAAAAAAAADBORrLrNzTRbvD6SqUSP/nJT2qvmTNnxjve8Y7a6HYbbLBBEyMGAAAAAAAAAGgPyYjDzR5ps51GBQc6R0f0PP1Jdf2Jdf2j2DUa3W7BggVxxhlnxKabbhqve93r4qqrrjK6HQAAAAAAAAAAAJ2TZPf+978/zjnnnNhyyy2Xm1DXb3nv9SfcJaPb/fSnP43/+I//iPXXXz8+/vGPxwMPPNC0YwIAAAAAAAAAAKC1tG2S3bRp0+IDH/hA3HXXXfGrX/0qDj/88Jg0adJAUt1IR7d75JFH4jOf+UxtdLt99tknfvSjH9WS8AAAAAAAAAAAABi/2jbJbrBXvepVcfHFF9emgT333HNj6623XuHR7ZJpY6+99tp44xvfWBvd7mMf+1j87W9/a9qxAQAAAAAAAAAA0DwdkWTXb/XVV4/3ve998Yc//CF+85vfxJFHHhkrr7zyCo9u9/e//z0++9nPxotf/OLYa6+94oc//GH09fU1+SgBAAAAAAAAAAAoSld0qJe//OW1VzKy3Xe/+904//zz4/bbb6+9NzTRbvC/jUa9+/nPf157TZ8+PY466qh45zvfWZtaFgAAgM5Vjmoh+6lGOXWbn/RcVVAsHfV9vNyOuZTSFrKcw7xiyUOloP2UolJI/Vdyqv/RxlHkOcpSt60kyzVSVP3mc82XCrnPFHWt5qWoeHujO3Wb7ugd9X4qObXJIvuOIuR1PGnXUZbnsCxtrqj6L+pe1EqxltvsXlTUMbdTW8iiqOMZj+0pC/UCANA62uuvNCtglVVWiWOPPTZuvfXWuOWWW+Jd73pXTJ06dYVHt3v00Ufjc5/7XGyxxRaxxx57xOWXX250OwAAAAAAAAAAgA7V8Ul2g22//fbxjW98Ix5++OE477zzYocddlhuQl2/5b3Xn3BXrVbjl7/8ZbzpTW+KddddN0466aS49957m3ZsAAAAAAAAAABjPcppX5NfnTZyLNAexlWSXb8pU6bUpnu9+eab44477qiNdLfqqquu8Oh2CxcujHPOOac2ut1rX/va+MEPfhC9vaOfjgAAAAAAAAAAAIDmGpdJdoNts8028d///d+10e2+/e1vx0477bTCo9slrxtuuCHe8pa31Ea3+9CHPhR/+ctfmnZsAAAAAAAAAAAAjM64T7LrN3ny5DjyyCPjpptuij/96U/x/ve/P6ZNm7bCo9s99thj8YUvfCFe8pKXxK677hrf+973YsmSJU0+SgAAAAAAAAAAAEZCkt1yzJo1K770pS/FggUL4uKLL45ddtml4Qh2QxPulje63Y033hiHH354bXS7D37wg/HnP/+5yUcIAAAAAAAAAABAFpLshjFx4sRactz1119fS4z7wAc+EGuuueaIp5PtX/f444/Xkve22mqrWuLeJZdcEosXL27a8QEAAAAAAAAAADA8SXYZbb755nHOOefURrdLpn597WtfW1s/OKFusLTR7X7961/H29/+9pg5c2Ytec/odgAAAAAAAAAAQCu48sor4/TTT48f//jH8fDDD8d419XsANpNd3d3HHbYYbXXvHnz4rzzzouLLroo/vGPfwwk0Q21vFHv+tc9+eSTce6559Zee+65Zy3hbq+99ir4qAAAAGimnp6eQr4lV8lQSjmqqdtUW+g7e2nHlOV4Sjkcc5Yyssijblvp/GSRpe7Sz3MlilCNciHtKWvbLUqWviNNqc3OUVHS2kKWdpDH+clad3mc57ziTdMb3anbdEfvsO/3ZSijKHndn1up/afFkldfmdbm8uu3s7T/0V9nrSTL8RR1j24leRxzp7WVLLQngPaR/O5QaXKqSR6/vwDp7rrrrlqSXX+u04wZM+Koo46Kz3zmMzEetddfXVvMJptsEp/+9Kfji1/8Ym0a2eWNaDeS0e2uvfba2HfffWPHHXeMn/zkJwUeCQAAAAAAAAAAQL3+vKZ//OMfcdZZZ8VJJ50U45EkuxV03333xcknnxzrrbdevPWtb40nnnhioFFlMXjbocl2v//97+P1r3997L777qaRBQAAAAAAAAAAmmLoQGLnnHNOnHrqqTHeSLIbgd7e3vjBD34Qe+yxR2yxxRbxuc99rpalmZZcN7ixDX41Gt2uf/0vf/nL2HbbbePzn/98YccIAAAAAAAAAADQb+mggcSSn88444zaqHbjSXMnym4Tf/nLX+K8886Liy++OB5//PFlGk+/oYl2ae8NTqhbXpnJ8pIlS+LDH/5w3HbbbfGd73wnSiV5kQAAAAAAAAAAQHGWDhpALPn5ox/9aEyePDne//7351L+r371q/jb3/5WG5Bs1qxZ0d3dHa1ExlYDSXLbJZdcEq95zWviJS95SXzxi1+Mxx57rOGoc0Onfh08/esaa6wRH/zgB+NPf/pTfPe7341dd9114HODP9Nv6D6Sn7///e/Hf/7nfzalLgAAAAAAAAAAgPFt6ZAR7U488cTawGV5uPHGG+Md73hHbLfddjF16tRasl0rkWQ3xNy5c+OEE06ImTNnxtvf/va46aablkl6Gy65bvD6nXbaqTb63IIFC+Lss8+uZVm+5S1viV/84he10fFOOumkmD59+nIT9/rL6S87+fkb3/hGXHvttU2pFwAAAAAAAAAAYHxaaaWV4oADDlgmn+m4446rzQ6ah/4cqt7e3vjjH/8YrUSSXUS88MILcdFFF8XOO+8cW2+9dXz5y1+OJ554YthR64Ym3fWvSzIpk8Zz55131hL03vrWt8aECROW2eemm24aZ555Zjz44IO1EfOS7MvhpqDt38dHPvKRwuoFAAAAAAAAAKBfJUpRiXKTX1JdoFkuu+yy2GuvverymarVahx99NG19/IwOG+qlYzrnidJhEumYF1nnXVqww3+9re/HTaBbrhR65IkuWSkuYcffji+8pWvxEtf+tJMMSTzB7/5zW+O2267LX70ox/FxhtvPLD/fv37Tdxxxx21OAEAAAAAAAAAAIoyYcKEuPLKK+M1r3lNXR5VpVKJt73tbXH11VdHp+qKcea5556LSy+9NL75zW/G73//+2WS2Boltw3Nkkzemzx5chx22GFxzDHHxI477jjq2A488MDYe++9473vfW9ccMEFAwl+Q82ePTte8YpXjHp/AAAAjL2enp5cyqlGedj3k+8Q5yHLN4HLUR32/eo4/E5fKx1zJ36bO63NZZF80z1NKYf9VHPaTyu1qTzqv92k97n5nMO0crKUkeX8ZOkX0u4jWdp2tvZfaZk+rDe6h32/O3pTy+hLKaNIWdpCWpvKox/MSyvF0kqy3M/aKd5kHBqaVy/t1p4AAGgNkyZNqv3dOxnR7je/+c3AYGXJFK9JHlWShJfkP3WacZNkd+utt8Z5550X3//+9+PZZ5/NlFjX6L0tt9wy3vOe98QRRxwRq6++eu4N8Vvf+lY8//zztViXl2h3880357pPAAAAAAAAAACALKZMmRLXXHNNvPa1r63N3tmfaLd48eL4j//4j9oAYrvuumt0ktb5SuwYeOaZZ+LrX/96bL/99rWR5s4///zauuGmfR28fvB7XV1dceihh8YvfvGLmDt3bhx//PG5J9gNdu6559aGWOyPp//fJJa//vWvY7ZfAAAAAAAAAACA4ay66qpx7bXXxtZbb12Xc5UMLPb6178+5syZE52kI5Psfvvb38bRRx8dM2fOrE29evvttw8k0Q1OoOtfN1zS3QYbbBCf/vSn48EHH6yNLFdUluX06dNjzz33XO50sU899VQhMQAAAAAAAAAAACzPtGnT4rrrrosttthiYF2Se7Vo0aJ43eteF7///e+jU3RMkt3TTz8dX/7yl2ObbbaJnXfeOS688MLaCVuRUeuSn/fff//a/MHz5s2Lk08+OWbMmFH4Mf37v//7ctcno/EBAAAAAAAAAAA00/Tp0+PnP/95bLzxxgPrktyrf/7zn7H33nvHnXfeGZ2gK9rcTTfdFOedd1788Ic/jBdeeKFu5Lf+xLnE0BHhlvfei170otoIeO9+97tj/fXXj1ZohP36k//6fwYAAAAAAAAAKFI1ylGJctNjAFrLzJkz4xe/+EW8+tWvjoceeqi2LslzevLJJ2szed5www2x5ZZbRjtr2yS7ZE7f448/Pu65557a8oom1yXLr33ta+OYY46Jgw46KLq6WqdKJk6c2OwQAAAAAAAAAAAAhrXBBhvUEu122WWX+Pvf/15bl+RlLVy4MPbYY49aot2mm24a7aptp4udM2dO/PnPfx6Y+nXwtK/965Y3JWz/+mRO4BNPPLFWRjI38Bvf+MaWSrADAAAAAAAAAABoF5tuumlt6tjBs3cm+VoPP/xwbRC0+fPnR7tq2yS7fv3Jc4nBiXWN3nvFK14RF154YSxYsCA+//nPx4tf/OJoB4NH4AMAAAAAAAAAAGg1W265ZfzsZz+rDYA2OO/pwQcfrCXaJQl37agjhm5Lmyp26tSp8da3vjWOPfbY2GabbaLdDJ3yFgAAgOGVolrYvnp6eqIVVKOcuk0pKrnsq9L+39lrWt21iizHXO2w81zOcA4rGeolj7aSrc2Nvh/rtHOYRbnA/r9VZDnPWeolrW/Pq21n2aZV9EZ3YfeHtPPYHb257CetLWRpT0U+Z+WhneLNdj2Pvs3lcb/LS5ZY8jhmmlu3ebW5PMrRngAAirHNNtvET3/609o0sf/85z8HcrrmzZsXu+++e1x//fWx9tprRzvpiCS7Rsl1yQlLEuuSBLsk0a7dvOY1r4kLLrig2WEAAAAAAAAAAABktv3228fs2bNjn332iUWLFg2sv+eee2LPPfeMX/7yl7HmmmtGu+iIJLvBU8JOmjQpDjnkkFpyXTI1bDvbbLPNai8AAAAAAAAAAIB2stNOO8XVV18d++23X7zwwgu1HK8kv+tPf/pT7LXXXvGLX/wiVltttWgHbT9nRFLxyevFL35xfP7zn48FCxbERRdd1PYJdgAAAAAAAAAAAO1s1113jSuuuCImTJhQN5jaHXfcURvl7tlnn4120NZJdl1dXXHwwQfHddddF3/+85/jxBNPjGnTpjU7LAAAAAAAAACAjtMXpeiLcpNfbZ3qAuPS3nvvHT/4wQ9quV6J/hHtfve739VGuXv++eej1bVtz3PggQfG/Pnz4/LLL4/Xvva1zQ4HAAAAAAAAAACgoyTJcHk44IAD4rvf/W6USqW6RLubbrqp9t7ixYujlf0rPbANbbvtts0OAQAAAAAAAAAAoOMcfvjhMX369PjDH/5Qe/3xj38cdZmHHHJIvPDCC3HUUUfVEuz6E+1+8YtfxJw5c6KVtW2SHQAAAAAAAAAAAPnbcMMN493vfnfu5b7tbW+rJdodc8wxteX+RLtWnzJWkh0AAAAtpRzVaBU9PT3RSapRzqWcUlRGXUYl/jUlAJ2tla7nolQztO0s11Ae12tpHNZ/XudoPLbdPPrtotp2XveztGPK0g6y/IG9N8M23TmUkeWar6aco7z6jaL6H/3pivVz5Qz1VsnpOstDlliyHBPNk9f5yaNdtlLbHo9cqwBAv3e96121pLoTTjihlmSXvPKcmnYs+Is2AAAAAAAAAAAAhXn/+98fZ555Zksn1g0myQ4AAAAAAAAAAIBCnXTSSfGJT3xiINGuf0S7VmS6WAAAAAAAAAAAUlWjKypNTjVJYgA6x2mnnVabOvbss8+OVqbnAQAAAAAAAAAAKMg3vvGN2HHHHWObbbaJcrkc491ZZ50Vu+22W9xyyy1x22231V4PPfRQtBJJdgAAAAAAAAAAAAU59thja1OjTpo0Kbbddttawl3y2muvvWLNNdeM8Wifffapvfo98cQT0Uok2QEAAAAAAAAAABRo6dKltWlSf/vb39ZeiW9+85vxjne8o9mhtYQ11lgjWkmp2QEAAAAAAAAAAACMJ8lIdsmrP+GO1ibJDgAAAAAAAAAAABowXSwAAADj0uyentRtfDNt+apRjvGmmtIaSlEtLBaapxyVQtpTopSyr/F4HeYlj+s1yzksF9QvpLWVIttLpYXadpZy0mLJcjxZ/sReyuGJopyhjK7ojfF3LbZXXzgenxcqhfU/5Za5zwMAwEgkI9j1j2ZHa5NkBwAAAAAAAABAquTLKEUl0g8XA5DuBz/4Qey4446x8cYbNzuUjiDJDgAAAAAAAAAAoIO8+c1vro2St+aaa8YOO+xQS7hLXq961atilVVWaXZ4bUeSHQAAAAAAAAAAQAdOR/vYY4/F//7v/9ZeiW9+85vxjne8o9mhtR1JdgAAAAAAAAAAAB0mGcmuP9lu8DIjJ8kOAAAAAAAAAACgQyXJdf2JdmPpf//3f+PHP/7xwPS0s2bNik4hyQ4AAAAAAAAAAKADJcl1RY1gt2DBgvja174WX//612vLU6dOje233z5e/vKXx5lnnhntrNTsAAAAAAAAAAAAAOicxL6lS5fGM888E9dff3187nOfi3ZnJDsAAAAAAAAAAFJVoxyVKDc9BqC1rTRo5LwipqktgiQ7AAAAOs7snp5oJ6WojLqMTvzjYiceUxFKUU3dplrQ5AaVFppEoZyhXoqqtzzOUZZ+wzU0drKcwyzSznOWdpvlOsvjPtNu/U+W9p+2TZZ6y6uf64vuYd+v5tTm0s5RlvPTHb3Raddiq8jrGkrrO7L1G3nFMvx11Oz/oG9GLGl1wujqrpXaFADAeLe0wGlqi9A6f+kEAAAAAAAAAACAFiPJDgAAAAAAAAAAABqQZAcAAAAAAAAAAAANSLIDAAAAAAAAAACABiTZAQAAAAAAAAAAQANdjd4AAAAAAAAAAIB+fVGKvig3PQaAoul5AAAAAAAAAAAAoAFJdgAAAAAAAAAAANCA6WIBAABoOz09PcO+n2XCilJUc4tn+P1UWmY/1SZP5dEM4/GYi1Jpoe9uZrmeqznEm1e/UcnQLtP2leV49AutL4/zXC7ofkbr95e90T3qfqE7037y6pcrLfKs1l7XUB73vCz9RpZ2m08slVzum+2kyOPJUr+dJo9j7rQ2BwBAPlrnr6EAAAAAAAAAAADQYiTZAQAAAAAAAAAAQAOS7AAAAAAAAAAAAKABSXYAAAAAAAAAAADQQFejNwAAAAAAAAAAoF81ylFpcqpJEgNA0YxkBwAAAAAAAAAAAA1IsgMAAAAAAAAAAIAGTBcLAABAS+np6UndphzVaBWlqES7yCvWoqbkqPpu4LjQSlO8pPUtlQxtspRT/1RJqZcs+8lyDWXpF1rpHI03eZ3nLFrp3lqULNf0eIulN8M23dFe0tp2tr6yva6PUg7HnKVPyOO+mC2Wyqjvm0XKo18u6nkiL1nOUTvptOMBACAfkuwAAAAAAAAAAACa7KMf/WhcccUVse222w68Nttss2aHhSQ7AAAAAAAAAACA5li6dOnAv48++mhcc801tVe/qVOnxjbbbFOXeLf11lvHhAkTmhj1+CPJDgAAAAAAAAAAoMlWWmmlgaS7fs8880zMmTOn9upXLpdjiy22iH/7t3+rS75bY401mhD1+CDJDgAAAAAAAACAVJUo117NjgE6PdFuqKGJd319fXHXXXfF3Llz45JLLhlYv+666w4k3JEvSXYAAAAAAAAAAABNNjSZrj/prlHi3dDtH3rooViwYEHMnj27YXlJgh4jJ8kOAAAAAAAAAACgYEOT55aXFDeSxLvhyuifivbYY4+Ns846K7bZZpt42cteVnslP2+66aajOpZOJ8kOAAAAAAAAAACgIF1dXcuMKDfciHVZ1g0tY+g2/cvJv3/729/i/vvvj6uvvnrg/SlTpsTWW29dl3yXLE+dOnUFj7KzSLIDAAAAAAAAAAAoyKJFi+KPf/xj3HbbbbXX7bffHnfeeWc8//zzK5x4N9z6oWUub9tnn302fvvb39Zeg7fdaKON6ka8S/7deOONY7yRZAcAAEBhrun5f9+KY2TKUR32/UqUCoulFJVh369GOcabaoH1T+teh1mvxVKGctL3U85lP1nabto1n8V47Bc6TX7tP4/2VMx1lkWR999WuRf1ZtimOzqrbbdSm8tDO8VapCz31izUb/sr6hz6HQIAxrfu7u7Ybrvtaq9+1Wo17r777oGku+TfO+64I/75z3+OKvFuedtlLSNZnjdvXm3kuyuvvHJgfTK6XTLK3eDku2S5k0myAwAAAAAAAAAAaKJSqRRbbbVV7fW2t71tYP29995bl3iX/PvYY4/lPuJdozKWt/0zzzwTv/nNb2qvwZ9fddVVo1NJsgMAAAAAAAAAINNInHmNADuaGGA82WyzzWqvQw89dGDdgw8+OJB01/96+OGHVzhprtG6/s+vlHHUu6eeeqphWe1Okh0AAAAAAAAAAECbWH/99WuvAw44YGDdwoUL65LuklcyzeuKJs01WrciCXydQJIdAAAAAAAAAABAG5s+fXrsvffetVe/p59+um7Eu+Tne+65J6rV6phMN9vJJNkBAAAAAAAAAAB0mNVWWy123XXX2qvf888/H3fcccdA0l3y71133RW9vb25J951Ekl2AAAAAAAAAAAA48DkyZPjla98Ze3VL0mw++Mf/1iXeHfnnXfWEvJGk3jXSSTZAQAAAAAAAAAAjFPd3d2x3Xbb1V79kill77777rrpZu+444745z//OS4T7yTZAQAAAAAAAAAAMKBUKsVWW21Vex1++OED6++7776BpLv+ke8ee+yxTIl37UySHQAAALmZ3dMz7PulwiJpL+WotkQZWVVSzmQpKqllVKOcuk0pwzFVc2hVacfTbrIcT5HthbFRznCdFSXLdZilX8ij32glefRP7SZL35LHPSS/dlkddRl5HHORfXtR7bI3wzbd0T5a6b6Z1zVS1LMay6q02f0sj2NqpeeWVmq3RcUyHp9JgLHv95t9P2v2/mG823TTTWuvQw45ZGDdQw89tEzi3YIFC6KTSLIDAAAAAAAAAABghay33nq11wEHHDCwbuHChXVJd+1Okh0AAAAAAAAAAAC5mT59euy99961VycwPjAAAAAAAAAAAAA0IMkOAAAAAAAAAAAAGpBkBwAAAAAAAAAAAA1IsgMAAAAAAAAAAIAGJNkBAAAAAAAAAABAA12N3gAAAIDBZvf0NDuEtlSOaoy3Y6pk+E5fKSqp21SjHJ2k6ruObX8dZWnbeSmlHHNe7amc4VqspFyLabFmlXZM7dZvZKkX/UJr139e5zBLH5ZH/1LJIZYi22RvyvvlDLF0pZbSWvLqL4uQpc8taj9Z+vY8rteirtUipd3DWymOLM8keWile69nBaBdJffDvibfY9rtngx0Bj0PAAAAAAAAAAAANCDJDgAAAAAAAAAAABqQZAcAAAAAAAAAAAANSLIDAAAAAAAAAACABiTZAQAAAAAAAAAAQAOS7AAAAAAAAAAAAKCBrkZvAAAAAAAAAABAv2p0RaXJqSZJDABFM5IdAAAAAAAAAAAANCC9FwAAgJjd09PsEEhRimqzQ2hL1QzfLyxnqNtKSjlZ9tNK2i1eVqxPyOs8l6My7PuVKBdyTFmOp5QSa16qBR1ztljG3/Wc5TxnOUd5tLl2k3Y/K1J6/fZmKKW7kPPcnSmWovr2csv0hUXptOPpRHk8C+T1PFGUtOejLDrxPgMA0Mk8vQEAAAAAAAAAAEADkuwAAAAAAAAAAACgAUl2AAAAAAAAAAAA0IAkOwAAAAAAAAAAAGigq9EbAAAAAAAAAADQrxKlqES56TEAFE3PAwAAAAAAAAAAAA1IsgMAAAAAAAAAAIAGJNkBAAAAAAAAAABAA12N3gAAAKAzzO7piU5TSfnOWDmqhcXCskoZ6r+a4Xt/RZ3HomLJsp8sKlHOpRya1/7zkFd7ykM5KoW07bzqNo+6K+V0zNUcrudWqpcs0vrTtHv8eL3ntVK9ZImlksMx90V3ahnVDPWfdr2Wc6rbbG2hMuoy8ngmyasPazeddtxZrrO0NtVKzxNFGY/H3Eryem4EAGgGT5IAAAAAAAAAAADQgCQ7AAAAAAAAAAAAaMB0sQAAAAAAAAAApKrWJn8uNz0GgKIZyQ4AAAAAAAAAAAAakGQHAAAAAAAAAAAADUiyAwAAAAAAAAAAgAYk2QEAAAAAAAAAAEADkuwAAAAAAAAAAACgga5GbwAAANAeZvf0NDuEtlTN8L2zUlRHvZ9Khv2Uc9hPFnkcz3iV1l7yOodZ2mU77afTlKOSuo26Hbv6rUS5rfrCbPeZSkGxlAuplzzaf5b+tJJT3abVS5Y6yet5orj+P5/rKA/p9V/Jpb2UUuq2mlOb646+UZ/nbG0lvV7SyikX9BxcZD/XTvLqE/LoL/OLpZh7eCs9Z7VSLHnwuyIAQDpJdgAAAAAAAAAApOqrfY2h3PQYAIqm5wEAAAAAAAAAAIAGJNkBAAAAAAAAAABAA5LsAAAAAAAAAAAAoAFJdgAAAAAAAAAAANCAJDsAAAAAAAAAAABoQJIdAAAAAAAAAAAANNDV6A0AAACab3ZPT3SSaobvepWiGu2kGuVh3y9FpbBY2kkrnedyhlgqKW03rR0UqdJCsbRSvYzHPqzcYf1PXsdT1DWSR1vI0uayxVIp5Hou6piz9Nvjse+oZNpPpW367SyxZGuXlVG3p1KGus0jlu7oK6Q9VTP0CVnaZCtdi565V+wcZes3qqNul1nu4Vnuz610bwUAYPyRZAcAAAAAAAAAQKpqdEWlyakmSQwARfN1DQAAAAAAAAAAAGhAkh0AAAAAAAAAAAA0IMkOAAAAAAAAAAAAGpBkBwAAAAAAAAAAAA10NXoDAAAAAAAAAABoX3fddVfceuut8cgjj0SlUok111wzXvrSl8bLX/7y6OpqTtrQCy+8EHfffXfMnTs3Fi5cGIsWLYrVVlutFtt2220XW2yxRVPiguFIsgMAAAAAAAAAgA6xdOnSuOCCC+Kss86Kv/zlL8vdJkloO/bYY+MjH/lITJkyZcxj+tOf/hRXXHFFXHfddfHb3/42ent7G247Y8aMOProo+M///M/Y+bMmSPaz2mnnRann376Csd5xBFHxIUXXrjCn6dzmS4WAAAAAAAAAIBUlShFJcpNfkl1Gc5TTz0Ve++9dy1JrVGCXeLxxx+PM844I7bZZpvaaHdjZcGCBbH11lvXXqeeemrceOONwybYJR599NE488wz4yUveUlcfPHFYxYbjISR7AAAAJpkdk9Ps0PoWFn+0FaOauo21QzllDKUk4e0WIqK41/7qkS7KOV0nsejVqqXapSbHQIFSP6bpFX2k/ynTSsosm9Pv8+0T99Pe/TJrXKfyXI8Wdp/lmfLUsoxZ4mlO3oz7KdayDNuNUO9pJWTpd7Go7z6/7RznaX+s/xuVeT9arT38FaKFQDGwvPPP19LsPvd735Xt37ChAmx0UYbxcSJE2PevHm16Vn7Jcu77bZbzJkzJzbbbLPcY3ryySdro9gtTzKC3jrrrBNrrLFGPP3003HvvffWprTt989//rM2stw//vGP+NCHPpR7bDASkuwAAAAAAAAAAKDNfeADH6hLsCuVSvGxj30sTjzxxJg2bVpt3ZIlS+LSSy+tbZskwCUWLlwYhx56aNxyyy1RLo/tF89e+tKXxtvf/vbYfffdY9ttt63FODip7jvf+U5txLtkpL1+H/7wh2uj2u2///4j3t8555wTL3vZyzJvP9LpaRk/JNkBAAAAAAAAAEAb+/Of/xzf/OY369Z997vfjTe/+c3LjGp35JFHxg477BCvetWratPLJm6//fba1KxHHXXUmMS33377xSmnnBKveMUrGm6z6qqrxnvf+9444IAD4jWveU387W9/G3jvhBNOqI3S193dPaL9br/99rHrrruOKnZItMZ47AAAAAAAAAAAwApJRn8bPNXq2972tmUS7AbbaqutaqO8DXb66adHb29vrnFNnz49fv3rX0dPT8+wCXaDrb/++nHFFVfUjXJ33333xfXXX59rbDASkuwAAAAAAAAAAKBNJdO+Jklp/VZaaaU47bTTUj+XjFq34YYbDiw/8MADcd111+Ua29prrx077bTTiD+XTCW7zz771K376U9/mmNkMDKS7AAAAAAAAAAAoE3Nnj07+vr6BpaT6VE32WST1M8lI8UNnR72yiuvjFbx6le/um55/vz5TYsFJNkBAAAAAAAAAJCqGuWoNPmVxMCySXaD7bXXXpk/u+eee9YtJ9O6topp06bVLT/99NNNiwUk2QEAAAAAAAAAQJu644476pZHMj3r9ttvHxMnThxYfvjhh2PhwoXRChYsWFC3vOaaazYtFuhqdgAAAAAAAAAAAMDI9fb2xr333lu3btasWZk/nyTYbbrppjF37tyBdXfffXdMnz49mu3GG2+sW958881XqJzFixfHvHnz4vHHH4/u7u5ast7MmTNj5ZVXzilSxgNJdgAAAGNkdgsNq99OqhkGXS9FNdpFXtNXJBNhjD6WzqrbRCkqzQ5h3MrSntpxX6PViddZUceTTPlD8xTVLtOukbz69Sz336KOOcs9vJJDP5fleNqpP80iy/Gkt7ks9ZZP/5R2nvN43styHZVzulflcc+rZrjmi7pWO+3+nNcxFdW35NVX5nHM7dZXeoYCIEke6+vrG1iePHlyrLXWWiMqY/31169Lsrvnnntil112iWa677774oYbbqhb97rXvW7E5bz3ve+t1dELL7xQt76rq6s2it++++4bxx13XEskFdLa2uspEQAAAAAAAAAAqHn00Ufrltddd90RlzH0M0PLbIaTTz45li5dWjc63w477DDicpLkwaEJdokkMfHmm2+O0047LTbccMP4xCc+EZWKL/TSmJHsAAAAAAAAAABoS0OnSs0iGbVsxowZ0QmeffbZuuUpU6aMuIyhnxlaZtEuu+yyuPzyy+vWfeYzn4mVVlppTPb3/PPPx6c+9ana9LQ//vGPY+rUqWOyH9qbJDsAAAAAAAAAANrSQQcdNOLPnHrqqbURzDrB0IS4SZMmjbiMZIrZ4cosUjJV7bve9a66df/xH/8RBx54YOYykmS8V77ylbHffvvFjjvuGC95yUtijTXWiFKpFI8//njcdttt0dPTExdddFHdKHfXX399vOlNb4qrrroqymVTslNPkh0AAAAAAAAAAKkq1VKsVC03PQb+n6FToU6YMGHEZUycOHGZkd2a4YknnojXv/718c9//nNg3XrrrRfnnXde5jL22muveMtb3hKbb775ct+fOXNm7bX//vvHKaecUkuq+/Wvfz3w/uzZs+OrX/1qvO997xvl0dBp9DwAAAAAAAAAALACTjjhhNrIaWP9ajTy3tCR65YsWTLiY1i8ePGwZRYhSew74IAD4q9//WvdNLZXXHFFrLnmmpnL2WmnnRom2A2VJPBdd911tVHvBjvjjDPiueeeG0H0jAdGsgMAAAAAAAAAoC1deeWVsdlmm43oM9OnT49OMXXq1GFHtsti6Mh1Q8sca319fXHooYfWjSiXjMiXJNjtsMMOY7rvJKHw4osvrk0pm8SRePTRR+NnP/vZCk1FTOeSZAcAAAAAAAAAQFtKEuy22mqrGK+GJsQtWrRoxGUM/UyRSXZLly6NI444Inp6egbWlcvluOSSS2pTvxbVhpJR9JKkvn6S7BhKkh0AAMAKmD3oF37aUyVKqduUo5q6TTWlnFKGMvKKN01esVSjnLKfSi77yVL/RUk7prQ6+VcZ6eewmuGY09pCKUMsvS30J6FsdVcd1XVY5HXWSrLUSx79QrZzmE+/kL6f1uk3GMs2V2qZNleULPfEovqwLOcwr365nWTpC/PRNepnjizPG1muoe7orOuoqPtmp/VPeT0rt1L/k8fvIUU+Vxb1rAxAY/vtt1+stdZaY76fXXbZZbnrZ8yYUbe8YMGCEZc99DNDyxxLxx13XFx66aUDy8nUuOedd1688Y1vjCLtvvvudUl299xzT6H7p/W1zl9UAQAAAAAAAACgjey55561V7Nssskm0dXVNTDVaTL168KFC0c0Je78+fPrlrfccssowoc//OH4+te/XrfuC1/4QrzjHe+Ioq2//vp1y0kdwmC+ugAAAAAAAAAAAG2ou7s7Nt1007p1c+fOzfz5xYsXx7x58wpPsvvUpz4VZ599dt26008/PU444YRoVj0O1tvb25Q4aF2S7AAAAAAAAAAAoE1tu+22dctz5szJ/Nlbb721lmjXb5111hnz6WK/9KUvxSc+8Ym6dR/84AeXWVekv//973XLIxkJkPFBkh0AAAAAAAAAAKkqlXL09TX3lcRAvf33379u+dprr8382aHbvv71r4+xdP7558cHPvCBunXvfve745xzzolmuummm4adPhYk2QEAAAAAAAAAQJt63eteF11dXQPL119//TJTwC7P0qVL48ILL6xbd+CBB8ZY+f73vx/vec97avvt99a3vjW+9rWvRTM99dRT8cMf/rBu3e677960eGhNkuwAAAAAAAAAAKBNrbHGGnHQQQcNLCdJbKeddlrq57797W/H/fffP7C84YYbxh577DEmMfb09MTb3/72qFarA+uSmJMkv1KpuelL//Vf/1VLtOs3YcKE2HfffZsaE61Hkh0AAAAAAAAAALSx008/vS5Z7Tvf+U5873vfa7j93Llza8llg3384x+vJZgNJ0nKW2mllepegxP1licZWe+QQw6J3t7egXV77bVX/OAHP6gbgW+0PvvZz8att96aefu+vr744Ac/GN/61rfq1h9zzDGxzjrr5BYXnSG/lgoAAAAAAAAAABRu1qxZ8c53vjPOO++8gXWHH3543H333XHiiSfGtGnTauuSRLdLLrkkPvCBD9SN3rbNNtvEEUcckXtcf/rTn+KAAw6IF154YWDdi170onjve98bv/rVr0ZU1uTJk2PnnXdu+P7//u//xsknnxw77bRTHHroobUpX7fccstlEvmefvrp+MlPfhKf+9zn4o477qh7b9NNN41PfOITI4qL8UGSHQAAwBCze3qaHQIpqikDs5fi/005MBqVDAPAl1P2lRZrVqWojLqM/GLJp35bRdo5LFKWui2lnMf/933gxroLus56M+0pSyzlUceSV/svqm+h/XVaXzke6zZLv5HH/bmV7nlZ+qe0Pjmv81hUv53X8YzHe0iWZ45yQc/tRT0TZusX2uuYWiWOSkv93jT6fqHI59O0usurTbbS8zQAjX3xi1+M2267LX7/+9/XlpOpWT/1qU/FWWedFRtvvHFMnDgx5s2bF88++2zd59Zaa624/PLLcx1Vrl8SyzPPPFO37u9//3sceOCBIy4rmc42bdS8xJw5c2qvRHLM6623Xqy22mpRLpfj8ccfr5UxeNrawcl/11xzTay55pojjo3OJ8kOAAAAAAAAAADa3Morrxw//elPa1Oz/uIXvxhYv2TJkrjnnnuW+5mNNtoorr766th8882jEy1evDjuu+++1O1e97rXxQUXXBAzZswoJC7aj68cAAAAAAAAAACQqtJXjkpfV5Nf7TUacdHWWGONuPbaa2vTxm622WbDbvfRj340/vjHP8bWW28dneBjH/tYHHPMMbHVVlvVRq1LM3Xq1FpC4g033BCzZ8+WYMewjGQHAAAAAAAAAAAdolQqxbve9a7aK0miS6aQfeSRR6JSqdSmQn3pS18aL3/5y6O7u3vEZScj3y1dujTz9kceeWTtVYQ999yz9ko899xzMXfu3NrUsMmxJ1PkJlPErr766jFt2rSYNWtWLbkwSzIeJCTZAQAAAAAAAABAB0oSyTplpLqRTp377//+77UX5MF0sQAAAAAAAAAAANCAJDsAAAAAAAAAAABoQJIdAAAAAAAAAAAANCDJDgAAAAAAAAAAABroavQGAABAJ5rd09PsEChANcN3ykpRjXZSjfKoyyjndMxZ6jdNKSqp21Qy7CevYxqtLHFk2SbLMafpjr7Ubao5xFLKoU3+K5b0Y66kxJtHm8wij/OT1/WclyyxZLleW+V67sT+Pw/j8Zhbqd6ytcvRX2dFyet+lkdfmOUcFXWPaCV53a9aRV90F9T/9+bS/ot6Vu40rfJcP15l6Tf0uUC/aqUU0VdufgwABdPzAAAAAAAAAAAAQAOS7AAAAAAAAAAAAKABSXYAAAAAAAAAAADQgCQ7AAAAAAAAAAAAaECSHQAAAAAAAAAAADQgyQ4AAAAAAAAAAAAa6Gr0BgAAAAAAAAAA9KtUyrG0r9zUGKqV5u4fGJ+MZAcAAAAAAAAAAAANGMkOAADoKLN7epodAm2imuF7Z6Wopm5TSSmnnKGMPGKpRnHf4E2PJZ/v9JWikks56ftJP0etJK1NpbXJrO2llFJONad6y6P990Z3tIos9Z+lbRd5TbdKLGn7yatPyHKOsvTdjI1265PzOqY87p1F3TeLUlRfWdT5ydr/FCGvOLLdw0f/PJGlLZQzxNIVvaN+nqhmiKWofixLveTxu0oe8qqTvK7FNFnqJY/rKK9+rqjfzwAAxjtPVQAAAAAAAAAAANCAJDsAAAAAAAAAAABoQJIdAAAAAAAAAAAANCDJDgAAAAAAAAAAABroavQGAAAAAAAAAAD0q/SWotpbbmoMS3uNJwUUT88DAAAAAAAAAAAADUiyAwAAAAAAAAAAgAZMFwsAALSN2T09zQ4BRqyS4ftt5aimblNNKaeUqYxipvLIFksx3/vLo26zHlMeitpPlnpJa7t5tacs10gpZV9Zjqc3w5/BKinlZGsr5ULaf171X9S1mIcir9W0+i1FJZe2nSZL2243aXXXTm2yE2Vp21n6n6LuZ60kS9tNu6bz6Dfy0kqxFHVfzOsZNq2caobrLEss5VxiyXI9p8cLAADjQXv9lgQAAAAAAAAAAAAFkmQHAAAAAAAAAAAADUiyAwAAAAAAAAAAgAYk2QEAAAAAAAAAAEADXY3eAAAAAAAAAACAfkurXbG00uRUk6pUF6B4RrIDAAAAAAAAAACABiTZAQAAAAAAAAAAQAOS7AAAAAAAAAAAAKABE1UDAAAtYXZPT7NDgGVUM3w3rRTVUe+nkmE/5ZT95BVrNcpRhGyxFPPdwHIOseTRDvLSSrFMiErqNn3RnbpNNeWYslxDWeqlN+VPZVnaZCXDfrIccysp6lpsp1iLuj9k6ZNLGa6zLNdIHn1lFu3Vn6bXbacp6jkgy7nOcp2VC7vOWqdd5nE9t1K8eTwHF9n/ZOkX0uLNaz9ZyimnlJOtjNG3ubRnuU7sl4vsT9vpWQ0AoJ156gIAAAAAAAAAAIAGJNkBAAAAAAAAAABAA6aLBQAAAAAAAAAgXaUU0VdufgwABdPzAAAAAAAAAAAAQAOS7AAAAAAAAAAAAKABSXYAAAAAAAAAAADQgCQ7AAAAAAAAAAAAaECSHQAAAAAAAAAAADTQ1egNAACAvMzu6Wl2CDBmqinfXytFNZf9VFL2U86wn7RYs8ZbjXIUIVssxXx/MK1+86rbLPIqp3XOT++o21wpw36qGeItRWXY9/uiO0MZ6fspp+wn0Zuyr1KG67Co6yOLPGJppePJoqh+obj9lEd9DeVxv8t6z8tDkX37eNQq13SWdput/Rfz3JKl/We5jlrlea/I/ieP5+ks/62W1haytJUsx5Ml3vRYKoU92+Sxnyz1X9Q9op3k0Se0Ur8NANAskuwAAAAAAAAAAEjXV/7Xq9kxABTMVw4AAAAAAAAAAACgAUl2AAAAAAAAAAAA0IAkOwAAAAAAAAAAAGhAkh0AAAAAAAAAAAA0IMkOAAAAAAAAAAAAGuhq9AYMdd9998Xvfve7eOihh2LJkiUxbdq02HLLLWOnnXaKSZMmNTs8AAAAAAAAAACA3EmyI9WVV14Zn/rUp+K2225b7vtTp06NI488Mk499dRYa621otmee+652GabbWpJgYMdccQRceGFFzYtLgCATja7p6fZIUDLqmYYRL4U1VHvp5JhP+UM+8kj3mqUY7wpqm6zlJNHe8qrnCxllDLUSzWlnCztP0u7TIsly3nOEktfdOdwnaXvpzfTfsqF1H8ryVJ3nRZLUfeiPI4nWz+Yz32mFJVRl5FX+8/Sv9D+/c941Er9XJq+wp6PKrn0CcU9q40+3rz2k0Ue9VLOKRaAjlVZKaJvpebHAFAwv4HS0OLFi+Pwww+PN7zhDQ0T7BLPPvtsfOUrX4lZs2bFr371q2i2U045ZZkEOwAAAAAAAAAAgBUhyY7lqlarcdhhh8Ull1xSt75cLsfGG28c2267bay22mp17y1cuDD23Xff+M1vfhPNkkxne+655zZt/wAAAAAAAAAAQGeRZMdynX322XHVVVfVrTvmmGNi/vz5MW/evLj99tvjiSeeiCuuuCI22GCDuqlaDz300Hj66acLj3nJkiVx9NFH1xIEE1OmTCk8BgAAAAAAAAAAoLNIsmMZjz/+eHz605+uW3fmmWfG1772tZg5c+bAulKpVJtKds6cObHRRhsNrH/ooYfiC1/4QhTtM5/5TPzpT3+q/bzuuuvGe97znsJjAAAAAAAAAAAAOoskO5bxuc99Lp555pmB5V122SVOOumkhtsnCW3nn39+3bovfvGLtWS9otx11121RMB+X/nKV2KVVVYpbP8AAAAAAAAAAEBnkmRHnWSq1QsuuKBu3WmnnRYrrbTSsJ/bfffd49WvfvXAcpKkd9lll0VRMSfTxCbTxSaS0fUOOuigQvYNAAAAAAAAAAB0Nkl21Emmfl24cOHA8iabbBK77rprps8miW6DXXnllVGEL33pS3HzzTfXfl511VVro9gBAAAAAAAAADmrRERfk19JDAAFk2RHndmzZ9ct77nnnqmj2A3edrDrr78+Fi1aFGNp3rx58fGPf3xgOZkydubMmWO6TwAAAAAAAAAAYPzoanYAtJY77rijbnmnnXbK/NkkuW2jjTaK+++/v7acTN86d+7c2GGHHWKsvOtd74rnnnuu9vMrX/nKOPbYY8dsXwAA49Xsnp5mhwAdr5rDd+BKUU3dppJhP+UM5aTFmyWWapQjD2nx5lG3ecmjbrPUbx5lFClLLGnblDIcczWHayRLu80SSzmHWPqiO0Ms+bS5SspxZ4klj/ovZRiqIK++JX0/rdO3ZOnb20mRfVhR999ssRTTdrNcR+2kqHprt36hqHrL45jzqrdWqv/0fqGrsL4l/Rkqnz4h7dkmj+e9vOLN8hyWR/3nVbet9Nyeh3KH3YcAgPGldX7roCXcfffddcuzZs0a0eeHbj+0vDydf/758Ytf/KL2c3d3d3zzm9/MPOoeAAAAAAAAAABAFpLsGPD888/H/Pnz69atv/76Iypj6Pb33HNPjIVHHnkkPvShDw0sf/jDH46tttpqTPYFAAAAAAAAAACMX5LsGPDYY4/F0qVLB5aT0eFmzJgxojLWXXfduuVHH300xsJxxx0XTz31VO3nF7/4xXHKKaeMyX4AAAAAAAAAAIDxravZAdA6nn322brllVdeecTTr06ZMmXYMvNw2WWXxZVXXjmw/I1vfCMmTZoUzZAkES5cuHBEn7n33nvHLB4AAAAAAAAAACBfkuxomBC3IolrkydPHrbM0Xr88cfjfe9738DyUUcdFbvttls0y1e/+tU4/fTTm7Z/AAAAAAAAAABgbEmyY8ALL7xQtzxhwoQRlzFx4sS65eeffz7ydMIJJwxMQZtMZXvOOefkWj4AAAAAAAAA0EDf/72aHQNAwUpF75DWNXTkuiVLloy4jMWLFw9b5mhcc8018d3vfndg+Ytf/GKsscYauZUPAAAAAAAAAAAwlJHsGDB16tRhR7bLYujIdUPLXFHPPPNMHHPMMQPL++yzT7zlLW+JZjvuuOPikEMOGdFn7r333jjooIPGLCYAAAAAAAAAACA/kuxomBD33HPPxdKlS2OllVbKXMaiRYuGLXNFfeQjH4n58+fXfl555ZXja1/7WrSCZMra5AUA0K5m9/Q0OwQgJ9UMg9WXopq6TcWg92OmGuXUbUpRGfV+spznvNpLHvKIN0sZ2bYZfj/VnOoky3XWF93Dvl/O6XrO0i7T6r83Q7ut5LCfbLEWVy95yHItpsmrLbRT/58l1iz10irnMIu8+uSi4h2PiqrbovqwvI4nvW/PZz+t1Ie1Uix59IV5PWfls5/KqI85r/40rZw8Ys0rlmxlVFrm9wMAgFbVOk/6NN1aa61Vl1DX29sbjz766IjKWLBgQd1yHglof/vb3+qS6k4//fTYaKONRl0uAAAAAAAAAABAGkl2DJg8eXJssMEGdev6R4/Lauj2W2655ajjevrpp2sj6vX70Ic+VEsGTHslyXiDXXTRRXXvr7766qOODQAAAAAAAAAA6GyS7Bg2KW7u3Lkj+vzdd989bHkAAAAAAAAAAADtRJIddbbddtu65Tlz5mT+7COPPBL333//wHJ3d3fMmjUr1/gAAAAAAAAAgCapRERfk19JDAAF6yp6h7S2/fffP84666yB5euuu642VWsyvWqan/3sZ3XLu+22W0ydOnXUMW222WZx7bXXjvhzF198cXznO98ZWN5rr71qU80OTgIEAAAAAAAAAAAYjiQ76uy0006x1lprxWOPPVZbnjdvXlx//fW1hLk03/rWt+qWDzzwwFxiShL19thjjxF/7qabbqpbXmeddVaoHAAAAAAAAAAAYPwyXSx1SqVSHHnkkXXrTj/99NpodsP5+c9/HjfeeOPA8iqrrBKHHnromMUJAAAAAAAAAABQBEl2LOOkk06qm+b1hhtuqJtCdqgFCxbEO9/5zrp1xx9/fG1EvOEkU9AOfiUj5gEAAAAAAAAAALQS08WyjCQ57qMf/Wjt1e/kk0+O+fPnxymnnBIzZ86sratWq3H11VfXEuqS9/ol73/wgx9sSuwAANSb3dPT7BCAFlLN8F27UlRHvZ9Khv2UM+wnS7w0Tx5tpRX3Ndo48rrO0q6RLNdZNcoZtkkvpzflT4h51UvaMWUrI/2Y+6I7dZtqQX1h2jlqt34wyzGPx1jykNe9lfZvc1n69vQy8om1qD4qr7ptpborSl+LPIeVopJLH5ZPLPnsJ+2Y8jqeomLptOd2AICx0F6/DVDoaHb7779/3bqvfe1rscEGG8Smm24a2223Xay55prxhje8oS7BbvLkyXHZZZfF6quv3oSoAQAAAAAAAAAA8mUkO5arVCrF5ZdfHkcddVR8//vfH1hfqVRi3rx5y/1MknT3P//zP7HzzjsXGCkAAAAAAAAAUNhQqb0tEANAwYxkR0OTJk2K733ve7XEuW233bbhdlOmTInjjjsu5s6dG7vuumuhMQIAAAAAAAAAAIwlI9mR6uCDD6697r333rj55ptjwYIFsWTJktqUsC95yUtqI9clCXkjtXTp0hhLp512Wu0FAAAAAAAAAACwoiTZkdlmm21WewEAAAAAAAAAAIwXposFAAAAAAAAAACABiTZAQAAAAAAAAAAQAOmiwUAgDY1u6en2SEAHaia4ft4paiOej+VDPspZ9hPWrxZYq1GOVrleFgxebTJvMrJ1uZGf52VMpRRzRBLJYdYshxPlm3SYslyrWbZT29UMsRSzuEcZom3Ourzk0Veddcq8qqXTqNeWl8ezxzZ9jP6tpBXn1BU35JH3bbbMRclj+PJ8tzSl6mc9GebUsp9Psszebb9pD23jD7W7PGm1W9vtIpyhmMGAGhVkuwAAAAAAAAAAEiX5Ms2O2e22fsHxqXO+joNAAAAAAAAAAAA5EiSHQAAAAAAAAAAADQgyQ4AAAAAAAAAAAAakGQHAAAAAAAAAAAADUiyAwAAAAAAAAAAgAYk2QEAAAAAAAAAAEADkuwAAAAAAAAAAACgga5GbwAAAM0zu6en2SEANFRN+c5eKaq57Kfiu4Fjcn7yPEdFSYu33Y65qFiy7KeU6TrrG3X9Z7meq1Ee9X6ybNMVvaOOpTfDn1Wz1Usexzx8GVnOYZZ95XEOs8jres5STh7cq5orjzbXbopq2+2mFJVRt5e8+pY8nlvarY8qt9Ax59FvZGlPacfcleHe2259ZSs9TwNNlnSTze7m0rtqgNy1zlMtAAAAAAAAAAAAtBhJdgAAAAAAAAAAANCAJDsAAAAAAAAAAABoQJIdAAAAAAAAAAAANCDJDgAAAAAAAAAAABqQZAcAAAAAAAAAAAANdDV6AwAAAAAAAAAABlQioq8FYgAomJHsAAAAAAAAAAAAoAEj2QEAQMFm9/Q0OwSAMVXN6Tt9paiOuoxKhljKGfaTdkxZYq1GOfKQdkxZjicPWY6n1GFfLc+jTbZaLKWC2n8pw7VYLeiaz9J20465O3oLiSVLf5ptP1nKGX0sedRtkec5vYxSYddiXvfOIuq2lRR1n8nrHp6HPNpckW2bsbn35rWvovqeVmpPxfUbnXedZTumznr+BwAYrL1+YwYAAAAAAAAAAIACSbIDAAAAAAAAAACABiTZAQAAAAAAAAAAQAOS7AAAAAAAAAAAAKCBrkZvAAAAAAAAAADAgL7/ezU7BoCCGckOAAAAAAAAAAAAGpBkBwAAAAAAAAAAAA1IsgMAAAAAAAAAAIAGuhq9AQAArJjZPT3NDgGgI1QzfDewFNVR76fiO4grVP951H1e56hcYCx5KLLuWiXeLGVkuebT95NeRjVDLHn0C9UoZ9imNOo6yRJrHrFk28/o662SQ6z/2ia9nDz2k0VR7SkPWa6hvORVv0XI6z7TKs8cpagU1ubyuIfk1Va6ctlPX8u07VZpT514vWZpt2nbZCujksvxFPVs2W7PsAAAefMEDgAAAAAAAAAAAA1IsgMAAAAAAAAAAIAGTBcLAAAAAAAAAEC6SqYZ1Mc+BoCCGckOAAAAAAAAAAAAGpBkBwAAAAAAAAAAAA1IsgMAAAAAAAAAAIAGJNkBAAAAAAAAAABAA12N3gAAAJY1u6en2SEAMEg1h+8PlqI66jIqGeIoZ9hPluNJi7ca5WgV2Y5n9Mdc5DlqFXnUSSceU5YysrTLrhzKqBbUbrNc83n0lVnKyCPePGLNHsvw21Ry6k/zqf/WiSWv+s9DK93zssijbylOXy6ltNIxFdUuW6ndtlL9d9ozUikqhTxXZjmetG3SYm2352AAgGYZf0/XAAAAAAAAAAAAkJGR7AAAAAAAAAAASFfJbdDb0cUAUDAj2QEAAAAAAAAAAEADkuwAAAAAAAAAAACgAUl2AAAAAAAAAAAA0IAkOwAAAAAAAAAAAGhAkh0AAAAAAAAAAAA0IMkOAAAAAAAAAAAAGuhq9AYAAIw3s3t6mh0CAE1QzfAdxFJUR72fiu86jotzWM5hP0XKo17aTR7HnKWMLO0yfT9ZyujLJZY8+qhqlHOJZbwdT37xjr6MSoZjLiqWbPvJJ96iFFUv7aQTn4/aqV2OxzZZ1LNPKSpRlLTnz7yOOcsxjcdnSwBg/JBkBwAAAAAAAABAtu/59LVADAAFG39fUQEAAAAAAAAAAICMJNkBAAAAAAAAAABAA5LsAAAAAAAAAAAAoAFJdgAAAAAAAAAAANCAJDsAAAAAAAAAAABoQJIdAAAAAAAAAAAANNDV6A0AAAAAAAAAABjQFxG9LRADQMEk2QEAMG7M7ulpdggAtKlqDpMBlKKaSyyVcTgxQdoxl3Oq27TznOUcVqOcuk0pKqnbpB1TljaZLd58yimijHZTVL3ldQ67cukH0/+nK62cvPq4LNdiehl5xTL6cjqxXlrlfpbX8bSSSg7nmRXXiW2qFfqedpPlea+VjMdnNQCAkfKkDwAAAAAAAAAAAA1IsgMAAAAAAAAAAIAGJNkBAAAAAAAAAABAA5LsAAAAAAAAAAAAoAFJdgAAAAAAAAAAANBAV6M3AAAAAAAAAABgQDUiKi0QA0DBjGQHAAAAAAAAAAAADRjJDgCAjjC7p6fZIQDAsKo5fdexlMPXtSsZYimn7Cev4ylKUcecx/n5177KKfupFHLM7Sav+m8nRR1zlv3kcY1k+YN1tv6nL6dyRn+dFdEnZC+nqHiL2U9R9V/kOaJ52u3Zpp200rWaF+0FAGD88QQIAAAAAAAAAAAADUiyAwAAAAAAAAAAgAYk2QEAAAAAAAAAAEADkuwAAAAAAAAAAACgga5GbwAAAAAAAAAAwIC+/3s1OwaAghnJDgAAAAAAAAAAABqQZAcAAAAAAAAAAAANSLIDAAAAAAAAAACABroavQEAAK1idk9Ps0MAgJZRTfnOZCmqueynksN3M8sZYkk7nk6U5ZjTzmMeZeTVFvI6z3nFW4R2irUT66XUQm0uyx/Y8+nn+graTzH3h7xUoxztZDze8xg7ndaexmPfktc5LKruOq3NAQCMlKchAAAAAAAAAAAAaECSHQAAAAAAAAAAADQgyQ4AAAAAAAAAAAAa6Gr0BgAAAAAAAAAADKhERF8LxABQMCPZAQAAAAAAAAAAQAOS7AAAAAAAAAAAAKABSXYAAAAAAAAAAADQgCQ7AAAAAAAAAAAAaKCr0RsAAFCE2T09zQ4BADpKNafvVJaiOuoyKjnFUk6JJa9jbiVpdZdWJ1llqbu0tlCNcoYyKoUccx7Hk0VR+8miqP20m1aqlyyx5NGPFdfmWqnP7UvdohPvEa0ir/s8rS3Lfb6o/7As6nquFvQcnOX5KNtz1uiflbPFW8z9DACgVXnSAQAAAAAAAAAAgAaMZAcAAAAAAAAAQLpKpgGFxz4GgIIZyQ4AAAAAAAAAAAAakGQHAAAAAAAAAAAADUiyAwAAAAAAAAAAgAYk2QEAAAAAAAAAAEADkuwAAAAAAAAAAACgAUl2AAAAAAAAAAAA0EBXozcAACAPs3t6mh0CALACqjl8N7MU1VxiqeQQSzlDLHkccyvJUm951Espp7pNK6ca5QxlVAqrlyKOud102vEUSd2NnXaq23a7D7VT3XaiotpLHvfEPJ7lOlGWesnybJPlGSmP8+w8AgP6/u/V7BgACuZpCAAAAAAAAAAAABqQZAcAAAAAAAAAAAANSLIDAAAAAAAAAACABiTZAQAAAAAAAAAAQAOS7AAAAAAAAAAAAKABSXYAAAAAAAAAAADQQFejNwAAAAAAAAAAYEAlIvpaIAaAgkmyAwBghc3u6Wl2CABAC6vmNIlCKaqjLqNiQoflqkY5dZtSyv9eZKnbcoZzmNZesrSDLG0uWznp9ZK+n/T/9UmruzzqrcjrLK/6byeddjzj8Zjzuoby0Gl124k6rb0UdTxZ7mdZniey3FvzuIcXJa96AQCgGJ7MAAAAAAAAAAAAoAFJdgAAAAAAAAAAANCAJDsAAAAAAAAAAABoQJIdAAAAAAAAAAAANCDJDgAAAAAAAAAAABroavQGAAAAAAAAAAAMqEREXwvEAFAwI9kBAAAAAAAAAABAA5LsAAAAAAAAAAAAoAHTxQIAsFyze3qaHQIAQE21oO+JlqI66jIqOcVaTomlqDppJVnqNq3estZdHm0hj/1Uo5yhjEoh9ZulbrPIo+3mcX6A8Wc83jtb5Zjzej7Kcl9MLyOvWEotUy8AABTD0xsAAAAAAAAAAAA0IMkOAAAAAAAAAAAAGpBkBwAAAAAAAAAAAA1IsgMAAAAAAAAAAIAGuhq9AQAAAAAAAAAAA/oiorcFYgAomJHsAAAAAAAAAAAAoAFJdgAAAAAAAAAAANCAJDsAAAAAAAAAAABooKvRGwAAdLbZPT3NDgEAoKVUc/g+aimqucRSKei7seUM8eZRL0WpRjl1m1JURl3/Weoti7S6LRV4ftL2laVus+0nvf6Luj7yOI9F1T/QGtrpnljk80SavO4h2fZVaoky8qr7ouquVdoKAEAr88QEAAAAAAAAAAAADRjJDgAAAAAAAAAAOtBdd90Vt956azzyyCNRqVRizTXXjJe+9KXx8pe/PLq6xk/a0IIFC+I3v/lNPPDAA/H888/HqquuGptvvnm86lWviqlTpzY7PNrA+LlaAAAAAAAAAABYcZX/ezU7Boa1dOnSuOCCC+Kss86Kv/zlL8vdJkm2O/bYY+MjH/lITJkyZcxj2mijjWoJbivql7/8Zey6664j/twNN9wQp512Wlx//fXLfX/ChAlx2GGHxSc/+clajNCI6WIBAAAAAAAAAKADPPXUU7H33nvH0Ucf3TDBLvH444/HGWecEdtss01ttLtOTDT88Ic/XEvMa5Rgl1iyZEl85zvfqY3u98Mf/rDQGGkvkuwAAAAAAAAAAKDNJdOgJgl211577TKjtSVTo2699dbLjFo3b9682G233eLee++NTvL+978/zj777Lp1K620Uqy//vqx3XbbxVprrVX33qJFi2oj2v3oRz8qOFLaheliAQAAAAAAAACgzX3gAx+I3/3udwPLpVIpPvaxj8WJJ54Y06ZNGxi57dJLL61t++STT9bWLVy4MA499NC45ZZbolwuj3mca6+9dnz3u98d0Wde9rKXZd72sssui6985St16w4++OA488wz48UvfvHAup///Oe1erjzzjtry5VKJY444oj4t3/7N1PHsgxJdgAAAAAAAAAA0Mb+/Oc/xze/+c26dUki25vf/OZlRrU78sgjY4cddohXvepVtellE7fffntcfPHFcdRRR415rJMmTYo99thjTMpOkghPOumkunXHHHNMfPWrX62NZDfY7rvvHr/61a9qsfz+97+vrXvmmWfi1FNPjYsuumhM4qN9SbIDAOhAs3t6mh0CAMC4VI1SLuWUohpFqOQU73hTjfRv9ZeiUsj5KefUVvJou1nabVH7yes8FnGeW+lazKs9QStqlessL3n0Ya32/NMq+8mjrRR5foqqFwBaX5IYlozE1u9tb3vbMgl2g2211VZxzjnnxDvf+c6Bdaeffnocfvjh0d3dHe3qW9/6Vtx///0Dy8nIdV/84heXSbDrt9pqq9US6pLR65IEvcQll1wSJ598cmy55ZaFxU3r89QFAAAAAAAAAABtKpn29YorrhhYThLKTjvttNTPJaPWbbjhhgPLDzzwQFx33XXRzs4///y65SRZLhk5bzizZs2Kww47bGA5SVa84IILxixG2pMkOwAAAAAAAAAA0iUDpfU1+ZXPgNIdZfbs2dHXl1TOv+y6666xySabpH6uVCotMz3slVdeGe3qoYceittuu21geerUqXHooYdm+uzRRx9dt3zVVVflHh/tTZIdAAAAAAAAAAC0cZLdYHvttVfmz+655551yz09PdEp9bDzzjvHlClTMn022XbllVceWL7nnnvir3/9a+4x0r4k2QEAAAAAAAAAQJu644476pZ32mmnzJ/dfvvtY+LEiQPLDz/8cCxcuDDGWz10dXXFjjvuOGx5jG+S7AAAAAAAAAAAoA319vbGvffeW7du1qxZmT+fJNhtuummdevuvvvuKMJjjz1WS2T71a9+Vfv3wQcfjKVLl65weUPjHkk9LG/7ouqB9tDV7AAAAAAAAAAAAICRmzdvXvT19Q0sT548OdZaa60RlbH++uvH3Llz66ZK3WWXXWKsPProo7WEtuUlsa2xxhrx6le/Ot7ylrfEwQcfHOVyOXO5SdxDj2skhm4/tDzGN0l2AAAAAAAAAAC0paGjuGUxffr0mDFjRnSCJGFtsHXXXXfEZQz9zNAy8/b88883HCXuiSeeiKuuuqr2SkbY+9a3vhWvec1rMpU7dJrb9dZbr6XrgfYiyQ4AAAAAAAAAgLZ00EEHjfgzp556apx22mnRCZ599tm65SlTpoy4jKGfGVpms9x3332x++67x+c///k4/vjjUxP3KpXKqOqiVeuB1iDJDgCgzczu6Wl2CAAAjLFqlArZTymqheynUtDxlDMcT1F1W5RqpE+bU4r6/2Ro5nnOco6KOod5tP9Ou1aztKdWUlTbZvy0qSK0232oleIt6nmiqHZbVN3mVW+t1BaAJktmJe1rgRhomAg2adKkEZeRTDE7XJl5WXXVVWOfffaJvffeO172spfFxhtvXFv33HPPxcMPPxxz5syJCy64IG666aaBzySJcyeeeGKsvfba8aY3valh2cuLeaR1UVQ90J4k2QEAAAAAAAAAQBt64YUX6pYnTJgw4jImTpy4zKhweTv77LNj3333jalTpy7zXpJol7y23HLLeMc73hE/+tGPav8+9dRTtfeXLl0aRx99dOy6667xohe9KFM9rEhdFFEPtC9JdgAAAAAAAAAAtKUrr7wyNttssxF9Zvr06bnt/4QTTohzzz03xlqjKW6Hjta2ZMmSEZe9ePHiYcvMwyGHHJJ52ze84Q2xzjrrxGtf+9qBRLdktLtPf/rT8eUvf3m5n1lezEldjORYiqgH2pckOwAAAAAAAAAA2lKSYLfVVlvFeDV0ZLjljeiWZuiIbcsbba5or3jFK+LDH/5wnH766QPrLr300lpCY6m07DTmy4s5qYuRJMq1Yj3QOpZtdQAAAAAAAAAAQMsbmgi2aNGiEZcx9DOtklx2/PHHR7lcHlh+4okn4ve///1yt508eXLdtitSF61aD7QGI9kBAAAAAAAAAMAK2G+//WKttdYa8/3ssssuy10/Y8aMuuUFCxaMuOyhnxlaZrNMmzYttttuu7jlllsG1t1zzz2x4447NpwG+O9///vA8kMPPRTrrrtu29cDrUGSHQAAAAAAAAAArIA999yz9mqWTTbZJLq6uqKvr29gytOFCxfWEs6ymj9/ft3ylltuGa1i/fXXr0uyS46tkS222KIuyS45rpe//OUdUQ80n+liAQAAAAAAAACgDXV3d8emm25at27u3LmZP7948eKYN29eyyaXJcc3WG9vb8Nth8Y9knpI3H333cOWx/gmyQ4AAAAAAAAAgHSViOhr8iuJgTrbbrtt3fKcOXMyf/bWW2+tJdr1W2eddVpqmtTBI9MlhhuhbzT1kIwE+Lvf/W7Y8hjfTBcLANBCZvf0NDsEAADGkWpB38EtRbWQ/VQKOp5yhuMpqm7bTTXKw75fKvB/y/JoL1naQh467VrNi+uMPI3H9lTUfTOP+8N4bQtFnaNWOmYAVsz+++8fP/jBDwaWr7322jj55JMzfTbZdrDXv/710SqS5L/BU8X2Tx/byH777bdMkt2iRYtiypQpqfv69a9/Hc8999zA8uabb157QT9PTAAAAAAAAAD8/+zdCZiVdd038B8wgAiuICaKIKIpmhJFJe6p5L60oKGpubypj6XmvgWklaZJPq9Lua+Zij6og+ZSudLjrqWYiagILiC5scgy8F7/+23GOQP3LHBmzpmZz+e6zqX3/psR/5xzn+/9+wcArdPuu+8eFRWf99l6+OGHl5oCdlmWLFkS1113XcG6ffbZJ8rFH//4x4LgW9euXWPrrbfO3T8F8L785S/XLM+ePTtuu+22Rl3r6quvLtvfA+VByA4AAAAAAAAAAFqpNddcM/bdd9+C8Nzo0aMbPO6aa66JN998s2a5X79+sfPOO0e5TBN75plnFqwbPnx4rLzyyvUed/jhhxcsn3feefHZZ5/Ve8wrr7xS0AmwY8eOceihhy5X3bRdQnYAAAAAAAAAANCKjRkzJguHVbvxxhvjlltuyd1/0qRJcdJJJxWsO/vss6NLly71XieF8jp06FDwqh3Uq+vdd9+NUaNGxYcfftjonyWdb9ddd43p06fXrEvXaUxw8Mgjj4z111+/Zvlf//pXnHDCCVnwcFk++eSTOPjgg2PBggU160aOHBmDBg1qdL20D0J2AAAAAAAAAADQiqVQ2BFHHFGw7qCDDoqf/exnBQG3hQsXZlPEbrPNNvHRRx/VrN9iiy3ikEMOKXpd8+fPj5///OdZ8O3AAw+MO++8M955551l7jt58uQ466yzYvDgwfHiiy8WbDvuuONiyJAhDV4vhQRT97rafve738WIESPitddeK1j/l7/8Jbbddtt45plnatb16NEjqxfq+nxCZgAAAAAAAAAAoFUaO3ZsPPfcczWhscWLF8c555wT559/fmywwQbRtWvXmDJlSsyePbvguF69esXtt98eFRXNFyNK1/zDH/6QvZKePXtG7969Y9VVV4158+ZlHe9mzpy5zGO/973vxW9+85tGX+v73/9+PPbYY3H55ZfXrBs3blzccccd0bdv31hrrbXirbfeig8++KDguNQJ8Nprr81+V1CXkB0AAAAAAAAAAA1blFqhlUENLNPKK68c999/fxZKS13aqqWpUF999dVlHtO/f/+4++67Y+ONN27BSiNmzZqVveqTQoG//OUvs+le03SxTXHJJZfESiutlAUPq6UpY6dOnZq9lvW7SwG77373u026Du2H6WIBAAAAAAAAAKANWHPNNePBBx+MK664IgYOHFjvfmeccUb84x//iC996UvNVs/aa68dF198cey7777ZvzdGv379smljU9e9n/70p00O2FV3pbvoootqpoStb3rZNI3tSy+9lE0pC3l0sgMAAAAAAAAAgDYiBcyOPPLI7JVCdGkK2TQda1VVVTZN6+abbx5f//rXo3Pnzk0+d+p8lzrCNVa3bt3iJz/5SfZKUh2pq17qJpema507d24WdFtjjTWy6WOHDh0affr0iWLZcccds9e0adNi4sSJ2XU/++yzWGWVVWKjjTaKbbbZJpuyFhoiZAcA0IImVFaWugQAAGhxi1toQo2OsbhFrlNVRhOEdGrEz9xSv//2aHF0Ksp5OkZVlIPW9meb1q+c/sy11/GnXLS2v6ta05/d1va7BaD4Upe65uxU11TrrLNO9mpp6623nk51rBDvqgAAAAAAAAAAACCHkB0AAAAAAAAAAADkELIDAAAAAAAAAACAHBV5GwAAAAAAAAAAoEbVf16lrgGghelkBwAAAAAAAAAAADmE7AAAAAAAAAAAACCHkB0AAAAAAAAAAADkqMjbAABA00yorCx1CQAA0K4tLqNnijvG4ha5TlUZ/cyN0amB30s5/TektBZHp1KXAGWtPY6Xre3vvGJoj/+dAQDKlXdmAAAAAAAAAAAAkEPIDgAAAAAAAAAAAHKYLhYAAAAAAAAAgIZVRcSiMqgBoIXpZAcAAAAAAAAAAAA5hOwAAAAAAAAAAAAgh5AdAAAAAAAAAAAA5BCyAwAAAAAAAAAAgBxCdgAAAAAAAAAAAJCjIm8DAACfm1BZWeoSAACAVmRxGT3f3DEWR7moKqPfS0vp1Ijffzn9eQHajvY45rYU4zYAQPsjZAcAAAAAAAAAQMOqImJRGdQA0MI8ZgEAAAAAAAAAAAA5hOwAAAAAAAAAAAAgh5AdAAAAAAAAAAAA5BCyAwAAAAAAAAAAgBxCdgAAAAAAAAAAAJBDyA4AAAAAAAAAAAByCNkBAAAAAAAAAABAjoq8DQAA7cWEyspSlwAAANBsFreiZ607xuJoa6pa0e+/LerUBv9MtSb+/NMW/64CaPcWRcTCMqgBoIV5xwoAAAAAAAAAAAA5hOwAAAAAAAAAAAAgh5AdAAAAAAAAAAAA5BCyAwAAAAAAAAAAgBxCdgAAAAAAAAAAAJBDyA4AAAAAAAAAAAByVORtAAAAAAAAAACAGlX/eZW6BoAWJmQHALR5EyorS10CAAAAjbC4nU6+0jEWl7qENquqnf6Zou1rr+MlAACUinfgAAAAAAAAAAAAkEPIDgAAAAAAAAAAAHII2QEAAAAAAAAAAEAOITsAAAAAAAAAAADIIWQHAAAAAAAAAAAAOSryNgAAAAAAAAAAQI2qiFhUBjUAtDCd7AAAAAAAAAAAACCHkB0AAAAAAAAAAADkMF0sANCqTaisLHUJAAAAsEIWex4eAAAAyppP7gAAAAAAAAAAAJBDyA4AAAAAAAAAAAByCNkBAAAAAAAAAABAjoq8DQAAAAAAAAAAUKMqIhaVQQ0ALUwnOwAAAAAAAAAAAMghZAcAAAAAAAAAAAA5hOwAAAAAAAAAAAAgh5AdAAAAAAAAAAAA5KjI2wAAUGoTKitLXQIAAAAAAAAA7ZxOdgAAAAAAAAAAAJBDJzsAAAAAAAAAABq28D+vUtcA0MJ0sgMAAAAAAAAAAIAcQnYAAAAAAAAAAACQQ8gOAAAAAAAAAAAAcgjZAQAAAAAAAAAAQA4hOwAAAAAAAAAAAMghZAcAAAAAAAAAAAA5KvI2AAA0twmVlaUuAQAAAAAAAADqJWQHAAAAAAAAAEDDFkdEVRnUANDCTBcLAAAAAAAAAAAAOYTsAAAAAAAAAAAAIIeQHQAAAAAAAAAAAOQQsgMAAAAAAAAAAIAcQnYAAAAAAAAAAACQQ8gOAAAAAAAAAAAAclTkbQAAWBETKitLXQIAAAAAAADFVBURi8qgBoAWppMdAAAAAAAAAAAA5BCyAwAAAAAAAAAAgBxCdgAAAAAAAAAAAJBDyA4AAAAAAAAAAAByCNkBAAAAAAAAAABADiE7AAAAAAAAAAAAyFGRtwEAAAAAAAAAAGos+s+r1DUAtDCd7AAAAAAAAAAAACCHTnYAQJNNqKwsdQkAAAAAAAAA0CJ0sgMAAAAAAAAAAIAcQnYAAAAAAAAAAACQQ8gOAAAAAAAAAAAAcgjZAQAAAAAAAAAAQI6KvA0AAAAAAAAAAFBjUUQsLIMaAFqYTnYAAAAAAAAAAACQQ8gOAAAAAAAAAAAAcgjZAQAAAAAAAAAAQI6KvA0AQPs0obKy1CUAAAAAAAAAQNnQyQ4AAAAAAAAAAAByCNkBAAAAAAAAAABADiE7AAAAAAAAAAAAyFGRtwEAAAAAAAAAAGosjoiqMqgBoIXpZAcAAAAAAAAAAAA5hOwAAAAAAAAAAAAgh5AdAAAAAAAAAAAA5BCyAwAAAAAAAAAAgBwVeRugrtdffz2eeuqpmDZtWixYsCDWWGON2GSTTWLYsGGx0kortXg9CxcujFdffTVefvnleP/99+PTTz+NHj16RM+ePWOLLbaIzTffPDp2lCMFqGtCZWWpSwAAAAAAAACAVkPIjgaNHz8+zjnnnHjuueeWuT0F2w499NAYNWpU9OrVq1lreeONN2LcuHHx4IMPxuOPPx7z5s3L3Xe11VaLgw46KI477rjYaKONmrUuAAAAAAAAAACgbdLmi1zz58/PQmr77bdfbsAumT17dlxyySUxaNCgePTRR5utlm984xsxYMCAOOWUU7KQXX0Bu+Tjjz+OSy+9NOtod+GFF8aSJUuapTYAAAAAAAAAaBcWlckLoIUJ2bFMixcvjv333z9uvvnmgvWdOnWKDTbYIAYPHpx1iqtt5syZsdtuu8Xf/va3Zpka9sknn1zmtjRVbapp6NChWdCvS5cuBdvT1LYnn3xyHHvssUWvCwAAAAAAAAAAaNuE7FimCy64IO66666CdUcddVRMnTo1pkyZEs8//3z8+9//jjvvvDPWX3/9mn3mzp0bI0aMyLrINacUqhs9enQ88cQT8cknn2Q1PfXUU/Hyyy/HRx99FDfeeGP069ev4JjLLrss67gHAAAAAAAAAADQWEJ2LGXWrFnxi1/8omDdr371q7j88sujT58+Nes6duyYTSU7ceLE6N+/f836adOmxUUXXdQstW299dZx//33x+uvvx6jRo2KYcOGRefOnQv26datWzbNbQoCpu52tZ199tlZOBAAAAAAAAAAAKAxhOxYyq9//ev49NNPa5a32267OPXUU3P3X3fddeOqq64qWDd27NgsrFcsaQrYysrKePzxx2P48OHRoUOHBo9ZY401Yvz48dG9e/eadanL3R133FG0ugAAAAAAAAAAgLZNyI4CixcvjmuvvbZgXZqWtaFQ20477RTbbrttzXIK6d12221FDdntscceTT4udd475JBDCtalTngAAAAAAAAAAACNUdGovWg30tSvM2fOrFkeMGBA7LDDDo069vDDD4/HHnusZjl1kTv66KOj1FL477LLLqtZnjp1aknrAWhOEyorS10CAAAAAAAAALQpQnYUmDBhQsHyLrvs0qipWav3re3hhx+OOXPmFEzXWgpp2tjaPv7445LVAgAAAAAAAACtVlVELCqDGgBamOliKfDCCy8ULA8bNqxJU7P279+/ZnnBggUxadKkKLXp06cXLPfs2bNktQAAAAAAAAAAAK2LkB0FXnnllYLlQYMGNen4uvvXPV8p1J7CNtl4441LVgsAAAAAAAAAANC6CNlRY968eTF16tSCdX379m3SOeru/+qrr0YpffLJJzFu3LiCdbvvvnvJ6gEAAAAAAAAAAFoXITtqfPDBB7FkyZKa5c6dO0fv3r2bdI511123YHnGjBlRSueee27Mnj27ZrlXr16x5557lrQmAAAAAAAAAACg9agodQGUj9phtGTllVeODh06NOkc3bt3r/ecLWnixIlx0UUXFaw766yzsp+rWFKIcObMmU06ZvLkyUW7PgAAAAAAAAAA0LyE7MgNxK200kpNPke3bt3qPWdLSeG3Aw44IKqqqmrWDR06NI499tiiXueyyy6LMWPGFPWcAAAAAAAAAABA+RCyo8Znn31WsNylS5cmn6Nr164Fy/PmzYuWNn/+/Nhvv/3i7bffrlm3yiqrxB/+8Ifo1KlTi9cDAAAAAAAAAG3CoohYWAY1ALQwITtyO9ctWLBguQJu9Z2zuS1evDgOOuigbKrYailYd/PNN8fAgQNbtBaAYptQWVnqEgAAAAAAAACg3RGyo0aPHj3q7WzXGHU719U9Z3M75phjYty4cTXLHTp0iCuvvDL22muvZrve9773vSYdM3ny5Nh3332bpR4AAAAAAAAAAKC4hOzIDcTNnTs3lixZkgXVGmvOnDn1nrM5nX766fH73/++YN1vfvOb+OEPf9hs1+zdu3f2AgAAAAAAAAAA2qaOpS6A8tGrV6+CQN3ChQtjxowZTTrH9OnTC5ZbKoB23nnnZa/afvazn8UJJ5zQItcHAAAAAAAAAADaJiE7anTr1i3WX3/9gnVTp05t0jnq7r/JJptEc7v00kuzLna1HXfccTFmzJhmvzYAAAAAAAAAANC2CdlRbyhu0qRJTTr+lVdeqfd8xXbDDTfEj3/844J1hx12WIwdO7ZZrwsAAAAAAAAAALQPQnYUGDx4cMHyxIkTG33su+++G2+++WbNcufOnWPQoEHRXO64444sULdkyZKadSNGjIgrr7yyYNpbAAAAAAAAAKAIqsrkBdDChOwosOeeexYsP/TQQwUhtvo88MADBcs77rhj9OjRI5rDfffdFyNHjoyqqs//9txjjz3ipptuio4d/bEGAAAAAAAAAACKQxqJAsOGDYtevXrVLE+ZMiUefvjhRh179dVXFyzvs88+0RweeeSR+M53vhMLFiwoCPSNGzcu654HAAAAAAAAAABQLBVFOxNtQuoCd+ihh8aFF15Ys27MmDGxww471DsF65///Od47LHHapZXWWWVbOrWYnvmmWdir732innz5tWs+8Y3vhF33313rLTSSkW/HkBLmlBZWeoSAAAAAAAAAIA6dLJjKaeeemrBNK+pc9z555+fu//06dPjiCOOKFh33HHHFXTEW5YU2qv9aqhj3ssvvxy77rprfPrppzXrBg8enE0d21zT0gIAAAAAAAAAAO2bTnYsJYXjzjjjjOxV7fTTT4+pU6fGWWedFX369MnWLV68OOsglwJ1aVu1tP3EE08sak3vvvtuDB8+PGbNmlWzrnv37nHKKadk3e2aaueddy5qfQAAAAAAAAAAQNskZEduN7uJEydGZa2pCy+//PK44oorol+/frHaaqvFG2+8ER999FHBcd26dYvbbrstVl999aLW8+qrr8Y777xTsG7OnDkxcuTI5TrfkiVLilQZAAAAAAAAAADQlpkulmXq2LFj3H777XHAAQcUrK+qqoopU6bE888/v1TArmfPnnHvvffG1ltv3cLVAgAAAAAAAAAANA8hO3KttNJKccstt8S4ceNi8ODBufulaVuPOeaYmDRpUuywww4tWiMAAAAAAAAA0EKqImJRiV+pBoAWZrpYGvSd73wne02ePDmefPLJmD59eixYsCCbEnbTTTfNOtelQF5zTtmawnumeAUAAAAAAAAAAFqakB2NNnDgwOwFAAAAAAAAAADQXgjZAUALmFBZWeoSAAAAAAAAAIDl0HF5DgIAAAAAAAAAAID2QMgOAAAAAAAAAAAAcgjZAQAAAAAAAAAAQI6KvA0AAAAAAAAAAFCjKiIWlUENAC1MJzsAAAAAAAAAAADIIWQHAAAAAAAAAAAAOYTsAAAAAAAAAAAAIIeQHQAAAAAAAAAAAOSoyNsAADTOhMrKUpcAAAAAAAAAADQTnewAAAAAAAAAAAAgh052AAAAAAAAAAA0bGEZtHNKNQC0sFIPfQAAAAAAAAAAAFC2hOwAAAAAAAAAAAAgh5AdAAAAAAAAAAAA5BCyAwAAAAAAAAAAgBxCdgAAAAAAAAAAAJBDyA4AAAAAAAAAAAByVORtAAAiJlRWlroEAAAAAAAAKA+LI6KqDGoAaGE62QEAAAAAAAAAAEAOITsAAAAAAAAAAADIIWQHAAAAAAAAAAAAOYTsAAAAAAAAAAAAIIeQHQAAAAAAAAAAAOQQsgMAAAAAAAAAAIAcQnYAAAAAAAAAAACQoyJvAwAAAAAAAAAA1KiKiEVlUANACxOyA6Bdm1BZWeoSAAAAAAAAAIAyZrpYAAAAAAAAAAAAyCFkBwAAAAAAAAAAADmE7AAAAAAAAAAAACCHkB0AAAAAAAAAAADkELIDAAAAAAAAAACAHBV5GwAAAAAAAAAAoMaiiOhQBjUAtDCd7AAAAAAAAAAAACCHTnYAtFkTKitLXQIAAAAAAAAA0MrpZAcAAAAAAAAAAAA5hOwAAAAAAAAAAAAgh5AdAAAAAAAAAAAA5BCyAwAAAAAAAAAAgBwVeRsAAAAAAAAAAKDGolIXUCY1AO2OTnYAAAAAAAAAAACQQ8gOAAAAAAAAAAAAcgjZAQAAAAAAAAAAQI6KvA0AUM4mVFaWugQAAAAAAAAAoB3QyQ4AAAAAAAAAAAByCNkBAAAAAAAAAABADtPFAgAAAAAAAADQsMURUVUGNQC0MJ3sAAAAAAAAAAAAIIeQHQAAAAAAAAAAAOQQsgMAAAAAAAAAAIAcQnYAAAAAAAAAAACQQ8gOAAAAAAAAAAAAclTkbQCAUppQWVnqEgAAAAAAAAAAhOwAAAAAAAAAAGiERRGxpMQ1VJX4+kC7ZLpYAAAAAAAAAAAAyCFkBwAAAAAAAAAAADmE7AAAAAAAAAAAACCHkB0AAAAAAAAAAADkELIDAAAAAAAAAACAHEJ2AAAAAAAAAAAAkKMibwMANJcJlZWlLgEAAAAAAAAAoFGE7AAAAAAAAAAAaFhVRCwpcQ2LS3x9oF0yXSwAAAAAAAAAAADkELIDAAAAAAAAAACAHEJ2AAAAAAAAAAAAkEPIDgAAAAAAAAAAAHJU5G0AAAAAAAAAAABar5dffjmeffbZePfdd6Oqqip69uwZm2++eXz961+PigqxIWgs/7cAAAAAAAAAAEAbsWTJkrj22mvj/PPPj3/961/L3CeF7Y4++ug47bTTonv37s1aT4cOHYp2rlGjRsXo0aNzt6dtY8aMWe7zH3LIIXHdddct9/G0XaaLBQAAAAAAAACgYYsiYmGJX6kGcn300UfxrW99Kw4//PDcgF0ya9asOPfcc2OLLbbIut21Fl26dCl1CbRTOtkBUFQTKitLXQIAAAAAAABAuzNv3rwsYPfUU08tFUzr379/dO3aNaZMmRJz5syp2ZaWd9xxx5g4cWIMHDgwyt2ee+5Z6hJop4TsAAAAAAAAAACglfvpT39aELDr2LFjnHnmmXHCCSfEGmuska1bsGBB/OEPf8j2/fDDD7N1M2fOjBEjRsTTTz8dnTp1KnpdDz744HIdd8kll8Rdd91Vs/zlL38567zXFBdeeGFsueWWjd6/T58+TTo/7YeQHQAAAAAAAAAAtGL//Oc/48orryxYd9NNN8X3v//9pbraHXrooTF06NDYZpttsullk+effz5uuOGG+OEPf1j02nbeeecmH7N48eKlakl1N9VXvvKV2GGHHZp8HNTVcak1AAAAAAAAAABAqzFq1KioqqqqWf7BD36wVMCuts022yzr8lbbmDFjYuHChVEOHnrooZg2bVrNcufOnWPkyJElrYn2TcgOAAAAAAAAAABaqTTt65133lmz3KFDhxg9enSDx6VOcf369atZfuutt7JwWzm47rrrCpb33HPP6NWrV8nqASE7AAAAAAAAAABopSZMmBCLFi2qWU7Tow4YMKDB4zp27LjUlKzjx4+PUvvkk0+WqmN5poqFYhKyAwAAAAAAAACgYVVl8mKpkF1tw4cPb/Sxu+yyS8FyZWVllNqtt94a8+bNq1nu3bt37L777iWtCYTsAAAAAAAAAACglXrhhRcKlocNG9boY7/yla9E165da5bfeeedmDlzZpTS9ddfX7B84IEHRkVFRcnqgcSfQAAAAAAAAAAAaIUWLlwYkydPLlg3aNCgRh+fAnYbbrhhTJo0qWbdK6+8EmuttVaUQvpZnnjiiaJOFTt//vyYMmVKzJo1Kzp37hw9e/aMPn36xMorr7yC1dKeCNkB0GgTyqA1MAAAAAAAAAD/XwqPLVq0qGa5W7du0atXryado2/fvgUhu1dffTW22267KIXrrruuYHnIkCGxxRZbLPf5/uu//iv7HX322WcF61NnvNTFb7fddotjjjmmZKFCWg/TxQIAAAAAAAAAQCs0Y8aMguV11123yeeoe0zdc7aUJUuWxI033ljULnYpPFg3YJekYOKTTz4Zo0ePjn79+sXPfvazqKqqWqFr0bbpZAcAAAAAAAAAQKtUd6rUxkhdy3r37h1twezZswuWu3fv3uRz1D2m7jlbyl/+8peYOnVqzXKXLl1i5MiRzX7defPmxTnnnBOPPfZY3HPPPdGjR49mvyatj5AdAAAAAAAAAACt0r777tvkY0aNGpV1MGsL6gbiVlpppSafI00xW985SzVV7J577hk9e/Zs8nk6dOgQW221Veyxxx7xta99LTbddNNYc801o2PHjjFr1qx47rnnorKyMq6//vqCLncPP/xwHHDAAXHXXXdFp06divIz0XYI2QEAAAAAAAAA0DhLSl0AtdWdCjV1f2uqrl27LtXZraV9+umnceedd67wVLHDhw/Put9tvPHGy9zep0+f7JUCfGeddVYWqnviiSdqtk+YMCEuu+yy+PGPf7wcPwVtWcdSFwAAAAAAAAAAAK3R8ccfn3VOa+5XXue9up3rFixY0OSfYf78+fWesyXcfvvtMXfu3JrltddeO3bbbbcmn2fYsGG5Abu61ltvvXjooYeyrne1nXvuuQW1QKKTHQAAAAAAAAAArdL48eNj4MCBTTpmrbXWiraiR48e9Xa2a4y6nevqnrMlpKlbazvwwAOjoqL5Y00pUHjDDTdkU8ouWrQoWzdjxox44IEHlmsqYtouITsAAAAAAAAAAFqlFLDbbLPNor2qG4ibM2dOk89R95iWDtlNmTIlHnvssRWeKnZF/gztvffeBdPVCtlRl5AdAAAAAAAAAAAshz322CN69erV7NfZbrvtlrm+d+/eBcvTp09v8rnrHlP3nC3RxW7JkiU1y0OGDIkvfelLLVrDTjvtVBCye/XVV1v0+pQ/ITsAakyorCx1CQAAAAAAAACtxi677JK9SmXAgAHZtKrVU52mqV9nzpzZpClxp06dWrC8ySabREtJ4bo0XWuputhV69u3b8Fy+h1CbR0LlgAAAAAAAAAAgFahc+fOseGGGxasmzRpUqOPnz9/fjZda6lCdo888ki8+eabNctdunSJkSNHRil+j7UtXLiwxWugvAnZAQAAAAAAAABAKzV48OCC5YkTJzb62GeffTYL2lVbZ511WnS62Ouuu65gea+99oqePXtGS3vvvfcKlpvSCZD2QcgOAAAAAAAAAABaqT333LNg+cEHH2z0sXX3TSG3ljJnzpy44447Sj5VbPL444/XO30sCNkBAAAAAAAAAEArtfvuu0dFRUXN8sMPP7zUFLDLsmTJkqU6ye2zzz7RUsaNGxezZ8+uWf7CF74Qu+66a7S0jz76aKmw30477dTidVDehOwAAAAAAAAAAKCVWnPNNWPfffctCM+NHj26weOuueaaePPNN2uW+/XrFzvvvHO0lOuvv75g+cADDywIC7aUk046KQvaVevSpUvstttuLV4H5U3IDgAAAAAAAAAAWrExY8ZEx46fx4BuvPHGuOWWW3L3nzRpUhYuq+3ss8/OAmb1SaG8Dh06FLxqB/Ua66233so67hVzqtjzzjsvnn322Ubvv2jRojjxxBPj6quvLlh/1FFHxTrrrLNCtdD2CNkBAAAAAAAAAEArNmjQoDjiiCMK1h100EHxs5/9LD788MOadQsXLsymiN1mm20KurdtscUWccghh7RoF7vUca/aV77yldh8881X6Jx/+tOf4qtf/WpsvfXWcfHFF8dLL72UBenq+vjjj7MA4tChQ+Oiiy4q2LbhhhtmvzOoq+V7LAJQEhMqK0tdAgAAAAAAAADNZOzYsfHcc8/FM888ky0vXrw4zjnnnDj//PNjgw02iK5du8aUKVNi9uzZBcf16tUrbr/99hadqvWGG24oahe72iZOnJi9kvQzr7feerHaaqtFp06dYtasWVnnvfS7qesLX/hC3HfffdGzZ8+i1ULbIWQHAAAAAAAAAACt3Morrxz3339/fO9734u//OUvNesXLFgQr7766jKP6d+/f9x9992x8cYbt1idjz32WLz++us1y2mK2pEjRzbLtebPn19wrTy77757XHvttdG7d+9mqYPWz3SxAAAAAAAAAADQBqy55prx4IMPxhVXXBEDBw6sd78zzjgj/vGPf8SXvvSlFq0xTRVb21577ZXVs6LOPPPMOOqoo2KzzTbLutY1pEePHlkg8ZFHHokJEyYI2FEvnewAAAAAAAAAAKCN6NixYxx55JHZK4Xo0hSy7777blRVVWVToW6++ebx9a9/PTp37tzkc6fOd0uWLFmh+q666qrsVWy77LJL9krmzp0bkyZNyqaGTT97miI3TRG7+uqrxxprrBGDBg3KwoWNCeNBImQHAAAAAAAAAABtUAqStXSnunKZOverX/1q9oJiMF0sAAAAAAAAAAAA5BCyAwAAAAAAAAAAgBxCdgAAAAAAAAAAAJBDyA4AAAAAAAAAAAByVORtAKD1mFBZWeoSAAAAAAAAAADaJJ3sAAAAAAAAAAAAIIeQHQAAAAAAAAAAAOQQsgMAAAAAAAAAAIAcQnYAAAAAAAAAAACQQ8gOAAAAAAAAAAAAcgjZAQAAAAAAAAAAQI6KvA0AAAAAAAAAAPC5hf95lboGgJalkx0AAAAAAAAAAADk0MkOoMxNqKwsdQkAAAAAAAAAAO2WTnYAAAAAAAAAAACQQ8gOAAAAAAAAAAAAcgjZAQAAAAAAAAAAQA4hOwAAAAAAAAAAAMhRkbcBAAAAAAAAAAA+VxURi8qgBoCWpZMdAAAAAAAAAAAA5BCyAwAAAAAAAAAAgBymiwUosQmVlaUuAQAAAAAAAACAHDrZAQAAAAAAAAAAQA4hOwAAAAAAAAAAAMghZAcAAAAAAAAAAAA5hOwAAAAAAAAAAAAgR0XeBgAAAAAAAAAA+NyiiFhYBjUAtCyd7AAAAAAAAAAAACCHkB0AAAAAAAAAAADkELIDAAAAAAAAAACAHBV5GwBYcRMqK0tdAgAAAAAAAAAAK0AnOwAAAAAAAAAAAMghZAcAAAAAAAAAAAA5TBcLAAAAAAAAAEAjVEXEojKoAaBl6WQHAAAAAAAAAAAAOYTsAAAAAAAAAAAAIIeQHQAAAAAAAAAAAOQQsgMAAAAAAAAAAIAcQnYAAAAAAAAAAACQoyJvAwD1m1BZWeoSAAAAAAAAAABoZkJ2AAAAAAAAAAA0wsL/vEpdA0DLMl0sAAAAAAAAAAAA5BCyAwAAAAAAAAAAgBxCdgAAAAAAAAAAAJBDyA4AAAAAAAAAAAByCNkBAAAAAAAAAABADiE7AAAAAAAAAAAAyFGRtwEAAAAAAAAAAD63KCIWlkENAC1LyA4gx4TKylKXAAAAAAAAAABAiZkuFgAAAAAAAAAAAHII2QEAAAAAAAAAAEAOITsAAAAAAAAAAADIIWQHAAAAAAAAAAAAOYTsAAAAAAAAAAAAIEdF3gYAAAAAAAAAAPhcVUQsKoMaAFqWTnYAAAAAAAAAAACQQyc7oF2aUFlZ6hIAAAAAAAAAAGgFdLIDAAAAAAAAAACAHEJ2AAAAAAAAAAAAkEPIDgAAAAAAAAAAAHII2QEAAAAAAAAAAEAOITsAAAAAAAAAAADIUZG3AQAAAAAAAAAAPrcoIhaWQQ0ALUsnOwAAAAAAAAAAAMghZAcAAAAAAAAAAAA5TBcLtDkTKitLXQIAAAAAAAAAAG2ETnYAAAAAAAAAAACQQ8gOAAAAAAAAAAAAcgjZAQAAAAAAAAAAQI6KvA0AAAAAAAAAAPC5Rf95lboGgJalkx0AAAAAAAAAAADkELIDAAAAAAAAAACAHEJ2AAAAAAAAAAAAkEPIDgAAAAAAAAAAAHJU5G0AKEcTKitLXQIAAAAAAAAAAO2ITnYAAAAAAAAAAACQQyc7AAAAAAAAAAAaYVFELCyDGgBalk52AAAAAAAAAAAAkEPIDgAAAAAAAAAAAHII2QEAAAAAAAAAAEAOITsAAAAAAAAAAADIIWQHAAAAAAAAAAAAOYTsAAAAAAAAAAAAIEdF3gaAUphQWVnqEgAAAAAAAABYpqqIWFQGNQC0LJ3sAAAAAAAAAAAAIIeQHQAAAAAAAAAAAOQQsgMAAAAAAAAAAIAcQnYAAAAAAAAAAACQQ8gOAAAAAAAAAAAAcgjZAQAAAAAAAAAAQA4hOwAAAAAAAAAAAMhRkbcBoNgmVFaWugQAAAAAAAAAltuiiFhYBjUAtCyd7AAAAAAAAAAAACCHkB0AAAAAAAAAAADkELIDAAAAAAAAAACAHEJ2AAAAAAAAAAAAkEPIDgAAAAAAAAAAAHII2QEAAAAAAAAAAECOirwNAAAAAAAAAADwuUX/eZW6BoCWpZMdAAAAAAAAAAAA5NDJDiiKCZWVpS4BAAAAAAAAAACKTic7AAAAAAAAAAAAyCFkBwAAAAAAAAAAADmE7AAAAAAAAAAAACCHkB0AAAAAAAAAAADkqMjbAAAAAAAAAAAAn1sUEQvLoAaAlqWTHQAAAAAAAAAAAOQQsgMAAAAAAAAAAIAcQnYAAAAAAAAAAACQoyJvA0BtEyorS10CAAAAAAAAAAC0OJ3sAAAAAAAAAAAAIIeQHQAAAAAAAAAAAOQwXSwAAAAAAAAAAI1QFRGLyqAGgJalkx0AAAAAAAAAAADkELIDAAAAAAAAAACAHEJ2AAAAAAAAAAAAkEPIDgAAAAAAAAAAAHJU5G0A2o8JlZWlLgEAAAAAAAAAAMqSTnYAAAAAAAAAAACQQyc7AAAAAAAAAAAaYVFELCyDGgBalk52AAAAAAAAAAAAkEPIDgAAAAAAAAAAAHII2QEAAAAAAAAAAEAOITsAAAAAAAAAAADIIWQHAAAAAAAAAAAAOYTsAAAAAAAAAAAAIEdF3gagbZhQWVnqEgAAAAAAAAAAoNUSsgMAAAAAAAAAoBGqImJRGdQA0LJMFwsAAAAAAAAAAAA5hOwAAAAAAAAAAAAgh5AdAAAAAAAAAAAA5BCyAwAAAAAAAAAAgBxCdgAAAAAAAAAAAJBDyA4AAAAAAAAAAAByVORtAAAAAAAAAACAzy38z6vUNQC0LCE7aMUmVFaWugQAAAAAAAAAAGjTTBcLAAAAAAAAAAAAOYTsAAAAAAAAAAAAIIeQHQAAAAAAAAAAAOQQsgMAAAAAAAAAAIAcQnYAAAAAAAAAAACQoyJvAwAAAAAAAAAAfG5RRCwsgxoAWpZOdgAAAAAAAAAAAJBDyA4AAAAAAAAAAABymC4WytiEyspSlwAAAAAAAAAAAO2akB2N9vrrr8dTTz0V06ZNiwULFsQaa6wRm2yySQwbNixWWmmlktW1ZMmSeO655+KFF16IGTNmZOvWXnvt2HLLLWPIkCHRoUOHktUGAAAAAAAAAAC0bkJ2NGj8+PFxzjnnZEG2ZenRo0cceuihMWrUqOjVq1eL1bVw4cK4+OKL47e//W1Mnz59mfust956cfzxx8dPfvKT6Ny5c4vVBgAAAAAAAAAAtA0dS10A5Wv+/Plx0EEHxX777ZcbsEtmz54dl1xySQwaNCgeffTRFqnt7bffjq9//etx8skn5wbsktR176STToqtttqq3v0AAAAAAAAAAACWRciOZVq8eHHsv//+cfPNNxes79SpU2ywwQYxePDgWG211Qq2zZw5M3bbbbf429/+1qy1pSlhd9xxx3j++ecL1nfr1i0222yz2HTTTZeavvbZZ5/Njvnggw+atTYAAAAAAAAAaLuqImJRiV+pBoCWJWTHMl1wwQVx1113Faw76qijYurUqTFlypQs4Pbvf/877rzzzlh//fVr9pk7d26MGDEiPv7442arLU1N+/rrr9csp0BdmjI2BeheeumlmDRpUvbvF110UUHY7rXXXovDDjus2eoCAAAAAAAAAADaHiE7ljJr1qz4xS9+UbDuV7/6VVx++eXRp0+fmnUdO3bMppKdOHFi9O/fv2CK1hRwaw4PPPBA3HfffTXLnTt3jvvvvz+OO+64WHnllWvWd+/ePU444YT405/+lO1T7Z577om//vWvzVIbAAAAAAAAAADQ9gjZsZRf//rX8emnn9Ysb7fddnHqqafm7r/uuuvGVVddVbBu7NixWViv2M4+++yC5dNOOy2rL8/222+/VO1nnXVW0esCAAAAAAAAAADapopSF0B5Wbx4cVx77bUF60aPHh0dOnSo97iddtoptt1223jsscey5RTSu+222+Loo48uWm3/+Mc/4qmnniroVnfyySc3eNwpp5yShf7mzJmTLafOe6+88kpsuummUQ4effjhWO2N1UpdBgAAAAAAAAAAsAw62VEgBdBmzpxZszxgwIDYYYcdGnXs4YcfXrA8fvz4otZ21113FSyPGDEiVllllQaPS/t873vfa9baAAAAAAAAAACAtknIjgITJkwoWN5ll10a7GJXe9/aHn744Zrucc1R2/Dhwxt9bN3aKisri1YXAAAAAAAAAADQdgnZUeCFF14oWB42bFijj+3Tp0/079+/ZnnBggUxadKkotS1ZMmS+Pvf/77ctW299dYFyy+++GJ2TgAAAAAAAAAAgPoI2VHglVdeKVgeNGhQk46vu3/d8y2vt956K+bOnVuz3L1791h//fUbfXy/fv1i5ZVXrllOHfbefvvtotQGAAAAAAAAAO3DoohYWOJXqgGgZQnZUWPevHkxderUgnV9+/Zt0jnq7v/qq68Wpba652lqXc1ZGwAAAAAAAAAA0HYJ2VHjgw8+KJhCtXPnztG7d+8mnWPdddctWJ4xY0ZRaqt7nvXWW6/J52iu2gAAAAAAAAAAgLarotQFUD5mz55dsJymV+3QoUOTzpGmca3vnMWqre51SlVbCurNnDmzScdMmjSpYPnTd4vzOwIAAAAAAIDWqO73ZfPnzy9ZLQAAyyJkR27obKWVVmryObp161bvOdtabZdddlmMGTNmhc7xxC/+tsJ1AAAAAAAAQFvx9ttvx5AhQ0pdBgBADdPFUuOzzz4rWO7SpUuTz9G1a9eC5Xnz5kVbrw0AAAAAAAAAAGi7hOzI7Q63YMGCJp+jbuvm5ek419pqAwAAAAAAAAAA2i7TxVKjR48e9XaPa4y63eHqnrOt1XbMMcfE9773vSYd88ILL8RBBx1Us3zbbbfFoEGDVrgWgGTy5Mmx77771iyPHz8+Bg4cWNKagLbB+AI0J2MM0JyMMUBzMb4Azam9jTGpWUaaIrba9ttvX9J6gPos+s+r1DUAtCwhO3JDZ3Pnzo0lS5ZEhw4dGn2OOXPm1HvOYtVW9zqlqq13797Za0WkgN1mm222wrUALEu66WKMAZqD8QVoTsYYoDkZY4DmYnwBmlN7GGOGDBlS6hIAAHKZLpYavXr1KgjULVy4MGbMmNGkc0yfPr1geUUDaHnnmTZtWpPP0Vy1AQAAAAAAAAAAbZeQHTW6desW66+/fsG6qVOnNukcdfffZJNNilLbF7/4xYLl2u2iG6vuMcWqDQAAAAAAAAAAaLuE7Kg3eDZp0qQmHf/KK6/Ue77l1a9fvywEWHvq17feeqvRx6d90/S31bp37x59+/YtSm0AAAAAAAAAAEDbJWRHgcGDBxcsT5w4sdHHvvvuu/Hmm2/WLHfu3DkGDRpUlLrSNLZbbLHFctf2xBNPFCync9WeGhcAAAAAAAAAAGBZhOwosOeeexYsP/TQQ7FkyZJGHfvAAw8ULO+4447Ro0ePZqvtwQcfbPSxdffda6+9ilYXAAAAAAAAAADQdgnZUWDYsGHRq1evmuUpU6bEww8/3Khjr7766oLlffbZp6i17b333gXLt99+e8yePbvB4z799NNs3+asDQAAAAAAAADavkURsbDEr1QDQMsSsqNAx44d49BDDy1YN2bMmAa72f35z3+Oxx57rGZ5lVVWiREjRhS1tjTF69ChQ2uWU8Du17/+dYPHpX3mzJlTs/yNb3yjaNPYAgAAAAAAAAAAbZuQHUs59dRTC6Z5feSRR+L888/P3X/69OlxxBFHFKw77rjjCjriLUuHDh0KXo3pmPfzn/+8YPm8886LRx99NHf/ZdV+7rnnNngdAAAAAAAAAACARMiOpaRw3BlnnFGw7vTTT49jjjkm3nnnnZp1ixcvjvHjx2dTzL755ps16/v06RMnnnhis9S26667xvDhw2uWFy5cGN/61rfi4osvjrlz59asT53rfvvb32b7p32q7b777rHTTjs1S20AAAAAAAAAAEDbI2RHbje7Pffcs2Dd5ZdfHuuvv35suOGGMWTIkOjZs2fst99+MXXq1Jp9unXrFrfddlusvvrqzVbbDTfcEBtssEHN8meffRbHH398Fg7cfPPNY7PNNsv+/YQTTsi2VUt1X3fddc1WFwAAAAAAAAAA0PYI2bFMHTt2jNtvvz0OOOCAgvVVVVUxZcqUeP755+Ojjz4q2JZCd/fee29svfXWzVrb2muvHX/9619jyy23LFg/b968ePnll2PSpEkF4bpk8ODB2TFrrbVWs9YGAAAAAAAAAAC0LRWlLoDytdJKK8Utt9wS3/3ud+Pcc8+NF154YZn7de/ePQ455JAYNWpU9O7du0Vq69evXzz11FPZlLBpqtja09jWlqauTV3ujjvuuOjSpUuUgxT0S7+r2ssAxWKMAZqL8QVoTsYYoDkZY4DmYnwBmpMxBgCgvHRYsmTJklIXQeswefLkePLJJ2P69OmxYMGCbErYTTfdNOtclwJ5pbJ48eJ49tln48UXX4wZM2Zk61LYL3WvS9Papq58AAAAAAAAAEDTpNnkNt9881prTo+IdaK03o2IX9UsvfTSS7HZZpuVtCKg7dPJjkYbOHBg9io3KUQ3dOjQ7AUAAAAAAAAAAFBMWnwBAAAAAAAAAABADiE7AAAAAAAAAAAAyCFkBwAAAAAAAAAAADmE7AAAAAAAAAAAACCHkB0AAAAAAAAAAADkqMjbAAAAAAAAAAAAn1sUEQvLoAaAlqWTHQAAAAAAAAAAAOQQsgMAAAAAAAAAAIAcQnYAAAAAAAAAAACQQ8gOAAAAAAAAAAAAcgjZAQAAAAAAAAAAQA4hOwAAAAAAAAAAAMhRkbcB+P9ef/31eOqpp2LatGmxYMGCWGONNWKTTTaJYcOGxUorrVSyupYsWRLPPfdcvPDCCzFjxoxs3dprrx1bbrllDBkyJDp06FCy2oDWOb4sXLgwXn311Xj55Zfj/fffj08//TR69OgRPXv2jC222CI233zz6NhRPh9ai3IbY4C2pdzHmKqqqnj22Wdj0qRJ2eel9D4nva9Zb731YtNNN81q9b4GylO5ji8fffRRPP300/HGG29k/7548eJYbbXVsnFl6NCh8YUvfKFktQGtn3u9AAAA5U/IDnKMHz8+zjnnnOzmxrKkL2gOPfTQGDVqVPTq1avF6kpfDl188cXx29/+NqZPn77MfdIN3uOPPz5+8pOfROfOnVusNqD1jS/pC6Jx48bFgw8+GI8//njMmzcvd9/0BdJBBx0Uxx13XGy00UbNWhfQNsaYxpg7d24W5E1fqNd2yCGHxHXXXVeyuoDWOcak9zYXXHBB3HLLLVkIJs+qq64aO+64Y/yf//N/Yvfdd2/RGoHWNb7ceeedcckll8TDDz+chWDyfPnLX46jjjoqDjvssKiocMsVykm6h5rCu08++WT2z2eeeSZ7sLBav3794s033yxJbe71As3FA9VA81r0n1epawBoWR2W1Hd3CNqh+fPnx+GHHx4333xzo/Zfa621soDKdttt1+y1vf3227HPPvvE888/36j9v/KVr8Rdd90V6667brPXBrSu8SXVsv3222c3mJuqS5cu8Ytf/CJOPPFET1JDGSmnMaYpfvrTn8bYsWOXWi9kB+Wl3MeY1FHq/PPPjzFjxmS1Ntb+++8ff/zjH5u1NqB1ji+zZs2Kgw8+OO69994mHZfuxaRxZeDAgc1WG9CwJ554In7zm99k9z3eeeedevctVcjOvV5o/cotxOuBaqC5pMBuCud+7oSIKHU37/ci4vP7yi+99FJsttlmJa0IaPuE7KDOFzPf/va3s5sVtXXq1CnWX3/97ENH+pDy8ccfF2xfeeWV46GHHoqtttqq2WpL0wSkqVHqdnnp1q1bDBgwIKs91fbZZ58VbE8fjiZOnFgWnWqgPSu38WX27NmxyiqrLHNbmoJpnXXWycaNOXPmxOTJk7Npmuo65phj4tJLLy1qXUDbGGMaK92ATtdO9dclZAflo9zHmNSh4cADD4zbb799qW2ptvS+JnWuS192vfXWW1kHzWpCdlBa5Tq+fPLJJ1m3y2V11Ushv759+2YPHKUv1t97L32xs3TXqcceeyz69+/fLPUBDUud4U44IX3527BShOzc64XWqxxDvB6oBpqbkB3A/6cPMNSSphWqe2M3TfUxderUmDJlSvZU4b///e9sqpB0s7da+pJmxIgRS930LaY0JUrtmy4pBJNuFn3wwQfZm4ZJkyZl/37RRRdl26q99tpr2VQlQGmV8/iSbLDBBjF69OjsJlH6QinVlMIv6YNTmmrtxhtvzG4K1XbZZZdl0yYBpVfuY8yypPBu6lpTHbDr3r17i9cAtI0xJo0ltQN2aZrG//qv/8rey3z44YfxyiuvZF82pc9MKWiXltNnqfTFti+RoLTKdXw544wzlgrY7b333tm6FIx59tlns0417777bja2pKBvbdOmTcumowbKU5ousdTc64XW6+mnn47/+Z//aTBg15LSg0d5Abs0hqR7v0OHDo1BgwZlobq692dOPvnkOPbYY1uoWgCA1kvIDmpNA5Ke1qntV7/6VVx++eXRp0+fmnUdO3aM/fbbL3tisPYTyekGarrp0RweeOCBuO+++2qWO3fuHPfff3/Wxjs9vV0tfTmdntD805/+lO1T7Z577om//vWvzVIb0LrHl6233jobT9KN3VGjRmVfNtceP6qfok5TB6QvuNLNmNrOPvvs7EsvoHTKeYypzy9/+cvsy6MkTXf0ox/9qMVrAFr/GHPTTTdlDwNUSzWl8Et6ECC9b6kbokt1brLJJtlnqfRwQXpoACiNch1fUojud7/7XcG6o48+OgsDfvnLX15q/0033TQbi37+858XrE/TtP3tb38ren1A06Qu/jvssEMWIEmh/NRRKt0rLSX3eqHtKocQb+KBagCA5iFkB//x61//OutqUG277baLU089NXf/9GXwVVddVbBu7Nix2U3iYkshltpOO+20rL48qS143drPOuusotcFtN7xJT2xWFlZGY8//ngMHz68UV1c1lhjjRg/fnxBt6l0U+aOO+4oWl1A2xhjGpJu6qYv0aulm7h5U1gDpVXOY0zq7lJ7Grg0reQjjzwSW2yxRaPPkd7fAKVRruNL+pxUVVVVMD3shRde2OBxZ555Zha4q63UQR5oz/baa6+aMEkKpKUx57vf/e5SoZJScK8X2oZyDPF6oBoAoHkJ2UFENk3ZtddeW7AuPeXTUOhkp512im233bZmOd0cvu2224pa2z/+8Y/sCaNqKdySPrQ15JRTTikIwqQnvtO0SEDLKtfxJYXs9thjjyYflzpKHHLIIQXr0o0boDTKdYxpqOY0tWOajiRJnWn23XffFrk20LbGmNQBKwXtanfIHDhwYNGvA7Sv8eXVV18tWP7Wt75V0FkqT3XHvdomT55c1NqAxttwww2zaRHT/5vlxL1eaP3KMcTrgWoAWrNFixZl3Vd///vfZ/f3zj///Ljhhhuyv2+Lbfr06TFu3Lj4zW9+E+eee27893//d9Y5evbs2UW/Fm1TeX3ChBJJNyVmzpxZszxgwIDsCaTGSF8S15Y+lBRTmo6kthEjRjSq00va53vf+16z1ga07vFledX+UiuZOnVqyWqB9q41jjG//e1v48knn8z+fdVVVzUVCZSxch5j5s+fn91sq/aFL3zBtNPQipTz+FK3e0vfvn0bfez6669fsJy+qAaozb1eaP3KMcTrgWqg5S2KiIUlfqUaqE+aLvyPf/xjNhNE6naaHiBLQezqV2M/hzeXFGxLHZrXXnvt2GabbeKoo47KusSnTs/p76fNN988Ntlkk+whvSVLlqzQtdLsFzvuuGOst9562fvqk046Kevgetxxx8Vuu+0WPXv2jIMPPjjrTAv1KZ93gFBCEyZMKFjeZZddGvWkT/W+tT388MMxZ86cZqstPYXUWHVrS08yAS2rnMeX5VV3WrWPP/64ZLVAe9faxpj0ob721Ehpyth0QxcoT+U8xvzP//xPQRDmgAMOiE6dOhXt/ED7HV/S1NO1zZs3r9HH1t23V69eRasLaBvc6wXKjQeqAdqWu+++Owter7XWWlkw/Pvf/3724Ht62K0pn29bosPzFltskc1UUd9U5anb/GGHHZYF4Zbn+8gUzktdoVOgMN0/yJNm3rnxxhuzYJ+urtRHyA4i4oUXXihYHjZsWKOPTV8M9+/fv2AAnjRpUlHqSoP+3//+9+WuLSXSa3vxxRdXOOUNtI3xZUVbKdeWnu4ASqO1jTFHHnlkzJ07N/v3rbbaKo4++uhmvR7QdseYul9QpydRgdajnMeXwYMHFyw//fTTjT629hSQyde+9rWi1QW0fu71AuXIA9UAbctf/vKXuPfee+ODDz6IcpWCc9/85jfjjTfeKFjfo0ePLHi30UYbRefOnZfqtJqCdp999lmTrvWTn/wkLrjggoJ16SG/1LV+yJAhSz0clx7i23///bMHfGFZhOwgIl555ZWC5dTquynq7l/3fMvrrbfeqvkiOunevftSU4/Up1+/flnb19p/Kbz99ttFqQ1o3ePLinjssccKljfeeOOS1QLtXWsaY6666qrsA36SPiBfeeWVje5YA5RGOY8xdUMvW265ZfbPqqqquO+++7LOdl/84hezz1Crr756dnMuTceWppeo/RkLKI1yHl/23HPPbOyo9sQTT8Tf/va3Bo+bPHlywdPuK620UowcObJodQGtn3u9QDnyQDVA+1H7s26pLFq0KJuutXYIcM0114zrr78+62iXHiT517/+Fe+99142dWzt6dnTZ/PUla6xbrvttrjkkksK1n3nO9/JQn6pc+uzzz4bM2fOjIceeigL91VL9xfTdLWmjmVZhOxo91Jb1Lrtr1NyuSnq7p8G5mKoe56m1tWctQGte3xZXp988kmMGzeuYN3uu+9esnqgPWtNY8y7774bJ598cs1y+iC82WabNcu1gLY/xqTOCulmW7U0TWz60jlNSZ2mOkrvTW699dZsn/RFdto/hV9uv/32bHqJFLhL0z8ApVHO40uSgrlnnHHGUjfh6+tol0J+aexJXfWqnXvuudG7d++i1QW0fu71AuXIA9UAbVMKrn3rW9+Ks846K+66667sHn3dwFkpXHPNNdlUsbU7qqa/iw4++OCC7nWp/vS5uu49vMsvvzxee+21Bq+TPp+feuqpBeuOOuqo7P5gujdY20477RSPPvpofPWrX61Z9+mnn8aoUaOW62ekbROyo91LKenabfXT4N3Um6DrrrtuwfKMGTOKUlvd86y33npNPkdz1Qa07vFleaU3tLNnz65ZTm2UU6cHoOW1pjHmmGOOiY8++ij79/QBNn2wB8pbOY8xKUxXu7ZVVlklmyoyTfHQmG5T77zzTnbj7rTTTitKPUDbGV+qpfGhdhe69GVEmup+n332iUsvvTQqKyuzaauvuOKKrHNm6qZZ+yZ/Ov7EE08sak1A6+deL1BuPFAN0PYceeSR2cOms2bNij/96U9xzjnnxN577x1f+MIXSl1aFnxL3zPWduGFF9bb3T59Nj/ooIMKOuGNHj26wWtdffXVBZ3o0vcSY8eOzZ1dZ7XVVsu66XXp0qVm3c033xz//Oc/G7wW7UtFqQuAUqsdFklSy/2mTl1Wt7Vq3XMWq7blaeHaXLUBrXt8WR4TJ06Miy66qGBdCsrUnqoEaDmtZYxJLdnHjx9fs/z73/8+mz4NKG/lPMZUh3arpbpS6D91rKuuNd2A22677bKpjtJNxUceeST+8Ic/ZB20qp1//vnZF9U//vGPi1IX0PrHl2ppOpqbbrophg0bFmPGjMmmj0nTxdx9993ZK8/WW2+d7Z+eggeoy71eoNx4oBqg7SnnGWTuv//+ePvtt2uW+/fvHz/84Q8bPC6F6lLgrfqBvdSN7rLLLsuCcXmuuuqqguXTTz+9we8lUthv//33r+mel+4DXHvttdk9RKimkx3tXt0bEcvzpW+3bt3qPWdbrA1oX/8PpyejU4eG9Iay2tChQ+PYY48tST1A6xhjUrCldnglfWDecccdi3oNoP2NMXVDdh9++GG88cYb2b9/5StfyaZtvPLKK+MHP/hB1oUh/TPdWEvd7rbYYouCY9NU1rWnngXa9/hSWwr+/dd//Vc899xzjfqyOQXsUvc673WA1j7+Ae2DB6qBFZO+K1pU4tfn31fROqRpa2tL3xc05qG7DTfcMLbffvua5YULF8a9996bu/+0adOyz/LVevToESNGjGhUjYcffni9NYOQHe3eZ599VrBcuwVoY3Xt2rVguXZ3hLZaG9B+/h+eP39+7LfffgVPl6Rp2VI3mE6dOrV4PUDrGWOOP/74mumL0jRwqfU70DqU8xiT92VymnLtwQcfjPXXX3+Z29PTsX/+858LpsdI73OMTdCyynl8qW3OnDnx05/+NDbeeONsetiGPPHEE/Htb3876xrwv//7v0WvB2j9Wsv4B7R9HqgGoBQmTJhQsDx8+PBGH7vLLrsULNf3Ob3uddJDcY3tIp32rR04f/XVV+O1115rdJ20fUJ2tHt1nxhMc4E3Vfpipr5ztsXagPbx//DixYvjoIMOyp5srJaCdakt88CBA1u0FqB1jTH33XdfNs1atbFjx8aaa65ZtPMD7XeMyTvPBRdcEGussUa9x6bpj84777yCdWkKCF9QQ8sp5/Gl2jvvvBNf/epXs/cv1ePDF7/4xWw6mn/+859Z2Hfu3Lnx+uuvx3XXXZd10ayWtm+77bYxfvz4otYEtH6tYfwD2j4PVANQCu+//3689957BQ+PDBkypNHHp/BbbS+88ELuvnW3DRs2rNHXqaioiK997WuNvhbtj5Ad7V5qD1rfE4WNUfcLmbrnbIu1Ae3j/+Fjjjkmxo0bV7Oc2jan6df22muvFq0DaF1jzKeffhpHHXVUzfKuu+4aI0eOLMq5gZZRzmPMss6TQrzf+c53GnX8/vvvH6uttlrBz/bUU08VpTagdY8v1fWkp+lTWK7aEUccEX//+9/j6KOPzsJ26Qn4NGXjgAED4pBDDomnn346zjzzzJr9Fy1aFN///vez6asBWsv4B7R9HqgGoFTqfj5Of+80pbPzoEGDCpYnT56cffZuzLXqHtvUa/lsT21CdrR7dW9EpCeRlyxZ0uQpROo7Z7Fqq3udUtYGtO7xpTFOP/30+P3vf1+w7je/+U388Ic/bLEagNY5xpx22mkxderU7N9Ta/XLL7+8KOcFWk45jzHLOs9WW20VnTt3btTxqeNL3SdSn3nmmaLUBrTu8SU5//zz4+WXX65Z/uY3v5l9Lqrv5n96GOncc8+NH/zgBwXhmRNPPLFodQGtn3u9QKl5oBqAUknTrtbWt2/fJh2/1lprFXRxTl2h33jjjWa5Vt39656P9q2i1AVAqaXpgtIHieobugsXLowZM2bE2muv3ehzTJ8+vWC5d+/eRamt7nmmTZvW5HM0V21A6x5fGpKmUas7ldrPfvazOOGEE1rk+kDrHWPSB9vaoboxY8ZE//79V/i8QMsq1zEmWVYNG2+8cZPOkTpRPfjggzXL6WcDWkY5jy9VVVVxySWXFKxL4bmOHRv3nPIvfvGLrBNM6hKT/OlPf8qmYmvqDX2gbXKvFyglD1QDxfXvsqshdTZrqhTc8n6qZdS997beeus1+Rx9+vSJKVOmFJxzo402Wmq/mTNnrtC11l133YJl9w2pTciOdi9N77H++uvHW2+9VbMudV5pys3d6k4t1TbZZJOi1Ja++Kkt3ZhtqrrHFKs2oHWPL/W59NJLs5sutR133HFZUAYoH+U6xnz88ccF3WhOPvnk7NVU119/ffaqlqZ2/Oijj1a4PqB1jzHJhhtumHWUSk+sVlt11VWbdI66+3/44YdFqQ1o3eNLmhL2gw8+KAgEfuMb32j08SlMt+WWW8bzzz+fLaf3RI8//ng2dSyAe71AqXigGii+P0a52XfffZt8zKhRo2L06NHNUg+FZs+eXbDcvXv3Jp+j7jF1z5nMmzcve4BuRa7VmOvQfpkuFpZxM2LSpElNOr7uPNzFurnRr1+/7OZz7ekAat+EbkjaN027UvsvBE9PQ8sq1/Elzw033BA//vGPC9YddthhMXbs2Ga9LtA+xhigdSnXMaZTp05Lda6bP39+k86RpnGsLU1tDbScch1f6k41k7rxpq57TbHBBhvU23UKaL/c6wVKwQPVAJSDukG12lO/Nlbt99LLOmfeuqZeqzHXof0SsoOIGDx4cMHyxIkTG33su+++G2+++WbNcufOnWPQoEFFqSvdyN1iiy2Wu7YnnniiYDmdq6k3h4G2Ob4syx133JEF6mp3oBoxYkRceeWVxg4oU61pjAFan3IeY4YMGVKw/P777zfp+LrTPPTs2bModQGte3ypG9itqGj6JCCpntrqPkEPtF/u9QItzQPVAJSLug+8plkqmqpr165Lda1r6DrLc63GXIf2y3SxEBF77rlnnH/++TXLDz30UBYyacxNigceeKBgeccdd4wePXoUtbYnn3yyZvnBBx9s9DQjad/a9tprr6LVBbT+8aW2++67L0aOHFnwBdAee+wRN910U3TsKJMP5aocx5iBAwcu9R6ksTd+b7zxxprl4cOHF0wzW/cLa6B9jjHV9t5772zcqPbss8826fi6+9edvg1on+NL3cDtO++80+Rz1O1ct9Zaa61wXUDb4V4v0FI8UA0U04YbbhgvvfRSlKNZs2bFhx9+mHX4rRuOakgxP68df/zxcfHFF0dza61T3NbtJrdgwYIVfjBuWR3qlrUuXasp3ewacx3aLyE7iIhhw4ZFr1694oMPPsiWp0yZEg8//HB2o7YhV199dcHyPvvsU9Ta0pdHZ599ds3y7bffHv/93//d4A3kTz/9NNu3OWsDWvf4Uu2RRx6J73znOwVvaFN948aNE2qBMleOY0x6j7Lzzjs3+bjHH3+8YHmdddZZrvMAbXuMqbbrrrtmN7iqn079+9//Hq+99lpstNFGDR778ssvLzXV5A477FDU+oDWOb6k6WFrmzp1arz++uvZF0qNke7FPP300wXrGnss0D641wu0BA9UA8WW7sFsttlmpS6DVqzu+91ldZxrSN2Ocst6D72sdelaTQnKNeY6tF/eSUH6H6Fjxzj00EML1o0ZM6bgCZ9l+fOf/xyPPfZYzfIqq6ySPQlUTKnt/9ChQwvm/P71r3/d4HFpnzlz5tQsf+Mb3zAFHJRAOY8vyTPPPJM9+Vz7DWMaL+6++25PZkArUO5jDNC6lfMY07179zjooIMK1p177rmNOvbnP/95wfL2228fvXv3Lmp9QOscXzbeeONYb731CtZdeOGFjT7+oosuKnjifeWVV84+XwFUc68XaG4eqAagHNUNqtV+b9tYdY9ZVvitW7du0alTpxW6VmOuQ/ulkx38x6mnnhq/+93vshsb1R9E0tQlp512Wu70H0cccUTBuuOOOy57Ers+ddtw//Wvf22wa0L6Emi33XarWT7vvPOyzi7bbbfdMvevrn15vnAC2s/4krq4pC4w6WnoaoMHD86edPSGEVqPch1jgLahnMeYND1G6sRQ/eRrmj42BebSlEh5LrvssrjtttsK1p1++un1XgdoX+NLCvCm+y7Vfv/738dWW20VBx98cL3Xueeee5a693LAAQc0eboioHVxrxcoJx6oBiid1DG0oc+nxZD3nrHc1X3Addq0aU0+xzvvvFPvOWtPA/zee+8VXGvddddt9HXS/YfGXIf2ScgO/iP9pXfGGWdkr9pftqSpQc4666zo06dPtm7x4sXZB5J0Izdtq5a2n3jiic1SWwrBDB8+PB544IFseeHChfGtb30ruwFz5JFHZk9GV6eqr7zyyqzutE+13XffPXbaaadmqQ1onePLu+++m40rs2bNKugIc8opp2Q3Y5rKlI5QOuU4xgBtRzmPManbVArppO5X1VIA57nnnsvW9+3bt2Z9qulXv/pVFpap7fvf/3722QpoeeU6vqTPRFdccUX8+9//zpZTd71DDjkkC86cdNJJS02RNHny5Lj44ouzEG+qtVq6V/Ozn/2s6PUBjffEE08sNdVT8uKLLxYsp8D+Qw89tMxzpLGm2B3j3OsFGsMD1QCtyy677JK9WLYvfvGLBcu1P983xowZMwqmmO3SpUsMGDAg91q1Q3bpWl//+tcbfa26tW2yySZNqpW2rcOShuZhgHYk3QzdZ599orKysmB9ainar1+/WG211eKNN96Ijz76aKm2ow8++GBsvfXWDV5jebvAvP/++9mT0+n6da+d/gJJ/ytPmTJlqfnLN9xww/jb3/6WJbaB0im38eXhhx/OpgkoFm8noLTKbYxZHqNHjy4IyqQvs6+77rqinR9om2NMVVVV7LvvvkvVls63wQYbRM+ePbOHCtJnpbqGDBmSdYbxhROUTrmOL48++mgWgKk99WvtJ9hTyDedNz1Fnx5gWtZ0uHfeeWf2swGl079//3jrrbdW6BwNfS5xrxfap/pCvCmUX23ttdfOum8vT4i3KeNLej/y1a9+taDDT3qgOgV1l2e88EA1QNuU3tf+8Ic/rFlOM0Kk7wtbQgq9rbPOOjXLqev7J598koXlGiPdw6v99+Cmm24akyZNWua+Rx11VMGDtum7hzQjRmOl709r/15uvfXWGDFiRKOPp23TyQ7q3AS9/fbbs79c/vjHPxZ8cbOsL2WS9KXNuHHjGnVjd0WkD2PpQ1S6QVv7acv0QS49obQs6Sml9LS3my5QeuU8vgCtnzEGaK9jTAripOv86Ec/iuuvv75mffUX03n17b333nHzzTcL2EGJlev4kqbfSV2t0tSxdQM66en59Krv/s0111yTdZoCyONeL7RuBx54YKNCvClQm9fVqJgPF7766qtLTaGXumGOHDlyuc7ngWoAiu0LX/hC9qruMJceanv22WezB08aG3Cv+944T91tEydObHSdixYtiqeeeqrR16L96VjqAqDcrLTSSnHLLbdkN2zrGzDTU0DHHHNMlpAuZheX+qSnuNOgfv7559dMm7Isaduvf/3rePLJJwumSAJKq5zHF6D1M8YA7XWMSU++pi+n0jRI9YVuUieINDXEPffcE3fddZeAHZSJch1fttlmm/jHP/4RY8eObdTUMKlj1rnnnpuFYwTsgMZwrxcAgPZkjz32KFhOHeobq+6+e+21V6Ovk0J2KXze2DDf3Llza5Y33njj7AXVTBcLDZg8eXJ2A2P69OmxYMGCWH311bP2o+nLm3QjuJRTqqR0d3rSsfoJ6jRlSbohnaY9Sk+DA+WtXMcXoG0wxgDtdYxJNaVp1FJniTTF2hprrJFNR5FqS5+ZgPJWruNLetr+6aefzrrEpOlr0y3VNJ1t6kaVpmdbf/31S1Yb0Pq51wutS7lNR52mtEtT2xWLr44B2qZSThebpK7MqZNz7b9PUxf7un/n1fX666/HRhttVPP3U+fOnWPmzJnZZ/I86T30888/X7OcOs7X/tnzHHzwwXHjjTfWLJ988snZAy9QTcgOAAAAAAAAAADaqFKH7NIUsQMHDoxp06bVrLv66qvjsMMOq/e4H/zgB3HTTTfVLB9wwAFZR/z6XHrppXHsscfWLKdudOmBlvoe3nvllVeyh1zSA39JetAldbgfNGhQo34+2gePPwEAAAAAAAAAAA168803sw50tV9pXX26du0aZ555ZsG6k046KSZNmpR7zB/+8IeCgF2nTp1izJgxDdZ35JFHFnSc/9e//hUnnHBCbrfWTz75JOtiVx2wS0aOHClgx1Iqll4FAAAAAAAAAAC0Jg899NAy19cNs3344Ye5+w4YMCB7Fdvhhx8el1xySbz88ss1NWy77bYxduzYLNRWUfH/I0z//ve/s3W//OUvC47/0Y9+lHWla0iXLl3ivPPOy85Z7Xe/+1188MEH2TnT9LPV/vKXv2QBvL///e8163r06BE///nPi/Iz07aYLhYAAAAAAAAAAFq51FVuRY0aNSpGjx6duz11rdtggw0K1r3xxhvRv3//Bs+dpmXdZpttsiBdbSnYtuGGG8a8efOycy1cuLBg+9e+9rVsettu3bo1+uc45phj4vLLL1/q99O3b99Ya6214q233sqCd7WlaWJvvfXW+O53v9vo69B+mC4WAAAAAAAAAABoVptuumnWPa5fv34F62fPnh0vvvhiNrVr3YDdzjvvHPfff3+TAnZJ6pqXutTVlvqQTZ06NZ599tmlAnYrr7xy3HLLLQJ25BKyAwAAAAAAAAAAmt2WW24Z//jHP+L000+PNdZYI3e/NK3rlVdeGQ888ECsvvrqTb5O6kp30UUXZaG+NC1tfdPLHnjggfHSSy/FiBEjmnwd2g/TxQIAAAAAAAAAAC0qda178skns4DbrFmzolOnTrHOOuvEkCFD4ktf+lJRrzVt2rSYOHFi1snus88+i1VWWSUL8qXpa1ddddWiXou2ScgOAAAAAAAAAAAAcpguFgAAAAAAAAAAAHII2QEAAAAAAAAAAEAOITsAAAAAAAAAAADIIWQHAAAAAAAAAAAAOYTsAAAAAAAAAAAAIIeQHQAAAAAAAAAAAOQQsgMAAAAAAAAAAIAcQnYAAAAAAAAAAACQQ8gOAAAAAAAAAAAAcgjZAQAAAAAAAAAAQA4hOwAAAAAAAAAAAMghZAcAAAAAAAAAAAA5hOwAAAAAAAAAAAAgh5AdAAAAAAAAAAAA5BCyAwAAAAAAAAAAgBxCdgAAAAAAAAAAAJBDyA4AAAAAAAAAAAByCNkBAAAAAAAAAABADiE7AAAAoKx06NBhhV8PP/xwqX+Mdi/9NyjGf0sAAAAAgFITsgMAAAAAAAAAAIAcQnYAAAAAAAAAAACQQ8gOAAAAAAAAAAAAcgjZAQAAAAAAAAAAQA4hOwAAAAAAAAAAAMhRkbcBAAAAoNzstddesffeeze43xe/+MUWqYf6/xtceeWVDe539913xz333NMiNQEAAAAALA8hOwAAAKDVGDJkSBxxxBGlLoNGWGeddRr132ratGlCdgAAAABAWTNdLAAAAAAAAAAAAOQQsgMAAAAAAAAAAIAcQnYAAAAAAAAAAACQQ8gOAAAAAAAAAAAAcgjZAQAAAAAAAAAAQA4hOwAAAAAAAAAAAMghZAcAAAAAAAAAAAA5hOwAAAAAAAAAAAAgh5AdAAAAAAAAAAAA5KjI2wAAAADA8nnxxRfj3nvvjRdeeCEmTZoUM2bMiE8//TSqqqpijTXWiLXWWiuGDBkSW221VXznO9/JllfUZ599Fvfdd19MnDgxu+7rr78eH330UXbdLl26ZNfdcMMN4ytf+UoMHz48dt5556iocGsIAAAAAKAhOtkBAABAkS1ZsiR23XXX6NChQ+6re/fu8c9//rPZarjooovqvX56XXnllc12/dauvt/b6NGjl3nM3Llz45JLLsmCbIMHD44zzjgjbrvttnjppZeykN28efNiwYIF8f7772frbrjhhjj66KNj3XXXjf333z8mT568XLWmMN3hhx8evXv3jm9/+9tx4YUXxkMPPRRvvPFGfPjhh7Fo0aKstunTp8ejjz4aY8eOjd122y369u0bv/nNb2L+/Pkr+NsCAAAAAGjbhOwAAACgyFIQKwWo1llnndx9UugpBatS97Fie/rpp+O0006rd5907SOPPLLo126vUte6TTbZJH784x/HlClTmnTswoULszDe5ptvHueee24W0myM9Gfo2GOPza57zTXXZB3rmuK9996Lk046KeuolzrfAQAAAACwbEJ2AAAA0AxSV7GbbropOnbM/+j997//PU444YSiXveTTz6JAw44IAtu5RkwYEBcccUVRb1ue5UCcSmotscee8Tbb7+9QudKHeXOPvvs+P73v99gd7n0ZydN+3rppZdmnepWRJrOdptttokHH3xwhc4DAAAAANBWCdkBAABAM/nmN78ZZ555Zr37/O53v4s77rijaNdM3enq66TWuXPn+OMf/xirrrpq0a7ZXi1evDgLxKUpV4vp1ltvjYMPPjh3+//+7//GdtttV9TphufMmRP77rtvPPXUU0U7JwAAAABAWyFkBwAAAM1o1KhRse2229a7zxFHHBFvvvnmCl8rdadL047W57zzzouhQ4eu8LWIbKrWFIhrDum/4y9/+cul1j/zzDMxfPjw+Pjjj4t+zTT97Le//e346KOPin5uAAAAAIDWrKLUBQAAAEBb1qlTp/jDH/4QgwcPjlmzZi1znxRqSh3RHnvssaioWL6P6i+99FIcf/zx9e6z++67F3162vbq97//fVx++eW52/v37x/bb799rLPOOrH22mtHhw4d4v3334/JkyfH/fffn03r25Cf//znMWLEiBg4cGC2PHPmzNhvv/3i008/ze1SmAKdm266aXbNnj17ZmG89957Lx599NF44YUXGrzm9OnTs+lvr7rqqgb3BQAAAABoL4TsAAAAoJmtt956cd1118Vee+1V7xSgaWrZ888/f7k6kO2///4xb9683H369OkT119/fRb2YsW89tprceGFFy61PgUkf/SjH2WvL33pS7nHL1y4MJuy9+STT86Cd3nmz58fJ554Ytx1112xZMmSLIg5bdq0pfb74he/mHVM3GOPPeqdBviNN96IU045JcaNG1fvz3fttddmYczNNtus3v0AAAAAANoL08UCAABAC9hzzz0b7CJ3wQUXZF3OmurHP/5xTJo0qcFuer169WryuVla+l3OmTOnYN1WW20VL774YlxyySX1BuyqO8794Ac/iH/+85/x1a9+td5977nnnizUd80118Sf//znpc4zduzYrIthCuDVF7BLNthgg7j99tvj6quvrjdsuXjx4rjooovqPRcAAAAAQHsiZAcAAAAt5Lzzzqs3VJW6lR188MHx7rvvNvqct9xySxbAqs9ZZ52VTV1K80jT8KYA3KBBg5p03Oqrrx5/+tOfYsMNN6z3z8Q555wTp556asH6lVdeOQvgpSmCmzrF8GGHHdZgx8T05ypvWloAAAAAgPZGyA4AAABaSJcuXbJpQuvrODZjxoysy1nqJtaQyZMnZ1OT1ieF684+++zlqpeG7bjjjjF+/Pjo1q3bch3fs2fPZU49W9uNN94Ys2bNqlnu2LFjFrD71re+FcsrTUNbX8e9NPXwvffeu9znBwAAAABoS4TsAAAAoAWlrmVXXHFFvfukrmi//OUv691nwYIFccABB9TbbSxND3vzzTdn08VSfKuttlpcf/312bStK2LfffdtcNrYugG5b37zmyt0zRTUSx3y6pO67AEAAAAAIGQHAAAALW7//fePI488st59Ro8eHY8//nju9lNOOSWeffbZ3O0dOnSI6667LtZdd90VqpV8acrVvn37Fu3PRGMMGDCgwXBcY+22225ZUDDPxIkTi3IdAAAAAIDWTsgOAAAASuDiiy+OzTffPHd7VVVVjBw5Mv79738vtS1NFZqOr88JJ5wQe+yxR1FqZdldAg855JCinW+//fZr1H7HHntsdO3atWjTF9f3Z+S1116LuXPnFuVaAAAAAACtmZAdAAAAlEC3bt3i1ltvjZVXXjl3n7fffjt++MMfLrXu0EMPrffcQ4cOjfPOO69otbK0I444IlZaaaWiTiO86qqr1rtP+rNS98/DihoyZEjutiVLlsS//vWvol4PAAAAAKA1ErIDAACAEhk0aFD83//7f+vd5+67767pWldfd7tqKaj1xz/+MTp37lz0evncvvvuW/RzbrrppvVu33777WP11Vcv+p/B+kydOrWo1wMAAAAAaI2E7AAAAKCEDjvssCw4V59TTjklnnvuuRg1alQ8/vjj9e57xRVXxIABA4pcJbWlDnZf/vKXi37e1M2uPltttVXRrzlw4MB6t8+cObPo1wQAAAAAaG0qSl0AAAAAtHe/+93v4qmnnorJkycvc/uCBQtir732ivfee6/e8xx55JGx//77N1OVVEsBuy5duhT9vKusskq927/xjW+0+DU//vjjol8TAAAAAKC10ckOAAAASiwFnW699dZ6g1vvvPNOLF68OHf7ZpttVjOtLM2rb9++zXLeHj161Lt9vfXWa/Frzp8/v+jXBAAAAABobYTsAAAAoAwMGTIkLrjgguU6tlu3bllIL/2T5rfGGms0y3m7d+/e4tdt6JqpiyIAAAAAQHsnZAcAAABl4ic/+Unss88+TT7uv//7v7NOdrTukF2HDh1a/LoNXXPJkiVFvyYAAAAAQGsjZAcAAABl5JprrmnSdKT7779/HHHEEc1aE4W6du3arq4LAAAAANDeCdkB/L/27h+kyr4N4Ph1nhSKKKsh2sSWIoK2AqcioWYJE43+CBY2RENS0pBWNpX0DwKtoT+otUVQ0VBRTgnRUkOBDQYNlZAUUWLnQR/e4eXtdyw9x+P7nM9nMbyv+/5dcKbky30AAGAOWbZsWfT19cW8efOmnF25cmV0d3fPyl4AAAAAAFCqRHYAAAAwx3z8+DHGx8ennGtpaYnFixfPyk4AAAAAAFCqRHYAAAAwhwwPD0dTU9NvzZ44cSKGhoYKvhMAAAAAAJQykR0AAADMERNvr2toaIiRkZHfmh8dHY36+voYGxsr+G4AAAAAAFCqRHYAAAAwR7S3t8fAwMAf3TM4OBhtbW0F2wkAAAAAAEqdyA4AAADmgIcPH8apU6emdW9XV1fcu3cv7zsBAAAAAAAiOwAAACi6Dx8+xI4dO+Lnz5/JmUwmk7yWzWZj165d8f79+wJtCAAAAAAApUtkBwAAAEU0Ecjt3LkzZyC3aNGiePDgQSxZsmRGoR4AAAAAAPDnRHYAAABQRKdPn4779+/nnLl06VLU1NRET09Pwb5yFgAAAAAA+DWRHQAAABTJs2fP4ujRozlndu/eHY2NjZP/3rZtW+zbty/nfHt7ewwMDOR1TwAAAAAAKGUiOwAAACiCz58/R319fYyNjSVnVq9eHRcvXvyv3509ezbWrl2bvGd8fDwaGhpiZGQkr/sCAAAAAECpEtkBAABAEezduzfevn2bvD5//vzo7++PhQsX/s/vb968GQsWLEjeOzw8HE1NTXndFwAAAAAASpXIDgAAAGZZd3d33Lp1K+fMmTNnYt26db+8tmbNmjh37lzO+2/fvh0XLlyY0Z4AAAAAAIDIDgAAAGbVy5cv4+DBgzlnamtrY//+/Tlnmpubo66uLudMa2trvHjxYlp7AgAAAAAA/xDZAQAAwCz59u3bZBg38TOlsrIyLl++/NtvxKuqqkpe//79e2zfvj2+fv06rX0BAAAAAACRHQAAAMyaAwcOxKtXr5LXy8rKore3N5YuXfpbz6uoqIj+/v4oLy9Pzrx+/XrKt+IBAAAAAABpIjsAAACYBTdv3pzyDXUdHR1RXV39R89dv359dHZ25py5du1a3Lhx44+eCwAAAAAA/ENkBwAAAAU2NDQUe/fuzTmzefPmOHLkyLSef+jQodi6dWvOmZaWlnjz5s20ng8AAAAAAKVMZAcAAAAFNDY2FvX19TE6OpqcWb58+eSb5v76a3r/Tc9kMnH16tVYsWJFcubLly+Te/z48WNaZwAAAAAAQKkS2QEAAEABtbW1xeDgYM5AbuLrXHMFcr9jItS7fv16zlDv+fPn0draOqNzAAAAAACg1IjsAAAAoEDu3r0bXV1dU37V65YtW/JyXk1NTRw+fDjnzPnz5+POnTt5OQ8AAAAAAEqByA4AAAAK4P3797F79+7IZrPJmQ0bNkRnZ2dezz1+/HhUV1fnnNmzZ0+8e/cur+cCAAAAAMC/lcgOAAAA8uznz5/R2NgYHz58SM5UVFREX19flJeX5/XssrKy6O3tjSVLliRnPn36NLnf+Ph4Xs8GAAAAAIB/I5EdAAAA5NnJkyfj0aNHOWe6u7ujqqqqIOdXVlbGlStXcs48efJk8q13AAAAAABAbiI7AAAAyKOnT59OGa81NzdHXV1dQfeora2NlpaWKWPAx48fF3QPAAAAAAD4f5fJZrPZYi8BAAAA8B+ZTCZ57dixY9He3j6r+1BYE59nR0dH8ro/XQEAAAAAxeZNdgAAAAAAAAAAAJAgsgMAAAAAAAAAAIAEkR0AAAAAAAAAAAAkiOwAAAAAAAAAAAAgIZPNZrOpiwAAAACzLZPJzPgZjx49io0bN+ZlH6bn8ePHsWnTphk/x5+uAAAAAIBi8yY7AAAAAAAAAAAASBDZAQAAAAAAAAAAQILIDgAAAAAAAAAAABJEdgAAAAAAAAAAAJAgsgMAAAAAAAAAAICEstQFAAAAgGLo6emZ8TNWrVqVl12Y2WeQj88SAAAAAKDYMtlsNlvsJQAAAAAAAAAAAGAu8nWxAAAAAAAAAAAAkCCyAwAAAAAAAAAAgASRHQAAAAAAAAAAACSI7AAAAAAAAAAAACBBZAcAAAAAAAAAAAAJIjsAAAAAAAAAAABIENkBAAAAAAAAAABAgsgOAAAAAAAAAAAAEkR2AAAAAAAAAAAAkCCyAwAAAAAAAAAAgASRHQAAAAAAAAAAACSI7AAAAAAAAAAAACBBZAcAAAAAAAAAAAAJIjsAAAAAAAAAAABIENkBAAAAAAAAAABAgsgOAAAAAAAAAAAAEkR2AAAAAAAAAAAAkCCyAwAAAAAAAAAAgASRHQAAAAAAAAAAACSI7AAAAAAAAAAAACBBZAcAAAAAAAAAAAAJIjsAAAAAAAAAAABIENkBAAAAAAAAAABAgsgOAAAAAAAAAAAAEkR2AAAAAAAAAAAAkCCyAwAAAAAAAAAAgASRHQAAAAAAAAAAACSI7AAAAAAAAAAAACBBZAcAAAAAAAAAAAAJIjsAAAAAAAAAAABIENkBAAAAAAAAAABAgsgOAAAAAAAAAAAAEkR2AAAAAAAAAAAAEL/2N4pSQ0/LDqS0AAAAAElFTkSuQmCC;movable=0;resizable=0;rotatable=0;deletable=0;editable=0;locked=1;connectable=0;" vertex="1" parent="1">
          <mxGeometry width="2521" height="2041" as="geometry" />
        </mxCell>
        <mxCell id="11DrzAMgFBPu7YquSY21-2" value="" style="endArrow=none;html=1;rounded=0;strokeWidth=6;" edge="1" parent="1">
          <mxGeometry width="50" height="50" relative="1" as="geometry">
            <mxPoint x="220" y="1840" as="sourcePoint" />
            <mxPoint x="1960" y="100" as="targetPoint" />
          </mxGeometry>
        </mxCell>
        <mxCell id="11DrzAMgFBPu7YquSY21-3" value="" style="endArrow=none;dashed=1;html=1;rounded=0;strokeWidth=5;" edge="1" parent="1">
          <mxGeometry width="50" height="50" relative="1" as="geometry">
            <mxPoint x="940" y="660" as="sourcePoint" />
            <mxPoint x="1310" y="1040" as="targetPoint" />
          </mxGeometry>
        </mxCell>
        <mxCell id="11DrzAMgFBPu7YquSY21-4" value="" style="endArrow=classic;html=1;rounded=0;strokeWidth=5;" edge="1" parent="1">
          <mxGeometry width="50" height="50" relative="1" as="geometry">
            <mxPoint x="1168" y="540" as="sourcePoint" />
            <mxPoint x="1168" y="890" as="targetPoint" />
          </mxGeometry>
        </mxCell>
        <mxCell id="11DrzAMgFBPu7YquSY21-5" value="" style="endArrow=classic;html=1;rounded=0;strokeWidth=5;" edge="1" parent="1">
          <mxGeometry width="50" height="50" relative="1" as="geometry">
            <mxPoint x="1170" y="890" as="sourcePoint" />
            <mxPoint x="860" y="890" as="targetPoint" />
          </mxGeometry>
        </mxCell>
        <mxCell id="11DrzAMgFBPu7YquSY21-6" value="&lt;font style=&quot;font-size: 50px;&quot;&gt;$$\theta_i $$&lt;/font&gt;" style="text;html=1;align=center;verticalAlign=middle;whiteSpace=wrap;rounded=0;" vertex="1" parent="1">
          <mxGeometry x="1030" y="730" width="150" height="30" as="geometry" />
        </mxCell>
        <mxCell id="11DrzAMgFBPu7YquSY21-7" value="&lt;font style=&quot;font-size: 50px;&quot;&gt;$$\theta_t $$&lt;/font&gt;" style="text;html=1;align=center;verticalAlign=middle;whiteSpace=wrap;rounded=0;" vertex="1" parent="1">
          <mxGeometry x="980" y="810" width="150" height="80" as="geometry" />
        </mxCell>
        <mxCell id="11DrzAMgFBPu7YquSY21-8" value="&lt;font style=&quot;font-size: 50px;&quot;&gt;$$\varepsilon_r = 4 $$&lt;/font&gt;" style="text;html=1;align=center;verticalAlign=middle;whiteSpace=wrap;rounded=0;" vertex="1" parent="1">
          <mxGeometry x="320" y="1390" width="150" height="80" as="geometry" />
        </mxCell>
        <mxCell id="11DrzAMgFBPu7YquSY21-9" value="&lt;font style=&quot;font-size: 50px;&quot;&gt;$$\varepsilon_r = 1 $$&lt;/font&gt;" style="text;html=1;align=center;verticalAlign=middle;whiteSpace=wrap;rounded=0;" vertex="1" parent="1">
          <mxGeometry x="570" y="1590" width="150" height="80" as="geometry" />
        </mxCell>
      </root>
    </mxGraphModel>
  </diagram>
</mxfile>
